<svg width="40" height="40" viewBox="0 0 40 40" fill="none" xmlns="http://www.w3.org/2000/svg">
<path d="M20 37.1484C29.4708 37.1484 37.1484 29.4708 37.1484 20C37.1484 10.5292 29.4708 2.85156 20 2.85156C10.5292 2.85156 2.85156 10.5292 2.85156 20C2.85156 29.4708 10.5292 37.1484 20 37.1484Z" fill="#FDD402"/>
<path d="M7.53906 20C7.53906 11.3244 13.982 4.15468 22.3438 3.01168C21.567 2.90525 20.784 2.85175 20 2.85156C10.5292 2.85156 2.85156 10.5292 2.85156 20C2.85156 29.4708 10.5292 37.1484 20 37.1484C20.784 37.1482 21.567 37.0947 22.3438 36.9883C13.982 35.8453 7.53906 28.6756 7.53906 20Z" fill="#FBBF13"/>
<path d="M27.1188 28.1249C26.965 28.1251 26.8173 28.0647 26.7078 27.9566C24.9932 26.2663 22.6812 25.3201 20.2735 25.3234H19.7266C17.3185 25.3199 15.0062 26.2661 13.2913 27.9568C13.2365 28.0107 13.1715 28.0533 13.1002 28.0822C13.0289 28.111 12.9525 28.1256 12.8756 28.1249C12.7987 28.1243 12.7226 28.1085 12.6518 28.0784C12.5809 28.0484 12.5167 28.0047 12.4627 27.9498C12.4088 27.8949 12.3662 27.83 12.3373 27.7587C12.3085 27.6873 12.294 27.611 12.2946 27.5341C12.2953 27.4571 12.3111 27.3811 12.3411 27.3102C12.3712 27.2394 12.4149 27.1752 12.4697 27.1212C14.4037 25.2151 17.0111 24.148 19.7266 24.1515H20.2735C22.9888 24.1483 25.5959 25.2153 27.5298 27.1214C27.6127 27.2029 27.6694 27.3073 27.6928 27.4212C27.7162 27.5352 27.7051 27.6535 27.661 27.7611C27.617 27.8687 27.5419 27.9608 27.4453 28.0256C27.3487 28.0904 27.2351 28.125 27.1188 28.1249ZM9.96328 16.916C9.95641 16.916 9.94955 16.9159 9.94264 16.9157C9.78733 16.9103 9.64052 16.8435 9.5345 16.7298C9.42848 16.6162 9.37193 16.4651 9.3773 16.3098C9.38673 16.0376 9.52955 13.6109 11.615 12.251C12.3914 11.7509 13.2931 11.4798 14.2166 11.4689C14.2936 11.4673 14.3702 11.481 14.4419 11.5091C14.5137 11.5372 14.5792 11.5791 14.6347 11.6326C14.6902 11.686 14.7346 11.7499 14.7654 11.8205C14.7962 11.8912 14.8128 11.9672 14.8142 12.0442C14.8156 12.1213 14.8017 12.1978 14.7735 12.2695C14.7452 12.3412 14.7031 12.4066 14.6496 12.462C14.596 12.5174 14.532 12.5617 14.4613 12.5923C14.3906 12.623 14.3146 12.6394 14.2375 12.6406C13.5338 12.6449 12.846 12.8503 12.2552 13.2326C10.6653 14.2693 10.5557 16.1404 10.5485 16.3503C10.5432 16.5021 10.4793 16.6459 10.3701 16.7514C10.261 16.8569 10.1151 16.9159 9.96328 16.916Z" fill="#74563A"/>
<path d="M14.4629 18.3984C15.3043 18.3984 15.9863 17.7164 15.9863 16.875C15.9863 16.0336 15.3043 15.3516 14.4629 15.3516C13.6215 15.3516 12.9395 16.0336 12.9395 16.875C12.9395 17.7164 13.6215 18.3984 14.4629 18.3984Z" fill="#74563A"/>
<path d="M13.7206 16.875C13.7208 16.5392 13.832 16.2129 14.0369 15.9469C14.2417 15.6809 14.5288 15.49 14.8534 15.404C14.6276 15.3432 14.3908 15.3351 14.1614 15.3805C13.932 15.4259 13.7161 15.5235 13.5305 15.6657C13.3448 15.808 13.1944 15.991 13.0909 16.2007C12.9874 16.4104 12.9336 16.6412 12.9336 16.875C12.9336 17.1089 12.9874 17.3396 13.0909 17.5493C13.1944 17.759 13.3448 17.9421 13.5305 18.0843C13.7161 18.2265 13.932 18.3241 14.1614 18.3695C14.3908 18.4149 14.6276 18.4068 14.8534 18.346C14.5288 18.26 14.2417 18.0692 14.0369 17.8031C13.832 17.5371 13.7208 17.2108 13.7206 16.875Z" fill="#674B34"/>
<path d="M30.0489 16.9161C29.897 16.916 29.7512 16.857 29.642 16.7515C29.5328 16.6459 29.4689 16.5022 29.4636 16.3504C29.4564 16.1405 29.3468 14.2694 27.757 13.2327C27.1662 12.8504 26.4783 12.6449 25.7746 12.6407C25.6202 12.6379 25.4731 12.5742 25.3653 12.4636C25.2576 12.3529 25.1979 12.2041 25.1992 12.0497C25.2006 11.8952 25.2629 11.7475 25.3726 11.6388C25.4822 11.53 25.6304 11.4689 25.7849 11.4689C25.7884 11.4689 25.792 11.4689 25.7956 11.469C26.7191 11.4799 27.6208 11.751 28.3971 12.2512C30.4826 13.611 30.6254 16.0377 30.6348 16.3099C30.6402 16.4652 30.5837 16.6163 30.4776 16.7299C30.3716 16.8435 30.2248 16.9104 30.0695 16.9158C30.0626 16.916 30.0557 16.9161 30.0489 16.9161Z" fill="#74563A"/>
<path d="M25.5488 18.3984C26.3902 18.3984 27.0723 17.7164 27.0723 16.875C27.0723 16.0336 26.3902 15.3516 25.5488 15.3516C24.7075 15.3516 24.0254 16.0336 24.0254 16.875C24.0254 17.7164 24.7075 18.3984 25.5488 18.3984Z" fill="#74563A"/>
<path d="M24.8065 16.875C24.8067 16.5392 24.9179 16.2129 25.1228 15.9469C25.3277 15.6809 25.6147 15.49 25.9393 15.404C25.7135 15.3432 25.4767 15.3351 25.2473 15.3805C25.0179 15.4259 24.802 15.5235 24.6164 15.6657C24.4308 15.808 24.2804 15.991 24.1769 16.2007C24.0734 16.4104 24.0195 16.6412 24.0195 16.875C24.0195 17.1089 24.0734 17.3396 24.1769 17.5493C24.2804 17.759 24.4308 17.9421 24.6164 18.0843C24.802 18.2265 25.0179 18.3241 25.2473 18.3695C25.4767 18.4149 25.7135 18.4068 25.9393 18.346C25.6147 18.26 25.3277 18.0692 25.1228 17.8031C24.9179 17.5371 24.8067 17.2108 24.8065 16.875Z" fill="#674B34"/>
<path d="M26.1039 22.111C26.0628 21.9155 25.942 21.7493 25.7422 21.7493C25.5424 21.7493 25.4216 21.9155 25.3804 22.111C24.8981 24.4021 22.9688 25.608 22.9688 27.8991C22.9688 28.6346 23.261 29.3401 23.7811 29.8602C24.3012 30.3803 25.0066 30.6725 25.7422 30.6725C26.4777 30.6725 27.1832 30.3803 27.7033 29.8602C28.2234 29.3401 28.5156 28.6346 28.5156 27.8991C28.5156 25.608 26.5863 24.4021 26.1039 22.111Z" fill="#4EBAEA"/>
<path d="M24.5312 27.8991C24.5312 26.0522 25.7846 24.9102 26.5234 23.3368C26.3363 22.9459 26.1955 22.5346 26.1039 22.111C26.0628 21.9155 25.942 21.7493 25.7422 21.7493C25.5424 21.7493 25.4216 21.9155 25.3804 22.111C24.8981 24.4021 22.9688 25.608 22.9688 27.8991C22.9687 28.33 23.0692 28.7551 23.2621 29.1405C23.455 29.5259 23.735 29.861 24.0801 30.1193C24.4251 30.3776 24.8255 30.5519 25.2497 30.6284C25.6738 30.7049 26.1099 30.6816 26.5234 30.5602C25.9485 30.3913 25.4437 30.0407 25.0846 29.5611C24.7255 29.0814 24.5314 28.4983 24.5312 27.8991Z" fill="#2E99D4"/>
</svg>
