<svg width="41" height="40" viewBox="0 0 41 40" fill="none" xmlns="http://www.w3.org/2000/svg">
<path d="M20.2324 37.1484C29.7032 37.1484 37.3809 29.4708 37.3809 20C37.3809 10.5292 29.7032 2.85156 20.2324 2.85156C10.7616 2.85156 3.08398 10.5292 3.08398 20C3.08398 29.4708 10.7616 37.1484 20.2324 37.1484Z" fill="#FDD402"/>
<path d="M16.9121 16.5625H10.9746C10.8192 16.5625 10.6702 16.5008 10.5603 16.3909C10.4504 16.281 10.3887 16.132 10.3887 15.9766C10.3887 15.8212 10.4504 15.6721 10.5603 15.5622C10.6702 15.4524 10.8192 15.3906 10.9746 15.3906H16.9121C17.0675 15.3906 17.2165 15.4524 17.3264 15.5622C17.4363 15.6721 17.498 15.8212 17.498 15.9766C17.498 16.132 17.4363 16.281 17.3264 16.3909C17.2165 16.5008 17.0675 16.5625 16.9121 16.5625ZM29.4902 16.5625H23.5527C23.3973 16.5625 23.2483 16.5008 23.1384 16.3909C23.0285 16.281 22.9668 16.132 22.9668 15.9766C22.9668 15.8212 23.0285 15.6721 23.1384 15.5622C23.2483 15.4524 23.3973 15.3906 23.5527 15.3906H29.4902C29.6456 15.3906 29.7947 15.4524 29.9046 15.5622C30.0144 15.6721 30.0762 15.8212 30.0762 15.9766C30.0762 16.132 30.0144 16.281 29.9046 16.3909C29.7947 16.5008 29.6456 16.5625 29.4902 16.5625ZM27.2637 28.125H13.2012C13.0458 28.125 12.8967 28.0633 12.7869 27.9534C12.677 27.8435 12.6152 27.6945 12.6152 27.5391C12.6152 27.3837 12.677 27.2346 12.7869 27.1247C12.8967 27.0149 13.0458 26.9531 13.2012 26.9531H27.2637C27.4191 26.9531 27.5681 27.0149 27.678 27.1247C27.7879 27.2346 27.8496 27.3837 27.8496 27.5391C27.8496 27.6945 27.7879 27.8435 27.678 27.9534C27.5681 28.0633 27.4191 28.125 27.2637 28.125Z" fill="#74563A"/>
<path d="M7.77148 20C7.77148 11.3244 14.2144 4.15468 22.5762 3.01168C21.7995 2.90525 21.0164 2.85175 20.2324 2.85156C10.7616 2.85156 3.08398 10.5292 3.08398 20C3.08398 29.4708 10.7616 37.1484 20.2324 37.1484C21.0164 37.1482 21.7995 37.0947 22.5762 36.9883C14.2144 35.8453 7.77148 28.6756 7.77148 20Z" fill="#FBBF13"/>
</svg>
