<svg width="41" height="40" viewBox="0 0 41 40" fill="none" xmlns="http://www.w3.org/2000/svg">
<path d="M20.4648 37.1484C29.9357 37.1484 37.6133 29.4708 37.6133 20C37.6133 10.5292 29.9357 2.85156 20.4648 2.85156C10.994 2.85156 3.31641 10.5292 3.31641 20C3.31641 29.4708 10.994 37.1484 20.4648 37.1484Z" fill="#FDD402"/>
<path d="M8.00391 20C8.00391 11.3244 14.4468 4.15468 22.8086 3.01168C22.0319 2.90525 21.2488 2.85175 20.4648 2.85156C10.994 2.85156 3.31641 10.5292 3.31641 20C3.31641 29.4708 10.994 37.1484 20.4648 37.1484C21.2488 37.1482 22.0319 37.0947 22.8086 36.9883C14.4468 35.8453 8.00391 28.6756 8.00391 20Z" fill="#FBBF13"/>
<path d="M13.3945 16.0547C14.6027 16.0547 15.582 15.0753 15.582 13.8672C15.582 12.6591 14.6027 11.6797 13.3945 11.6797C12.1864 11.6797 11.207 12.6591 11.207 13.8672C11.207 15.0753 12.1864 16.0547 13.3945 16.0547Z" fill="#74563A"/>
<path d="M12.7694 13.8672C12.7694 13.4243 12.9039 12.9918 13.155 12.627C13.4061 12.2622 13.762 11.9821 14.1756 11.8239C13.8444 11.6973 13.4873 11.6531 13.1352 11.6951C12.783 11.7372 12.4464 11.8642 12.1543 12.0653C11.8621 12.2663 11.6233 12.5354 11.4583 12.8493C11.2933 13.1632 11.207 13.5126 11.207 13.8672C11.207 14.2218 11.2933 14.5711 11.4583 14.8851C11.6233 15.199 11.8621 15.468 12.1543 15.6691C12.4464 15.8702 12.783 15.9972 13.1352 16.0393C13.4873 16.0813 13.8444 16.0371 14.1756 15.9105C13.762 15.7522 13.4061 15.4722 13.155 15.1074C12.9039 14.7425 12.7694 14.3101 12.7694 13.8672Z" fill="#674B34"/>
<path d="M27.5352 16.0547C28.7433 16.0547 29.7227 15.0753 29.7227 13.8672C29.7227 12.6591 28.7433 11.6797 27.5352 11.6797C26.327 11.6797 25.3477 12.6591 25.3477 13.8672C25.3477 15.0753 26.327 16.0547 27.5352 16.0547Z" fill="#74563A"/>
<path d="M26.91 13.8672C26.9101 13.4243 27.0445 12.9918 27.2956 12.627C27.5467 12.2622 27.9026 11.9821 28.3163 11.8239C27.985 11.6973 27.6279 11.6531 27.2758 11.6951C26.9237 11.7372 26.587 11.8642 26.2949 12.0653C26.0028 12.2663 25.7639 12.5354 25.5989 12.8493C25.4339 13.1632 25.3477 13.5126 25.3477 13.8672C25.3477 14.2218 25.4339 14.5711 25.5989 14.8851C25.7639 15.199 26.0028 15.468 26.2949 15.6691C26.587 15.8702 26.9237 15.9972 27.2758 16.0393C27.6279 16.0813 27.985 16.0371 28.3163 15.9105C27.9026 15.7522 27.5467 15.4722 27.2956 15.1074C27.0445 14.7425 26.9101 14.3101 26.91 13.8672Z" fill="#674B34"/>
<path d="M30.1578 25.3625C29.5915 27.4257 28.3629 29.2457 26.6611 30.5423C24.9593 31.839 22.8786 32.5406 20.7391 32.5391H20.1922C18.0527 32.5408 15.972 31.8394 14.2702 30.5429C12.5684 29.2463 11.3398 27.4265 10.7734 25.3633" fill="#74563A"/>
<path d="M15.4082 31.2884C15.6844 31.4438 15.9683 31.5871 16.2603 31.7156C17.4992 32.2606 18.8381 32.541 20.1915 32.5391H20.7384C22.0916 32.541 23.4303 32.2606 24.6689 31.7156C24.9611 31.587 25.2455 31.4446 25.5221 31.2885C24.4132 30.3919 22.5618 29.8047 20.4651 29.8047C18.3685 29.8047 16.5169 30.3922 15.4082 31.2884Z" fill="#E5303E"/>
<path d="M21.6371 32.4977C21.341 32.5242 21.0418 32.5391 20.7387 32.5391H20.1918C18.8384 32.541 17.4994 32.2606 16.2605 31.7156C16.1871 31.6836 16.1152 31.65 16.0434 31.6164C15.9707 31.582 15.8996 31.5477 15.8285 31.5117C15.7684 31.482 15.709 31.4516 15.6504 31.4195C15.5918 31.3883 15.5324 31.3563 15.4746 31.3242C15.452 31.3125 15.4301 31.3008 15.4082 31.2883C15.7832 30.9919 16.1949 30.7453 16.6332 30.5547C18.0856 31.6595 19.8198 32.3328 21.6371 32.4977Z" fill="#674B34"/>
<path d="M29.3281 23.3125C29.4559 23.2582 29.5957 23.2389 29.7334 23.2565C29.871 23.2741 30.0015 23.328 30.1115 23.4126C30.2215 23.4973 30.3069 23.6096 30.3592 23.7382C30.4114 23.8668 30.4285 24.007 30.4087 24.1443C30.3509 24.5553 30.267 24.9622 30.1574 25.3625L30.1566 25.3633C27.1268 26.7962 23.8168 27.5394 20.4652 27.5394C17.1136 27.5394 13.8037 26.7962 10.7738 25.3633H10.773C10.6634 24.9627 10.5794 24.5556 10.5217 24.1443C10.5019 24.0069 10.519 23.8668 10.5712 23.7382C10.6234 23.6097 10.7088 23.4973 10.8188 23.4126C10.9287 23.328 11.0592 23.2741 11.1968 23.2565C11.3345 23.2388 11.4743 23.2581 11.602 23.3124C14.4063 24.5013 17.4208 25.1151 20.4668 25.1172H20.5824C23.5883 25.0996 26.5608 24.4862 29.3281 23.3125Z" fill="white"/>
<path d="M21.6375 32.4977C21.3414 32.5242 21.0422 32.5391 20.7391 32.5391H20.1922C18.0527 32.5408 15.972 31.8394 14.2702 30.5428C12.5684 29.2463 11.3398 27.4264 10.7734 25.3633L12.0825 25.3941C12.1825 25.7597 13.3383 26.0867 13.4789 26.4336C14.4366 28.7932 16.2749 30.6876 18.6047 31.7156C19.5666 32.1388 20.5909 32.4029 21.6375 32.4977Z" fill="#674B34"/>
<path d="M21.6371 32.4977C21.341 32.5242 21.0418 32.5391 20.7387 32.5391H20.1918C18.8384 32.541 17.4994 32.2606 16.2605 31.7156C16.1871 31.6836 16.1152 31.65 16.0434 31.6164C15.9707 31.582 15.8996 31.5477 15.8285 31.5117C15.7684 31.482 15.709 31.4516 15.6504 31.4195C15.5918 31.3883 15.5324 31.3563 15.4746 31.3242C15.452 31.3125 15.4301 31.3008 15.4082 31.2883C15.7832 30.9919 16.1949 30.7453 16.6332 30.5547C18.0856 31.6595 19.8198 32.3328 21.6371 32.4977Z" fill="#B72732"/>
<path d="M13.4787 26.4336C12.555 26.1355 11.6515 25.778 10.774 25.3633H10.7732C10.6637 24.9628 10.5796 24.5557 10.5216 24.1445C10.5019 24.0072 10.519 23.8671 10.5712 23.7385C10.6235 23.61 10.7089 23.4976 10.8189 23.413C10.9288 23.3283 11.0593 23.2744 11.1969 23.2567C11.3345 23.2391 11.4744 23.2583 11.6021 23.3125C11.9896 23.4766 12.4201 23.6461 12.8896 23.8117C12.8578 23.9196 12.8495 24.0331 12.8654 24.1445C12.9234 24.5557 13.0074 24.9628 13.1169 25.3633C13.2163 25.7269 13.3371 26.0843 13.4787 26.4336Z" fill="#E0E0E2"/>
</svg>
