<svg width="41" height="40" viewBox="0 0 41 40" fill="none" xmlns="http://www.w3.org/2000/svg">
<path d="M20.6953 37.1484C30.1661 37.1484 37.8438 29.4708 37.8438 20C37.8438 10.5292 30.1661 2.85156 20.6953 2.85156C11.2245 2.85156 3.54688 10.5292 3.54688 20C3.54688 29.4708 11.2245 37.1484 20.6953 37.1484Z" fill="#FDD402"/>
<path d="M8.23438 20C8.23438 11.3281 14.6797 4.15625 23.0391 3.00781C22.2656 2.89844 21.4766 2.85156 20.6953 2.85156C11.2266 2.85156 3.54688 10.5312 3.54688 20C3.54688 29.4688 11.2266 37.1484 20.6953 37.1484C21.4766 37.1484 22.2656 37.0938 23.0391 36.9922C14.6797 35.8438 8.23438 28.6719 8.23438 20Z" fill="#FBBF13"/>
<path d="M29.9381 16.7734C29.8366 16.7734 29.735 16.75 29.6491 16.6953L26.0006 14.6094C25.7194 14.4453 25.6256 14.0938 25.7819 13.8125C25.8366 13.7188 25.9069 13.6484 26.0006 13.5938L29.6491 11.5078C29.9303 11.3438 30.2897 11.4453 30.4459 11.7266C30.61 12.0078 30.5084 12.3672 30.2272 12.5234L27.4694 14.1016L30.2272 15.6797C30.5084 15.8438 30.6022 16.1953 30.4459 16.4766C30.3444 16.6563 30.1491 16.7734 29.9381 16.7734ZM11.4537 16.7734C11.1334 16.7734 10.8678 16.5078 10.8678 16.1875C10.8678 15.9766 10.9772 15.7813 11.1647 15.6797L13.9225 14.1016L11.1647 12.5234C10.8834 12.3672 10.7819 12.0078 10.9459 11.7266C11.1022 11.4453 11.4616 11.3438 11.7428 11.5078L15.3912 13.5938C15.6725 13.7578 15.7662 14.1094 15.61 14.3906C15.5553 14.4844 15.485 14.5547 15.3912 14.6094L11.7428 16.6953C11.6569 16.7422 11.5553 16.7734 11.4537 16.7734Z" fill="#74563A"/>
<path d="M26.3984 25.7031L20.9297 26.6406L11 25.2812C12.1641 29.5234 16.0234 32.4609 20.4219 32.4609H20.9688C21.0469 32.4609 21.125 32.4609 21.2031 32.4609C21.2578 32.4609 21.3125 32.4609 21.3672 32.4531C21.3906 32.4531 21.4062 32.4531 21.4297 32.4531C21.5 32.4531 21.5625 32.4453 21.6328 32.4375C21.6406 32.4375 21.6406 32.4375 21.6484 32.4375C21.7188 32.4297 21.7812 32.4297 21.8516 32.4219C21.8594 32.4219 21.8594 32.4219 21.8672 32.4219C25.9141 32.0469 29.3047 29.2031 30.3906 25.2891L26.3984 25.7031Z" fill="#74563A"/>
<path d="M21.8679 32.4218C21.5711 32.4453 21.2742 32.4609 20.9695 32.4609H20.4226C16.0242 32.4609 12.1648 29.5234 11.0007 25.2812C10.9773 25.1953 10.9539 25.1171 10.9382 25.0312C10.907 24.9062 10.8757 24.7812 10.8523 24.6562C10.8445 24.6171 10.8367 24.5703 10.8289 24.5312C10.8211 24.5078 10.8211 24.4843 10.8132 24.4531C10.8054 24.414 10.7976 24.3749 10.7898 24.3359C10.782 24.2812 10.7742 24.2265 10.7664 24.1718C10.7586 24.1249 10.7507 24.0781 10.7429 24.0312C10.7429 24.0312 10.7429 24.0312 10.7429 24.0234C10.6961 23.5937 11.0086 23.2109 11.4382 23.164C11.5711 23.1484 11.7039 23.1718 11.8289 23.2187C12.1961 23.3749 12.6023 23.539 13.0476 23.6952C13.1414 24.6015 13.3601 25.4921 13.7039 26.3437C14.6648 28.7031 16.5007 30.6015 18.8289 31.6249C19.7976 32.0624 20.8211 32.3281 21.8679 32.4218Z" fill="#674B34"/>
<path d="M24.8984 31.6406C23.9375 32.0625 22.9141 32.3281 21.8672 32.4219C21.8594 32.4219 21.8594 32.4219 21.8516 32.4219C21.7812 32.4297 21.7188 32.4297 21.6484 32.4375C21.6406 32.4375 21.6406 32.4375 21.6328 32.4375C21.5625 32.4453 21.5 32.4453 21.4297 32.4531C21.4062 32.4531 21.3906 32.4531 21.3672 32.4531C21.3125 32.4531 21.2578 32.4609 21.2031 32.4609C21.125 32.4609 21.0469 32.4609 20.9688 32.4609H20.4219C19.0703 32.4609 17.7266 32.1797 16.4922 31.6406C16.4219 31.6094 16.3437 31.5781 16.2734 31.5391C16.2031 31.5078 16.1328 31.4687 16.0547 31.4375C15.9141 31.3672 15.7734 31.2891 15.6328 31.2109C16.0078 30.9141 16.4219 30.6719 16.8594 30.4766C17.9062 30.0078 19.2422 29.7266 20.6875 29.7266C22.7812 29.7266 24.6328 30.3125 25.7422 31.2109C25.4766 31.3672 25.1953 31.5078 24.8984 31.6406Z" fill="#E5303E"/>
<path d="M29.5552 23.2344C29.9536 23.0625 30.4146 23.25 30.5786 23.6484C30.6333 23.7813 30.6567 23.9219 30.6333 24.0625C30.5786 24.4766 30.4927 24.8828 30.3833 25.2813C24.2505 28.1797 17.1333 28.1797 11.0005 25.2813C10.8911 24.8828 10.8052 24.4766 10.7505 24.0625C10.688 23.6328 10.9849 23.2344 11.4146 23.1797C11.5552 23.1563 11.7036 23.1797 11.8286 23.2344C14.6333 24.4219 17.6489 25.0391 20.6958 25.0391H20.813C23.8208 25.0234 26.7896 24.4063 29.5552 23.2344Z" fill="white"/>
<path d="M13.7117 26.3594C13.5789 26.3204 13.4539 26.2735 13.3289 26.2344C13.3211 26.2344 13.3132 26.2266 13.3054 26.2266C13.2429 26.2032 13.1726 26.1797 13.1101 26.1563C13.0398 26.1329 12.9617 26.1016 12.8914 26.0782C12.7742 26.0391 12.6648 25.9922 12.5554 25.9532C12.4695 25.9219 12.3914 25.8907 12.3132 25.8594C12.2429 25.8282 12.1726 25.8047 12.1101 25.7813C12.1023 25.7813 12.1023 25.7813 12.0945 25.7735C12.0242 25.7422 11.9461 25.711 11.8757 25.6876C11.7351 25.6251 11.5945 25.5704 11.4617 25.5079C11.4304 25.4922 11.3992 25.4766 11.3601 25.461C11.2273 25.4063 11.1101 25.3438 10.9929 25.2891C10.9695 25.1954 10.9461 25.1016 10.9226 25.0079C10.9148 24.9922 10.9148 24.9688 10.907 24.9532C10.8836 24.8594 10.8601 24.7657 10.8445 24.6641C10.8289 24.6016 10.8211 24.5469 10.8132 24.4844C10.8054 24.4376 10.7976 24.3907 10.7898 24.3438C10.782 24.2891 10.7742 24.2344 10.7664 24.1797C10.7586 24.1329 10.7507 24.086 10.7429 24.0391V24.0313C10.6961 23.6016 11.0086 23.2188 11.4382 23.1719C11.5711 23.1563 11.7039 23.1797 11.8289 23.2266C11.8601 23.2422 11.8914 23.2501 11.9226 23.2657C11.9539 23.2813 11.9851 23.2891 12.0164 23.3047C12.1492 23.3594 12.2898 23.4141 12.4382 23.4766C12.4773 23.4922 12.5242 23.5079 12.5632 23.5235C12.5789 23.5313 12.6023 23.5391 12.6179 23.5469C12.6414 23.5547 12.6648 23.5626 12.6882 23.5782C12.6961 23.5782 12.6961 23.5782 12.7039 23.586C12.7351 23.5938 12.7664 23.6094 12.7976 23.6172C12.8211 23.6251 12.8367 23.6329 12.8601 23.6407C12.9226 23.6641 12.9851 23.6876 13.0398 23.711C13.0945 24.2422 13.1961 24.7735 13.3367 25.2891C13.4461 25.6485 13.5711 26.0079 13.7117 26.3594Z" fill="#E0E0E2"/>
<path d="M21.8672 32.4219C21.5703 32.4453 21.2734 32.4609 20.9688 32.4609H20.4219C19.0703 32.4609 17.7266 32.1797 16.4922 31.6406C16.4219 31.6094 16.3437 31.5781 16.2734 31.5391C16.2031 31.5078 16.1328 31.4687 16.0547 31.4375C15.9141 31.3672 15.7734 31.2891 15.6328 31.2109C16.0078 30.9141 16.4219 30.6719 16.8594 30.4766C18.3125 31.5781 20.0469 32.2578 21.8672 32.4219Z" fill="#B72732"/>
</svg>
