<svg width="41" height="40" viewBox="0 0 41 40" fill="none" xmlns="http://www.w3.org/2000/svg">
<path d="M38.8613 20C38.867 23.5767 37.749 27.0649 35.6652 29.9719L35.6645 29.9726C34.0774 32.1922 31.9836 34.0011 29.5572 35.2491C27.1307 36.4971 24.4415 37.1483 21.7129 37.1484C12.2426 37.1484 4.56445 29.4711 4.56445 20C4.56445 10.5289 12.2426 2.85156 21.7129 2.85156C23.9649 2.85124 26.195 3.29458 28.2757 4.15625C30.3564 5.01793 32.2469 6.28106 33.8394 7.87351C35.4318 9.46595 36.695 11.3565 37.5566 13.4372C38.4183 15.5179 38.8616 17.7479 38.8613 20Z" fill="#FDD402"/>
<path d="M9.25195 20C9.25195 11.3244 15.6949 4.15468 24.0566 3.01168C23.2799 2.90525 22.4969 2.85175 21.7129 2.85156C12.2421 2.85156 4.56445 10.5292 4.56445 20C4.56445 29.4708 12.2421 37.1484 21.7129 37.1484C22.4969 37.1482 23.2799 37.0947 24.0566 36.9883C15.6949 35.8453 9.25195 28.6756 9.25195 20Z" fill="#FBBF13"/>
<path d="M21.9462 31.6797H21.3993C19.1315 31.6814 16.9259 30.9378 15.122 29.5634C13.3181 28.189 12.0158 26.26 11.4155 24.073C11.3951 23.9988 11.3895 23.9213 11.3991 23.845C11.4086 23.7686 11.4332 23.6949 11.4712 23.628C11.5093 23.5611 11.5602 23.5024 11.6209 23.4551C11.6817 23.4079 11.7512 23.3731 11.8254 23.3528C11.8996 23.3324 11.9771 23.3269 12.0535 23.3365C12.1299 23.3461 12.2036 23.3706 12.2705 23.4087C12.3373 23.4468 12.396 23.4977 12.4432 23.5585C12.4904 23.6193 12.5252 23.6887 12.5455 23.763C13.0779 25.7023 14.2329 27.4129 15.8326 28.6316C17.4324 29.8503 19.3882 30.5095 21.3993 30.5078H21.9462C23.9568 30.5073 25.9116 29.8471 27.5109 28.6286C29.1102 27.4101 30.2656 25.7006 30.7998 23.7623C30.8409 23.6124 30.9398 23.485 31.0748 23.4081C31.2098 23.3311 31.3699 23.311 31.5198 23.3521C31.6696 23.3931 31.7971 23.4921 31.874 23.6271C31.9509 23.7621 31.9711 23.9222 31.93 24.072C31.3297 26.2591 30.0274 28.1883 28.2235 29.5628C26.4196 30.9374 24.2141 31.6811 21.9462 31.6797ZM16.5555 15.7422C16.4786 15.7422 16.4024 15.727 16.3313 15.6976C16.2602 15.6682 16.1956 15.625 16.1412 15.5706C16.0868 15.5162 16.0436 15.4516 16.0142 15.3805C15.9848 15.3094 15.9696 15.2332 15.9696 15.1562C15.9696 14.7315 15.8009 14.3241 15.5005 14.0238C15.2002 13.7234 14.7928 13.5547 14.368 13.5547C13.9433 13.5547 13.5359 13.7234 13.2356 14.0238C12.9352 14.3241 12.7665 14.7315 12.7665 15.1562C12.7665 15.3117 12.7048 15.4607 12.5949 15.5706C12.485 15.6805 12.3359 15.7422 12.1805 15.7422C12.0251 15.7422 11.8761 15.6805 11.7662 15.5706C11.6563 15.4607 11.5946 15.3117 11.5946 15.1562C11.5946 14.4207 11.8868 13.7153 12.4069 13.1951C12.927 12.675 13.6325 12.3828 14.368 12.3828C15.1036 12.3828 15.809 12.675 16.3292 13.1951C16.8493 13.7153 17.1415 14.4207 17.1415 15.1562C17.1415 15.2332 17.1263 15.3094 17.0969 15.3805C17.0674 15.4516 17.0243 15.5162 16.9699 15.5706C16.9155 15.625 16.8509 15.6682 16.7798 15.6976C16.7087 15.727 16.6325 15.7422 16.5555 15.7422ZM30.6962 15.7422C30.6192 15.7422 30.543 15.727 30.4719 15.6976C30.4008 15.6682 30.3362 15.625 30.2818 15.5706C30.2274 15.5162 30.1843 15.4516 30.1548 15.3805C30.1254 15.3094 30.1102 15.2332 30.1102 15.1562C30.1102 14.7315 29.9415 14.3241 29.6411 14.0238C29.3408 13.7234 28.9334 13.5547 28.5087 13.5547C28.0839 13.5547 27.6765 13.7234 27.3762 14.0238C27.0758 14.3241 26.9071 14.7315 26.9071 15.1562C26.9071 15.3117 26.8454 15.4607 26.7355 15.5706C26.6256 15.6805 26.4766 15.7422 26.3212 15.7422C26.1658 15.7422 26.0167 15.6805 25.9068 15.5706C25.797 15.4607 25.7352 15.3117 25.7352 15.1562C25.7352 14.4207 26.0274 13.7153 26.5476 13.1951C27.0677 12.675 27.7731 12.3828 28.5087 12.3828C29.2442 12.3828 29.9497 12.675 30.4698 13.1951C30.9899 13.7153 31.2821 14.4207 31.2821 15.1562C31.2821 15.2332 31.267 15.3094 31.2375 15.3805C31.2081 15.4516 31.1649 15.5162 31.1105 15.5706C31.0561 15.625 30.9915 15.6682 30.9204 15.6976C30.8493 15.727 30.7731 15.7422 30.6962 15.7422Z" fill="#74563A"/>
<path d="M5.42548 8.74208C5.44635 8.74838 5.46827 8.7505 5.48997 8.74833C5.51167 8.74616 5.53273 8.73973 5.55194 8.72942C5.57116 8.71911 5.58816 8.70511 5.60197 8.68823C5.61577 8.67135 5.62612 8.65191 5.63242 8.63104C5.70722 8.38297 5.83016 8.15207 5.9942 7.95151C6.15825 7.75095 6.36018 7.58467 6.58849 7.46216C6.8168 7.33964 7.067 7.2633 7.32481 7.23748C7.58262 7.21166 7.84299 7.23688 8.09106 7.31168C8.33913 7.38649 8.57003 7.50942 8.77059 7.67347C8.97115 7.83751 9.13743 8.03945 9.25994 8.26776C9.38245 8.49606 9.4588 8.74626 9.48462 9.00407C9.51044 9.26188 9.48522 9.52225 9.41042 9.77032L9.36247 9.92932L8.39815 13.1271C8.37518 13.2033 8.33742 13.2742 8.28703 13.3358C8.23664 13.3974 8.17462 13.4485 8.10449 13.4861C8.03437 13.5238 7.95752 13.5472 7.87833 13.5551C7.79914 13.5631 7.71917 13.5553 7.64297 13.5323L4.44519 12.568L4.28619 12.5201C3.7852 12.369 3.36474 12.0251 3.11731 11.564C2.86989 11.1029 2.81576 10.5624 2.96684 10.0614C3.04164 9.81337 3.16458 9.58247 3.32862 9.38191C3.49266 9.18135 3.6946 9.01507 3.92291 8.89256C4.15121 8.77005 4.40142 8.6937 4.65923 8.66788C4.91704 8.64206 5.17741 8.66728 5.42548 8.74208Z" fill="#E5303E"/>
<path d="M6.00769 11.7868L5.84869 11.7388C5.60062 11.664 5.36972 11.5411 5.16916 11.377C4.96861 11.213 4.80233 11.011 4.67981 10.7827C4.5573 10.5544 4.48096 10.3042 4.45514 10.0464C4.42932 9.78861 4.45453 9.52824 4.52934 9.28018C4.59688 9.05549 4.70404 8.84469 4.84577 8.65771C4.42364 8.66002 4.01338 8.79759 3.6752 9.05023C3.33702 9.30288 3.08875 9.65729 2.96683 10.0614C2.89203 10.3095 2.86681 10.5699 2.89263 10.8277C2.91845 11.0855 2.9948 11.3357 3.11731 11.564C3.23982 11.7923 3.40611 11.9942 3.60666 12.1583C3.80722 12.3223 4.03812 12.4453 4.28619 12.5201L4.44518 12.568L7.64297 13.5323C7.79685 13.5787 7.96286 13.5621 8.10449 13.4861C8.24611 13.4101 8.35175 13.281 8.39816 13.1271L8.56938 12.5593L6.00769 11.7868Z" fill="#B72732"/>
<path d="M35.7355 10.1297L33.5683 12.125C33.4501 12.2338 33.2935 12.2913 33.1329 12.2847C32.9723 12.2781 32.821 12.208 32.7121 12.0899L30.4503 9.63282L30.3378 9.51017C30.0783 9.22823 29.9065 8.8768 29.8434 8.49882C29.7802 8.12084 29.8286 7.73265 29.9824 7.38168C30.1363 7.03071 30.389 6.73214 30.7098 6.52243C31.0305 6.31273 31.4054 6.20097 31.7886 6.20081C31.8246 6.20081 31.8613 6.20157 31.8972 6.20391C33.3785 7.29861 34.6745 8.62407 35.7355 10.1297Z" fill="#FBBF13"/>
<path d="M33.241 5.27511C33.2708 5.30751 33.3123 5.32674 33.3563 5.32856C33.4003 5.33037 33.4432 5.31464 33.4756 5.28481C33.8606 4.93039 34.3706 4.74342 34.8934 4.76502C35.4163 4.78663 35.9091 5.01505 36.2635 5.40002C36.439 5.59064 36.5752 5.81397 36.6644 6.05723C36.7536 6.3005 36.794 6.55895 36.7833 6.81783C36.7726 7.07671 36.711 7.33095 36.6021 7.56603C36.4931 7.80111 36.3389 8.01243 36.1483 8.18792L36.0261 8.3004L33.5689 10.5626C33.4506 10.6715 33.294 10.7289 33.1334 10.7223C32.9728 10.7156 32.8214 10.6455 32.7126 10.5272L30.4504 8.06997L30.3379 7.94779C30.1624 7.75717 30.0262 7.53385 29.937 7.29058C29.8478 7.04731 29.8074 6.78886 29.8181 6.52998C29.8288 6.2711 29.8904 6.01686 29.9993 5.78178C30.1083 5.54671 30.2625 5.33539 30.4531 5.1599C30.6437 4.98441 30.867 4.84818 31.1103 4.75899C31.3536 4.66981 31.612 4.62941 31.8709 4.64011C32.1298 4.65081 32.384 4.71239 32.6191 4.82135C32.8542 4.9303 33.0655 5.08449 33.241 5.27511Z" fill="#E5303E"/>
<path d="M32.0129 8.06992L31.9004 7.94774C31.7249 7.75712 31.5887 7.5338 31.4995 7.29053C31.4103 7.04726 31.3699 6.78881 31.3806 6.52993C31.3913 6.27105 31.4529 6.01682 31.5618 5.78174C31.6708 5.54666 31.825 5.33535 32.0156 5.15986C32.1789 5.00936 32.3666 4.88756 32.5705 4.79966C32.2205 4.64874 31.8343 4.60245 31.4585 4.66637C31.0827 4.73029 30.7335 4.90169 30.4531 5.15984C30.2625 5.33533 30.1083 5.54666 29.9993 5.78174C29.8904 6.01682 29.8288 6.27105 29.8181 6.52993C29.8074 6.78881 29.8478 7.04726 29.937 7.29053C30.0262 7.5338 30.1624 7.75712 30.3379 7.94774L30.4504 8.06992L32.7126 10.5272C32.8214 10.6454 32.9728 10.7156 33.1334 10.7222C33.294 10.7289 33.4506 10.6714 33.5689 10.5626L33.9687 10.1944L32.0129 8.06992Z" fill="#B72732"/>
<path d="M35.6629 29.9726C34.8592 31.0952 33.9236 32.1171 32.8761 33.0164L32.6379 32.7578L32.5254 32.6352C32.3499 32.4445 32.2136 32.2212 32.1245 31.9779C32.0353 31.7347 31.9949 31.4762 32.0056 31.2173C32.0163 30.9585 32.0779 30.7042 32.1868 30.4691C32.2958 30.2341 32.45 30.0227 32.6406 29.8473C32.8312 29.6718 33.0545 29.5355 33.2978 29.4464C33.5411 29.3572 33.7995 29.3168 34.0584 29.3275C34.3173 29.3382 34.5715 29.3998 34.8066 29.5087C35.0417 29.6177 35.253 29.7719 35.4285 29.9625C35.4583 29.9948 35.4997 30.014 35.5436 30.0159C35.5875 30.0178 35.6304 30.0023 35.6629 29.9726Z" fill="#FBBF13"/>
<path d="M35.4285 28.4001C35.4583 28.4325 35.4998 28.4517 35.5438 28.4536C35.5878 28.4554 35.6307 28.4396 35.6631 28.4098C36.0481 28.0554 36.5581 27.8684 37.0809 27.89C37.6038 27.9116 38.0966 28.14 38.451 28.525C38.6265 28.7156 38.7627 28.939 38.8519 29.1822C38.9411 29.4255 38.9815 29.684 38.9708 29.9428C38.9601 30.2017 38.8985 30.4559 38.7896 30.691C38.6806 30.9261 38.5264 31.1374 38.3358 31.3129L38.2136 31.4254L35.7564 33.6876C35.6381 33.7965 35.4815 33.8539 35.3209 33.8473C35.1603 33.8406 35.0089 33.7705 34.9001 33.6522L32.6379 31.195L32.5254 31.0728C32.3499 30.8822 32.2137 30.6588 32.1245 30.4156C32.0353 30.1723 31.9949 29.9139 32.0056 29.655C32.0163 29.3961 32.0779 29.1419 32.1868 28.9068C32.2958 28.6717 32.45 28.4604 32.6406 28.2849C32.8312 28.1094 33.0545 27.9732 33.2978 27.884C33.5411 27.7948 33.7995 27.7544 34.0584 27.7651C34.3173 27.7758 34.5715 27.8374 34.8066 27.9463C35.0417 28.0553 35.253 28.2095 35.4285 28.4001Z" fill="#E5303E"/>
<path d="M34.2004 31.1949L34.0879 31.0727C33.9124 30.8821 33.7762 30.6588 33.687 30.4155C33.5978 30.1723 33.5574 29.9138 33.5681 29.6549C33.5788 29.3961 33.6404 29.1418 33.7493 28.9067C33.8583 28.6717 34.0125 28.4603 34.2031 28.2849C34.3664 28.1344 34.5541 28.0126 34.758 27.9247C34.408 27.7737 34.0218 27.7274 33.646 27.7914C33.2702 27.8553 32.921 28.0267 32.6406 28.2848C32.45 28.4603 32.2958 28.6717 32.1868 28.9067C32.0779 29.1418 32.0163 29.3961 32.0056 29.6549C31.9949 29.9138 32.0353 30.1723 32.1245 30.4155C32.2137 30.6588 32.3499 30.8821 32.5254 31.0727L32.6379 31.1949L34.9001 33.6522C35.0089 33.7704 35.1603 33.8406 35.3209 33.8472C35.4815 33.8538 35.6381 33.7964 35.7564 33.6876L36.1562 33.3194L34.2004 31.1949Z" fill="#B72732"/>
</svg>
