<svg width="36" height="35" viewBox="0 0 36 35" fill="none" xmlns="http://www.w3.org/2000/svg">
<path d="M32.1124 17.3911L31.4566 16.9714V12.8894L31.9912 12.8L32.0071 12.7973C32.0155 12.7963 32.0238 12.7944 32.0322 12.7917C32.0406 12.7898 32.049 12.787 32.0565 12.7842C32.1199 12.7618 32.1711 12.7172 32.2028 12.6622C32.2084 12.652 32.214 12.6408 32.2187 12.6296C32.2243 12.6185 32.228 12.6073 32.2308 12.5952C32.2336 12.5868 32.2355 12.5794 32.2364 12.571C32.2392 12.5552 32.2411 12.5384 32.2411 12.5217C32.2411 12.5105 32.2401 12.4993 32.2392 12.4881C32.2383 12.4844 32.2383 12.4798 32.2373 12.476C32.2345 12.4621 32.2318 12.449 32.2271 12.436C32.2243 12.4248 32.2196 12.4146 32.215 12.4043C32.2038 12.382 32.1907 12.3606 32.1749 12.3429C32.1702 12.3373 32.1655 12.3317 32.1609 12.3271C32.1544 12.3206 32.1478 12.314 32.1413 12.3085C32.1348 12.3038 32.1283 12.2982 32.1218 12.2945C32.1087 12.2842 32.0947 12.2759 32.0798 12.2703C32.0751 12.2675 32.0705 12.2647 32.0649 12.2628L32.0518 12.2582L19.2665 7.14947C19.2646 7.14856 19.2628 7.1476 19.2609 7.1476C19.218 7.13178 19.1705 7.12528 19.122 7.13269L5.86591 9.05067L5.85849 9.05158C5.80255 9.05999 5.75034 9.08514 5.70933 9.12237C5.70278 9.12796 5.69627 9.13446 5.69067 9.14192C5.68507 9.14751 5.68043 9.1531 5.67578 9.1596C5.6711 9.16615 5.66645 9.17265 5.66272 9.1801C5.66176 9.18101 5.66085 9.18288 5.6599 9.18383C5.65899 9.18474 5.65808 9.1857 5.65712 9.18756C5.65525 9.19033 5.65339 9.19406 5.65248 9.19688C5.64779 9.20524 5.64406 9.2127 5.64032 9.22107C4.985 10.4687 4.957 12.544 6.05518 13.7506C6.06451 13.7609 6.07475 13.7702 6.08499 13.7795C6.09246 13.7851 6.09897 13.7907 6.10739 13.7953C6.11299 13.7991 6.11859 13.8028 6.12509 13.8065L8.18247 15.1295L4.40701 15.6761L4.39959 15.677C4.36413 15.6826 4.33149 15.6938 4.30168 15.7105C4.29144 15.7161 4.28115 15.7226 4.27186 15.7301C4.26067 15.7375 4.24947 15.7468 4.24014 15.7571C4.23363 15.7636 4.22803 15.7692 4.22339 15.7766C4.21123 15.7906 4.20099 15.8055 4.19262 15.8213C4.18793 15.8297 4.18424 15.8381 4.18051 15.8465C3.52609 17.0941 3.49719 19.1703 4.59532 20.376L4.59627 20.377C4.59809 20.379 4.6006 20.3808 4.6026 20.3829C4.60651 20.3868 4.6107 20.3905 4.61484 20.3942C4.61748 20.3965 4.61967 20.399 4.62235 20.4012C4.62777 20.406 4.63455 20.4105 4.64102 20.415C4.64457 20.4175 4.64739 20.4206 4.65108 20.423L14.9457 27.0395C14.9478 27.041 14.9501 27.042 14.9523 27.0435C14.9542 27.0448 14.9562 27.0459 14.9581 27.0471C14.9602 27.0484 14.9623 27.05 14.9644 27.0513C14.9659 27.0522 14.9675 27.0528 14.9691 27.0536C14.9773 27.0585 14.9857 27.063 14.9945 27.0669C14.9959 27.0676 14.9972 27.0684 14.9986 27.069C15.0023 27.0706 15.0061 27.0718 15.0099 27.0732C15.0169 27.0759 15.0238 27.0786 15.031 27.0806C15.0361 27.0822 15.0412 27.0833 15.0463 27.0845C15.0507 27.0856 15.055 27.0866 15.0595 27.0875C15.0631 27.0881 15.0667 27.0889 15.0703 27.0894C15.0808 27.091 15.0913 27.0916 15.1018 27.0919C15.1047 27.092 15.1076 27.0926 15.1105 27.0926C15.1259 27.0926 15.1413 27.0913 15.1565 27.0888L29.763 24.6573L30.5474 24.5271C30.6616 24.5081 30.7522 24.421 30.7755 24.3077C30.7988 24.1945 30.7498 24.0786 30.6523 24.0163L29.9969 23.5973V19.5149L29.9972 19.5148L30.5407 19.4236L30.5472 19.4226C30.5612 19.4208 30.5743 19.4171 30.5873 19.4124C30.5985 19.4096 30.6088 19.4049 30.6199 19.4003C30.6199 19.4003 30.6199 19.4003 30.6209 19.3993C30.6321 19.3938 30.6433 19.3882 30.6544 19.3808C30.6684 19.3714 30.6815 19.3621 30.6927 19.351C30.7122 19.3323 30.729 19.3118 30.7411 19.2895C30.7486 19.2774 30.7551 19.2644 30.7607 19.2504C30.7747 19.2169 30.7812 19.1815 30.7812 19.1443C30.7812 19.134 30.7803 19.1238 30.7794 19.1145C30.7784 19.1098 30.7784 19.1061 30.7775 19.1014C30.7756 19.0921 30.7738 19.0828 30.771 19.0735C30.77 19.0679 30.7682 19.0623 30.7663 19.0577C30.7626 19.0465 30.7588 19.0362 30.7542 19.026C30.7477 19.0139 30.7411 19.0027 30.7337 18.9916C30.7327 18.9897 30.7318 18.9878 30.7309 18.9869C30.7243 18.9786 30.7178 18.9701 30.7104 18.9618C30.6843 18.932 30.6517 18.9078 30.6153 18.8929C30.6125 18.8901 30.6088 18.8891 30.605 18.8873L29.2757 18.3566L31.2231 18.0326C31.2259 18.0316 31.2296 18.0316 31.2333 18.0307L32.0071 17.9022C32.1208 17.8827 32.2122 17.7961 32.2355 17.6825C32.2588 17.5689 32.2094 17.4534 32.1124 17.3911ZM6.44764 13.3503C5.62731 12.4211 5.57414 10.8095 6.02254 9.72292L15.5954 15.2841C15.0594 16.2626 14.8954 17.4116 15.1443 18.4795C15.1918 18.6825 15.2524 18.8743 15.326 19.0558L9.12589 15.0718L9.10536 15.0588L6.44764 13.3503ZM4.98841 19.9755L4.98777 19.9748C4.16653 19.0465 4.11432 17.4349 4.56273 16.3483L14.1356 21.9086L14.1364 21.909C13.6013 22.888 13.4356 24.0368 13.6849 25.1051C13.7322 25.3078 13.7936 25.5003 13.8667 25.6817L4.98841 19.9755ZM29.4375 19.608V24.1452L15.1728 26.5197C14.7285 26.2091 14.3873 25.6539 14.2296 24.9783C14.0016 24.0011 14.1712 22.9456 14.6926 22.0619L29.4375 19.608ZM30.8972 17.1191C30.8972 17.121 30.8968 17.1229 30.8968 17.1248C30.8968 17.1259 30.8972 17.127 30.8972 17.1281V17.5204L30.8968 17.5205L28.2083 17.9683L28.1915 17.9702L16.6321 19.8947C16.1883 19.5837 15.8472 19.0288 15.6896 18.3529C15.4612 17.3762 15.6299 16.3204 16.1511 15.4368H16.152L30.8968 12.9825L30.8972 12.9825V17.1191Z" fill="#A8B1BD"/>
</svg>
