<svg width="38" height="38" viewBox="0 0 38 38" fill="none" xmlns="http://www.w3.org/2000/svg">
<circle cx="19" cy="19" r="19" fill="#F9FAFF"/>
<path fill-rule="evenodd" clip-rule="evenodd" d="M23.2964 16.6055L18.7284 22.6055C18.5404 22.8525 18.2494 22.9985 17.9394 23.0005H17.9324C17.6254 23.0005 17.3354 22.8585 17.1454 22.6165L14.7134 19.5095C14.3734 19.0755 14.4494 18.4465 14.8844 18.1065C15.3184 17.7655 15.9484 17.8415 16.2884 18.2775L17.9214 20.3635L21.7054 15.3945C22.0394 14.9555 22.6664 14.8695 23.1074 15.2045C23.5464 15.5395 23.6314 16.1665 23.2964 16.6055M19 9.00049C13.477 9.00049 9 13.4775 9 19.0005C9 24.5225 13.477 29.0005 19 29.0005C24.523 29.0005 29.0001 24.5225 29.0001 19.0005C29.0001 13.4775 24.523 9.00049 19 9.00049" fill="#231F20"/>
<mask id="mask0_17344_214141" style="mask-type:luminance" maskUnits="userSpaceOnUse" x="9" y="9" width="20" height="21">
<path fill-rule="evenodd" clip-rule="evenodd" d="M23.2964 16.6055L18.7284 22.6055C18.5404 22.8525 18.2494 22.9985 17.9394 23.0005H17.9324C17.6254 23.0005 17.3354 22.8585 17.1454 22.6165L14.7134 19.5095C14.3734 19.0755 14.4494 18.4465 14.8844 18.1065C15.3184 17.7655 15.9484 17.8415 16.2884 18.2775L17.9214 20.3635L21.7054 15.3945C22.0394 14.9555 22.6664 14.8695 23.1074 15.2045C23.5464 15.5395 23.6314 16.1665 23.2964 16.6055M19 9.00049C13.477 9.00049 9 13.4775 9 19.0005C9 24.5225 13.477 29.0005 19 29.0005C24.523 29.0005 29.0001 24.5225 29.0001 19.0005C29.0001 13.4775 24.523 9.00049 19 9.00049" fill="white"/>
</mask>
<g mask="url(#mask0_17344_214141)">
<rect x="7" y="7" width="24.0001" height="24.0001" fill="#09A57F"/>
</g>
</svg>
