<svg width="150" height="136" viewBox="0 0 150 136" fill="none" xmlns="http://www.w3.org/2000/svg">
<path d="M137.421 107.498C137.421 108.84 136.246 110.014 134.906 110.014H124.842V120.077C124.842 121.419 123.667 122.593 122.327 122.593C120.985 122.593 119.811 121.418 119.811 120.077V110.014H109.748C108.406 110.014 107.232 108.839 107.232 107.498C107.232 106.156 108.407 104.983 109.748 104.983H119.811V94.9193C119.811 93.5774 120.986 92.4041 122.327 92.4041C123.669 92.4041 124.842 93.5786 124.842 94.9193V104.983H134.906C136.246 104.983 137.421 105.989 137.421 107.498ZM150 107.498C150 122.761 137.588 135.171 122.327 135.171C107.064 135.171 94.654 122.76 94.654 107.498C94.6529 92.2369 107.065 79.8255 122.326 79.8255C137.589 79.8255 150 92.2369 150 107.498H150ZM144.968 107.498C144.968 95.0869 134.737 84.8558 122.325 84.8558C109.914 84.8558 99.6829 95.0866 99.6829 107.498C99.684 119.91 109.747 130.141 122.325 130.141C134.904 130.141 144.968 119.91 144.968 107.498ZM122.158 38.5663C122.158 37.0571 120.816 35.7152 119.307 35.7152L14.6513 35.7141C13.1421 35.7141 11.8002 37.0559 11.8002 38.5651C11.8002 40.0743 13.1421 41.4162 14.6513 41.4162H119.307C120.985 41.2489 122.158 40.0754 122.158 38.5663ZM66.9791 6.53218L7.94244 34.541H126.016L66.9791 6.53218ZM72.178 97.6029H89.1172V96.4283L72.178 96.4295V97.6029ZM72.6811 94.7519V95.758H88.4469V94.7519H72.6811ZM86.4334 42.4239H74.8605C73.0156 42.4239 71.5065 43.9331 71.5065 45.778C71.5065 47.6229 73.0157 49.132 74.8605 49.132V88.0426C73.686 88.2099 72.6799 89.2172 72.6799 90.5579V93.9119H88.4456V90.5579C88.4456 89.216 87.6068 88.2099 86.2649 88.0426L86.2661 49.2998C88.1111 49.2998 89.6202 47.7906 89.6202 45.9457C89.7886 43.9323 88.2783 42.423 86.4332 42.423L86.4334 42.4239ZM45.0071 97.6031H61.9472V96.4285L45.0071 96.4297V97.6031ZM45.5113 94.752V95.7582H61.2771V94.752H45.5113ZM59.2636 42.4241H47.6907C45.8458 42.4241 44.3367 43.9333 44.3367 45.7781C44.3367 47.623 45.8459 49.1322 47.6907 49.1322V88.0427C46.5161 88.21 45.5101 89.2173 45.5101 90.558V93.9121H61.2758V90.558C61.2758 89.2161 60.437 88.21 59.0951 88.0427L59.0963 49.2999C60.9413 49.2999 62.4504 47.7907 62.4504 45.9459C62.6177 43.9324 61.1085 42.4232 59.2634 42.4232L59.2636 42.4241ZM17.8373 97.6032H34.7765V96.4286L17.8373 96.4298V97.6032ZM18.5088 94.7522V95.7583H34.2746V94.7522H18.5088ZM32.0936 42.4242H20.5208C18.6759 42.4242 17.1668 43.9334 17.1668 45.7783C17.1668 47.6232 18.676 49.1323 20.5208 49.1323V88.0429C19.3462 88.2102 18.3401 89.2175 18.3401 90.5582V93.9122H34.1059V90.5582C34.1059 89.2163 33.2671 88.2102 31.9252 88.0429V49.3001C33.7702 49.3001 35.2793 47.7909 35.2793 45.946C35.4477 43.9326 33.9385 42.4233 32.0935 42.4233L32.0936 42.4242ZM132.221 35.7149C132.388 35.8822 132.557 35.8822 132.724 35.8822C133.227 35.8822 133.73 35.5465 133.899 35.2119C134.066 34.8773 134.066 34.7088 134.066 34.5415C134.066 34.0384 133.73 33.5354 133.396 33.3669L67.6504 0.997374C67.3146 0.830078 66.98 0.830078 66.8116 0.830078H66.6443L0.731172 33.3673C0.0608097 33.7031 -0.107658 34.5419 0.0608085 35.045C0.228104 35.548 1.2354 35.8838 1.73847 35.7153L66.9807 3.68125L132.221 35.7149ZM7.94229 111.523C6.4331 111.523 5.25853 112.698 5.25853 114.207C5.25853 115.716 6.43313 116.891 7.94229 116.891H91.8012C91.2981 115.213 90.9623 113.368 90.6266 111.692L7.94172 111.691L7.94229 111.523ZM11.1292 104.982C9.62004 104.982 8.44547 106.157 8.44547 107.666C8.44547 109.175 9.62007 110.35 11.1292 110.35H90.6275C90.6275 109.511 90.4602 108.505 90.4602 107.666C90.4602 106.827 90.4602 105.988 90.6275 105.151L11.1292 105.15V104.982ZM91.8015 98.4414H14.6513C13.1421 98.4414 11.9675 99.616 11.9675 101.125C11.9675 102.634 13.1421 103.809 14.6513 103.809H90.7952C90.7963 101.795 91.2994 100.119 91.8025 98.4413L91.8015 98.4414ZM113.436 76.8064V49.3007C115.281 49.3007 116.791 47.7915 116.791 45.9466C116.791 44.1017 115.281 42.5925 113.436 42.5925H101.864C100.019 42.5925 98.5096 44.1017 98.5096 45.9466C98.5096 47.7915 100.019 49.3007 101.864 49.3007V83.0119C105.219 80.1609 109.244 77.9801 113.436 76.8067V76.8064Z" fill="#959CA6"/>
</svg>
