<svg width="157" height="157" viewBox="0 0 157 157" fill="none" xmlns="http://www.w3.org/2000/svg">
<path d="M78.5 112.459C80.4244 112.459 82.0385 111.807 83.3425 110.503C84.6465 109.199 85.2962 107.587 85.2917 105.667C85.2872 103.748 84.6352 102.136 83.3357 100.832C82.0362 99.5277 80.4244 98.8757 78.5 98.8757C76.5757 98.8757 74.9639 99.5277 73.6644 100.832C72.3649 102.136 71.7129 103.748 71.7084 105.667C71.7038 107.587 72.3559 109.201 73.6644 110.51C74.9729 111.818 76.5848 112.468 78.5 112.459ZM78.5 85.2923C80.4244 85.2923 82.0385 84.6403 83.3425 83.3363C84.6465 82.0323 85.2962 80.4204 85.2917 78.5007V51.334C85.2917 49.4097 84.6397 47.7978 83.3357 46.4983C82.0317 45.1988 80.4198 44.5468 78.5 44.5423C76.5803 44.5378 74.9684 45.1898 73.6644 46.4983C72.3604 47.8068 71.7084 49.4187 71.7084 51.334V78.5007C71.7084 80.425 72.3604 82.0391 73.6644 83.3431C74.9684 84.6471 76.5803 85.2969 78.5 85.2923ZM78.5 146.417C69.1049 146.417 60.2757 144.633 52.0126 141.065C43.7494 137.498 36.5615 132.66 30.449 126.552C24.3365 120.444 19.4986 113.256 15.9352 104.988C12.3719 96.7204 10.5879 87.8913 10.5834 78.5007C10.5789 69.11 12.3628 60.2809 15.9352 52.0132C19.5076 43.7454 24.3456 36.5576 30.449 30.4496C36.5525 24.3416 43.7403 19.5037 52.0126 15.9358C60.2848 12.3679 69.114 10.584 78.5 10.584C87.8861 10.584 96.7153 12.3679 104.988 15.9358C113.26 19.5037 120.448 24.3416 126.551 30.4496C132.655 36.5576 137.495 43.7454 141.072 52.0132C144.649 60.2809 146.43 69.11 146.417 78.5007C146.403 87.8913 144.619 96.7204 141.065 104.988C137.511 113.256 132.673 120.444 126.551 126.552C120.43 132.66 113.242 137.5 104.988 141.072C96.7334 144.645 87.9042 146.426 78.5 146.417Z" fill="#FF0000"/>
<path d="M78.5 107.539H78.4884L78.4768 107.539C77.8231 107.542 77.4878 107.375 77.1433 107.031C76.7983 106.686 76.6268 106.345 76.6284 105.679C76.63 104.995 76.8088 104.646 77.1494 104.305C77.4801 103.973 77.8175 103.796 78.5 103.796C79.1825 103.796 79.52 103.973 79.8507 104.305C80.1913 104.646 80.3701 104.995 80.3717 105.679C80.3733 106.35 80.2005 106.687 79.8635 107.024C79.526 107.362 79.1827 107.539 78.5 107.539ZM78.5 80.3723L78.4884 80.3723C77.8176 80.3739 77.4803 80.2011 77.1433 79.8642C76.8058 79.5266 76.6284 79.1833 76.6284 78.5007V51.334C76.6284 50.6672 76.8014 50.3204 77.1494 49.9713L73.6644 46.4983L77.1494 49.9712C77.4876 49.6319 77.823 49.4607 78.4884 49.4623C79.1722 49.4639 79.5211 49.6428 79.8628 49.9833C80.1947 50.3141 80.3717 50.6515 80.3717 51.334L80.3717 78.5007L80.3717 78.5123C80.3733 79.1831 80.2005 79.5204 79.8635 79.8574C79.526 80.1949 79.1827 80.3723 78.5 80.3723ZM50.0622 145.582C58.9668 149.427 68.4611 151.337 78.4953 151.337C88.542 151.347 98.0411 149.44 106.942 145.588C115.74 141.78 123.45 136.597 130.026 130.035C136.609 123.467 141.794 115.75 145.585 106.931C149.414 98.0254 151.322 88.5346 151.337 78.5078C151.351 68.472 149.443 58.9725 145.587 50.0596C141.775 41.2482 136.592 33.5371 130.031 26.9719C123.469 20.4045 115.755 15.2218 106.936 11.4181C98.0227 7.57371 88.5276 5.66398 78.5 5.66398C68.4725 5.66398 58.9774 7.57371 50.064 11.4181C41.2452 15.2218 33.5313 20.4045 26.9688 26.9719C20.408 33.5376 15.2265 41.2493 11.4188 50.0616C7.56846 58.9726 5.65855 68.4697 5.66338 78.503C5.66822 88.5331 7.5775 98.0271 11.417 106.935C15.2165 115.751 20.3997 123.465 26.9713 130.032C33.5412 136.597 41.2532 141.779 50.0622 145.582Z" stroke="#FF0000" stroke-opacity="0.18" stroke-width="9.84"/>
</svg>
