                    <svg
                      width="42"
                      height="43"
                      viewBox="0 0 42 43"
                      fill="none"
                      xmlns="http://www.w3.org/2000/svg"
                    >
                      <path
                        d="M13.7891 14.8418V32.5545L23.0186 37.1339V19.2224L13.7891 14.8418Z"
                        fill="#5447B2"
                      />
                      <path
                        d="M13.7891 8.88063V14.8424L25.2994 8.88063V2.83203L13.7891 8.88063Z"
                        fill="#8968FF"
                      />
                      <path
                        d="M25.2969 8.88063L34.5264 13.3732V7.23873L25.2969 2.83203V8.88063Z"
                        fill="#52C1B9"
                      />
                      <path
                        d="M13.7891 14.8426L25.2994 8.88086L34.5279 13.3734L22.1516 18.8554L13.7891 14.8426Z"
                        fill="#323333"
                      />
                      <path
                        d="M13.7891 21.3231V27.2848L25.2994 21.3231V15.2754L13.7891 21.3231Z"
                        fill="#8968FF"
                      />
                      <path
                        d="M25.2969 21.3231L34.5264 25.8166V19.6812L25.2969 15.2754V21.3231Z"
                        fill="#52C1B9"
                      />
                      <path
                        d="M13.7891 27.2821L25.2994 21.3203L34.5279 25.8138L23.0108 31.5441L13.7891 27.2821Z"
                        fill="#323333"
                      />
                      <path
                        d="M13.7884 14.8477V27.3145L7.35938 30.3388V17.7851L13.7884 14.8477Z"
                        fill="#8968FF"
                      />
                      <path
                        d="M7.35938 35.8375L13.7884 32.5547L23.0179 37.1341L16.2775 39.9857L7.35938 35.8375Z"
                        fill="#323333"
                      />
                    </svg>
