<svg width="18" height="18" viewBox="0 0 18 18" fill="none" xmlns="http://www.w3.org/2000/svg">
<path fill-rule="evenodd" clip-rule="evenodd" d="M13.5249 2.36966C13.5249 1.20782 14.4684 0.264374 15.6302 0.264374C16.7921 0.264374 17.7355 1.20782 17.7355 2.36966C17.7355 3.5315 16.7921 4.47495 15.6302 4.47495C14.4684 4.47495 13.5249 3.5315 13.5249 2.36966ZM10.1616 11.4104L12.6862 8.15291L12.6513 8.17038C12.7911 7.9782 12.8173 7.7336 12.7212 7.51521C12.626 7.29682 12.4154 7.14831 12.1892 7.13084C11.9524 7.10464 11.7174 7.20946 11.5768 7.40165L9.46365 10.1359L7.04301 8.23153C6.89451 8.11797 6.71979 8.07342 6.54508 8.09176C6.37124 8.11797 6.214 8.21319 6.1083 8.35296L3.52342 11.717L3.47014 11.7957C3.32163 12.0743 3.39152 12.4325 3.65359 12.6256C3.77588 12.7042 3.90692 12.7566 4.05542 12.7566C4.25722 12.7653 4.44853 12.6596 4.57083 12.4945L6.76347 9.67204L9.25313 11.5423L9.33175 11.5939C9.61129 11.7424 9.96071 11.6734 10.1616 11.4104ZM12.0136 1.81958C11.9786 2.03797 11.9612 2.25636 11.9612 2.47475C11.9612 4.44027 13.5511 6.02928 15.5078 6.02928C15.7262 6.02928 15.9359 6.00395 16.1543 5.969V13.0178C16.1543 15.98 14.4071 17.7359 11.437 17.7359H4.98228C2.01129 17.7359 0.26416 15.98 0.26416 13.0178V6.55429C0.26416 3.58418 2.01129 1.81958 4.98228 1.81958H12.0136Z" fill="#FF7070"/>
</svg>
