<svg width="35" height="35" viewBox="0 0 35 35" fill="none" xmlns="http://www.w3.org/2000/svg">
<path d="M24.4825 29.9401C24.3956 29.9857 24.3004 30.0074 24.2062 30.0074C24.0162 30.0074 23.8306 29.9184 23.7284 29.7589L17.057 19.3671V29.6122C17.057 29.8878 16.8101 30.1111 16.5053 30.1111C16.2003 30.1111 15.9537 29.8881 15.9537 29.6122V19.3764L9.28869 29.7589C9.18584 29.9187 9.00121 30.0074 8.81052 30.0074C8.71693 30.0074 8.62142 29.9857 8.53454 29.9401C8.27102 29.802 8.18158 29.4966 8.33427 29.2583L15.8844 17.4966C15.9186 17.4437 15.9626 17.4004 16.0118 17.3637C16.1016 17.1985 16.2878 17.0835 16.5053 17.0835C16.7184 17.0835 16.9011 17.1938 16.9931 17.3542C17.0474 17.3923 17.0953 17.44 17.1324 17.4969L24.6825 29.2583C24.8358 29.4966 24.7457 29.802 24.4825 29.9401ZM20.1017 15.2944C20.1017 15.0885 19.9155 14.9203 19.688 14.9203H13.2952C13.0677 14.9203 12.8815 15.0885 12.8815 15.2944V16.5418C12.8815 16.7478 13.0677 16.9159 13.2952 16.9159H19.688C19.9155 16.9159 20.1017 16.7475 20.1017 16.5418V15.2944ZM19.9666 11.7986C18.6103 11.7986 17.3492 11.2593 16.4916 10.3484C15.634 11.259 14.3726 11.7986 13.0163 11.7986C12.3906 11.7986 11.7942 11.6839 11.2506 11.4771V15.5437C11.2506 15.7497 11.4368 15.9178 11.6642 15.9178H12.2427V15.2941C12.2427 14.7692 12.7148 14.3423 13.2952 14.3423H19.688C20.2681 14.3423 20.7405 14.7692 20.7405 15.2941V15.9178H21.319C21.5467 15.9178 21.7326 15.7494 21.7326 15.5437V11.4771C21.1887 11.6839 20.5923 11.7986 19.9666 11.7986ZM26.2598 11.2174C26.2598 11.0117 26.079 10.8826 25.8576 10.9311L22.5488 11.6533C22.3277 11.7016 22.1463 11.9093 22.1463 12.1155V13.3598C22.1463 13.5654 22.3274 13.7734 22.5488 13.8217L25.8576 14.5439C26.0787 14.5921 26.2598 14.4633 26.2598 14.2576V11.2174ZM10.4229 12.208H10.131V11.9587C10.131 11.7527 9.94478 11.5846 9.71735 11.5846H9.15677C8.92934 11.5846 8.74312 11.753 8.74312 11.9587V14.2036C8.74312 14.4096 8.92934 14.578 9.15677 14.578H9.71703C9.94478 14.578 10.1307 14.4096 10.1307 14.2036V13.9543H10.4229C10.6504 13.9543 10.8366 13.7859 10.8366 13.5802V12.5821C10.8369 12.3761 10.6507 12.208 10.4229 12.208ZM23.8977 7.66611C23.8977 9.62938 22.1377 11.2208 19.9666 11.2208C18.4586 11.2208 17.1509 10.4521 16.4916 9.32489C15.8323 10.4518 14.5243 11.2208 13.0163 11.2208C10.8455 11.2208 9.08554 9.62938 9.08554 7.66611C9.08554 5.70284 10.8455 4.11108 13.0163 4.11108C14.5243 4.11108 15.8323 4.8801 16.4916 6.00704C17.1506 4.8801 18.4586 4.11108 19.9666 4.11108C22.1377 4.11108 23.8977 5.70284 23.8977 7.66611ZM14.1956 7.66611C14.1956 7.07707 13.6676 6.59955 13.0166 6.59955C12.3657 6.59955 11.8373 7.07707 11.8373 7.66611C11.8373 8.25515 12.3653 8.73239 13.0166 8.73239C13.6679 8.73239 14.1956 8.25515 14.1956 7.66611ZM21.1459 7.66611C21.1459 7.07707 20.6182 6.59955 19.9666 6.59955C19.3156 6.59955 18.7876 7.07707 18.7876 7.66611C18.7876 8.25515 19.3156 8.73239 19.9666 8.73239C20.6182 8.73239 21.1459 8.25515 21.1459 7.66611Z" fill="#7367F0"/>
</svg>
