<svg width="15" height="18" viewBox="0 0 15 18" fill="none" xmlns="http://www.w3.org/2000/svg">
<path fill-rule="evenodd" clip-rule="evenodd" d="M12.323 4.97649V6.31596C13.8276 6.7856 14.9238 8.14764 14.9238 9.77445V14.0871C14.9238 16.1011 13.2541 17.734 11.1956 17.734H3.80231C1.74293 17.734 0.0732422 16.1011 0.0732422 14.0871V9.77445C0.0732422 8.14764 1.17039 6.7856 2.67409 6.31596V4.97649C2.68297 2.37221 4.83998 0.262741 7.48522 0.262741C10.166 0.262741 12.323 2.37221 12.323 4.97649ZM7.50291 1.7819C9.30486 1.7819 10.7695 3.21426 10.7695 4.97649V6.12758H4.22744V4.95913C4.23631 3.20558 5.70096 1.7819 7.50291 1.7819ZM8.27482 12.89C8.27482 13.3154 7.92863 13.654 7.49368 13.654C7.0676 13.654 6.72141 13.3154 6.72141 12.89V10.9629C6.72141 10.5462 7.0676 10.2076 7.49368 10.2076C7.92863 10.2076 8.27482 10.5462 8.27482 10.9629V12.89Z" fill="#4B9DBC"/>
</svg>
