<svg width="28" height="30" viewBox="0 0 28 30" fill="none" xmlns="http://www.w3.org/2000/svg">
<path fill-rule="evenodd" clip-rule="evenodd" d="M8.93938 11.4267C8.93938 11.4394 8.93938 11.452 8.93938 11.4636V19.8814C8.04736 19.2181 6.93874 18.8258 5.73836 18.8258C2.79342 18.8258 0.40332 21.1878 0.40332 24.0981C0.40332 27.0084 2.79342 29.3704 5.73836 29.3704C8.6833 29.3704 11.0734 27.0084 11.0734 24.0981V12.1585L24.9445 6.67537V15.6635C24.0525 15.0003 22.9438 14.608 21.7435 14.608C18.7985 14.608 16.4084 16.97 16.4084 19.8803C16.4084 22.7906 18.7985 25.1526 21.7435 25.1526C24.6884 25.1526 27.0785 22.7906 27.0785 19.8803V5.13586C27.0785 5.12321 27.0785 5.11056 27.0785 5.09896V4.01498C27.0785 2.9658 26.5514 1.9841 25.6722 1.39572C24.793 0.807332 23.6747 0.688176 22.6888 1.07832L10.9518 5.71792C9.73643 6.1977 8.93938 7.36076 8.93938 8.65458V11.4267ZM5.73836 20.9348C7.50532 20.9348 8.93938 22.3519 8.93938 24.0981C8.93938 25.8443 7.50532 27.2615 5.73836 27.2615C3.97139 27.2615 2.53733 25.8443 2.53733 24.0981C2.53733 22.3519 3.97139 20.9348 5.73836 20.9348ZM21.7435 16.7169C23.5104 16.7169 24.9445 18.1341 24.9445 19.8803C24.9445 21.6265 23.5104 23.0437 21.7435 23.0437C19.9765 23.0437 18.5424 21.6265 18.5424 19.8803C18.5424 18.1341 19.9765 16.7169 21.7435 16.7169ZM24.9445 4.40408V4.01498C24.9445 3.6649 24.7684 3.33802 24.4761 3.14189C24.1826 2.94576 23.8103 2.9057 23.4816 3.03645L11.7445 7.67604C11.3391 7.83527 11.0734 8.22331 11.0734 8.65458V9.88723L24.9445 4.40408Z" fill="#A8B1BD"/>
</svg>
