<svg width="400" height="300" viewBox="0 0 400 300" fill="none" xmlns="http://www.w3.org/2000/svg">
<rect width="400" height="300" fill="#D9E6FF"/>
<path d="M200.5 268.467C266.498 268.467 320 237.578 320 199.475C320 161.371 266.498 130.482 200.5 130.482C134.502 130.482 81 161.371 81 199.475C81 237.578 134.502 268.467 200.5 268.467Z" fill="#F5F5F5" fill-opacity="0.5"/>
<path d="M283.025 226.264C282.332 223.074 278.888 220.54 274.984 219.232C273.252 217.081 270.072 214.645 264.643 211.993C252.616 206.129 246.127 203.099 242.797 201.595C241.705 201.125 240.522 200.906 239.334 200.954C238.147 201.003 236.985 201.317 235.935 201.874L208.339 218.229C207.962 218.411 207.548 218.506 207.129 218.506C206.71 218.506 206.296 218.411 205.919 218.229C205.841 218.185 205.769 218.129 205.707 218.063C205.765 217.999 205.833 217.945 205.909 217.903C216.033 211.993 233.427 201.812 236.152 200.023C237.512 199.123 237.476 197.954 236.99 197.174C235.64 194.986 229.068 193.337 226.204 194.997L191.043 215.297C189.854 215.985 189.202 216.998 189.264 218.074C189.332 219.227 190.185 220.24 191.612 220.861C196.545 223.001 205.102 226.864 217.853 233.079C220.62 234.355 223.223 235.957 225.609 237.851C225.371 237.815 225.133 237.789 224.896 237.764C215.826 236.879 210.935 240.121 210.242 243.508C209.683 246.218 211.674 248.715 215.309 249.873C220.413 251.502 228.675 249.403 230.464 244.946C230.912 243.835 230.958 242.602 230.594 241.461C232.771 242.665 234.487 244.341 234.896 246.223C235.454 248.808 233.432 251.523 229.048 254.056C216.405 261.352 206.814 256.869 192.537 248.627C190.5 247.448 176.177 239.248 151.12 224.914C149.507 223.989 148.167 222.655 147.235 221.046C146.302 219.438 145.811 217.611 145.81 215.752V209.242C145.792 209.009 145.688 208.791 145.516 208.633C145.345 208.474 145.12 208.386 144.887 208.386C144.653 208.386 144.428 208.474 144.257 208.633C144.086 208.791 143.981 209.009 143.964 209.242V215.757C143.965 217.941 144.543 220.086 145.639 221.976C146.735 223.865 148.31 225.432 150.205 226.517C175.262 240.85 189.58 249.051 191.617 250.225C200.96 255.618 208.639 259.563 216.545 259.563C220.852 259.563 225.221 258.395 229.989 255.654C236.494 251.9 237.228 248.245 236.711 245.83C236.018 242.619 232.776 240.08 229.115 238.736C227.403 236.569 224.213 234.108 218.696 231.419C205.914 225.188 197.331 221.316 192.382 219.165C191.638 218.844 191.162 218.384 191.141 217.965C191.121 217.546 191.436 217.215 192 216.889L227.16 196.584C228.593 195.757 231.995 196.217 234.084 197.179C235.185 197.696 235.475 198.12 235.496 198.182C235.516 198.244 235.449 198.296 235.175 198.477C232.486 200.245 215.123 210.405 205.014 216.31C204.675 216.461 204.387 216.707 204.185 217.018C203.983 217.329 203.875 217.692 203.875 218.063C203.875 218.434 203.983 218.797 204.185 219.108C204.387 219.42 204.675 219.665 205.014 219.816C205.676 220.163 206.411 220.344 207.158 220.344C207.904 220.344 208.64 220.163 209.301 219.816L236.897 203.456C237.695 203.055 238.569 202.83 239.462 202.798C240.354 202.766 241.243 202.927 242.068 203.27C245.387 204.775 251.856 207.794 263.867 213.647C266.633 214.925 269.237 216.527 271.623 218.42C271.38 218.384 271.142 218.358 270.905 218.332C261.835 217.448 256.944 220.69 256.256 224.077C255.697 226.786 257.688 229.284 261.323 230.442C266.427 232.071 274.689 229.971 276.473 225.514C276.945 224.344 276.972 223.042 276.551 221.853C278.966 223.048 280.884 224.754 281.298 226.657C281.846 229.196 279.69 231.952 275.057 234.625L270.848 237.055C270.75 236.97 270.644 236.894 270.532 236.828C270.401 236.731 270.247 236.672 270.085 236.655C269.923 236.639 269.76 236.666 269.612 236.735L267.776 237.769C267.613 237.668 267.428 237.609 267.237 237.598C267.045 237.586 266.854 237.622 266.68 237.702L259.782 241.688C259.602 241.811 259.459 241.98 259.368 242.177C259.277 242.375 259.242 242.594 259.265 242.81C259.267 242.954 259.279 243.097 259.301 243.239L259.048 243.405L257.497 244.377L257.197 244.568L255.646 245.561L255.367 245.737L253.784 246.745L253.531 246.905L251.375 247.753C251.342 247.773 251.312 247.797 251.287 247.826L250.703 248.343C250.641 248.407 250.593 248.483 250.563 248.567C250.533 248.651 250.52 248.74 250.527 248.829C250.543 249.124 250.629 249.41 250.776 249.666C250.923 249.922 251.128 250.14 251.375 250.303C251.45 250.352 251.535 250.386 251.624 250.402C251.713 250.418 251.804 250.416 251.892 250.396L252.636 250.168C252.678 250.158 252.718 250.142 252.755 250.122L254.57 248.679L256.499 247.671L256.789 247.521L258.422 246.668L258.738 246.502L260.351 245.659L260.63 245.514C260.742 245.605 260.859 245.688 260.982 245.763C261.157 245.889 261.362 245.966 261.576 245.987C261.79 246.008 262.007 245.972 262.202 245.882L264.271 244.697L269.121 241.895C269.165 241.87 269.205 241.839 269.24 241.802C269.36 241.689 269.457 241.552 269.523 241.4C269.588 241.247 269.622 241.083 269.622 240.918L271.453 239.858C271.579 239.785 271.678 239.675 271.737 239.542C271.808 239.379 271.844 239.203 271.84 239.025C271.839 238.897 271.825 238.768 271.799 238.643C271.799 238.643 271.799 238.643 271.799 238.606L275.998 236.181C282.714 232.283 283.537 228.632 283.025 226.264Z" fill="#E0E0E0"/>
<path d="M216.498 256.864C208.592 256.864 200.914 252.919 191.57 247.526C188.985 246.031 167.625 233.808 150.158 223.818C148.263 222.732 146.688 221.166 145.592 219.276C144.496 217.387 143.918 215.242 143.917 213.058V206.512C143.934 206.279 144.039 206.061 144.21 205.902C144.382 205.743 144.606 205.655 144.84 205.655C145.073 205.655 145.298 205.743 145.47 205.902C145.641 206.061 145.745 206.279 145.763 206.512V213.058C145.764 214.916 146.256 216.742 147.188 218.35C148.121 219.957 149.461 221.291 151.073 222.215C168.54 232.21 189.905 244.449 192.491 245.928C206.777 254.175 216.358 258.653 229.001 251.357C233.386 248.823 235.407 246.114 234.849 243.523C234.44 241.646 232.729 239.966 230.547 238.761C230.91 239.904 230.864 241.138 230.418 242.251C228.634 246.703 220.366 248.803 215.262 247.179C211.643 246.021 209.637 243.518 210.195 240.814C210.893 237.422 215.774 234.18 224.849 235.069C225.087 235.069 225.324 235.121 225.567 235.157C223.18 233.264 220.576 231.661 217.811 230.38C205.066 224.175 196.508 220.307 191.57 218.161C190.143 217.546 189.29 216.527 189.223 215.374C189.155 214.221 189.812 213.306 191.001 212.598L226.162 192.297C229.027 190.643 235.599 192.297 236.948 194.474C237.434 195.265 237.465 196.429 236.111 197.323C233.396 199.107 215.997 209.293 205.867 215.209C205.792 215.249 205.724 215.302 205.665 215.364C205.726 215.431 205.798 215.487 205.877 215.529C206.255 215.712 206.668 215.807 207.087 215.807C207.506 215.807 207.92 215.712 208.297 215.529L235.893 199.169C236.944 198.614 238.105 198.3 239.292 198.252C240.48 198.204 241.663 198.422 242.755 198.89C246.08 200.395 252.579 203.42 264.601 209.288C270.051 211.946 273.231 214.387 274.942 216.527C278.826 217.835 282.29 220.369 282.983 223.565C283.5 225.933 282.678 229.578 275.863 233.513L267.626 238.27C267.414 238.392 267.162 238.425 266.926 238.361C266.69 238.298 266.489 238.143 266.367 237.931C266.245 237.719 266.212 237.468 266.275 237.232C266.339 236.996 266.494 236.794 266.706 236.672L274.942 231.915C279.596 229.242 281.732 226.491 281.184 223.952C280.77 222.044 278.852 220.333 276.437 219.149C276.858 220.338 276.831 221.64 276.359 222.81C274.575 227.262 266.313 229.361 261.209 227.737C257.59 226.579 255.583 224.076 256.142 221.372C256.84 217.98 261.721 214.738 270.79 215.628C271.028 215.628 271.266 215.679 271.509 215.71C269.122 213.817 266.519 212.215 263.753 210.938C251.736 205.084 245.268 202.065 241.953 200.565C241.13 200.219 240.241 200.056 239.348 200.087C238.455 200.118 237.58 200.343 236.783 200.746L209.187 217.106C208.525 217.453 207.79 217.634 207.043 217.634C206.297 217.634 205.561 217.453 204.9 217.106C204.569 216.942 204.288 216.693 204.087 216.384C203.885 216.075 203.769 215.717 203.752 215.348C203.769 214.982 203.882 214.627 204.081 214.319C204.28 214.011 204.558 213.761 204.885 213.595C222.351 203.399 233.06 197.049 235.045 195.762C235.319 195.581 235.366 195.467 235.366 195.467C235.366 195.467 235.056 194.95 233.954 194.464C231.886 193.502 228.463 193.047 227.031 193.874L191.87 214.175C191.306 214.5 190.991 214.893 191.012 215.25C191.032 215.607 191.529 216.129 192.253 216.45C197.206 218.606 205.795 222.479 218.566 228.704C224.083 231.393 227.274 233.875 228.985 236.026C232.646 237.365 235.888 239.904 236.581 243.115C237.098 245.519 236.359 249.175 229.859 252.939C225.175 255.695 220.805 256.864 216.498 256.864ZM221.912 236.76C215.986 236.76 212.48 238.828 212 241.186C211.638 242.934 213.106 244.558 215.821 245.421C220.024 246.76 227.3 245.064 228.706 241.564C229.187 240.364 228.897 239.025 227.899 237.608C226.852 237.252 225.768 237.014 224.668 236.9C223.696 236.807 222.775 236.76 221.912 236.76ZM267.895 217.318C261.974 217.318 258.469 219.387 257.988 221.744C257.626 223.492 259.089 225.116 261.809 225.979C266.013 227.318 273.288 225.623 274.694 222.122C275.18 220.907 274.875 219.537 273.846 218.109C272.807 217.788 271.738 217.569 270.656 217.458C269.684 217.365 268.763 217.318 267.895 217.318Z" fill="#455A64"/>
<path d="M269.539 234.025C269.687 233.957 269.85 233.931 270.012 233.947C270.173 233.963 270.328 234.022 270.459 234.118C270.838 234.365 271.154 234.697 271.38 235.089C271.607 235.481 271.737 235.92 271.762 236.372C271.78 236.535 271.753 236.7 271.685 236.849C271.616 236.998 271.509 237.126 271.375 237.22L266.168 240.224L264.332 237.029L269.539 234.025Z" fill="#37474F"/>
<path opacity="0.1" d="M271.608 235.581C271.702 235.834 271.755 236.102 271.763 236.372C271.78 236.535 271.753 236.7 271.685 236.849C271.617 236.998 271.51 237.127 271.375 237.22L266.168 240.224L265.517 239.092L271.608 235.581Z" fill="black"/>
<path d="M266.555 239.381C266.531 238.93 266.4 238.49 266.174 238.098C265.947 237.706 265.632 237.374 265.252 237.127C265.122 237.032 264.968 236.973 264.808 236.956C264.647 236.939 264.485 236.964 264.337 237.029C264.203 237.122 264.095 237.25 264.027 237.4C263.959 237.549 263.932 237.714 263.949 237.877C263.974 238.328 264.105 238.768 264.331 239.16C264.557 239.552 264.873 239.884 265.252 240.131C265.376 240.242 265.533 240.312 265.698 240.329C265.864 240.347 266.031 240.311 266.175 240.228C266.32 240.145 266.434 240.018 266.503 239.866C266.571 239.714 266.589 239.545 266.555 239.381Z" fill="#37474F"/>
<path d="M266.608 235.023C266.804 234.932 267.02 234.895 267.234 234.916C267.449 234.937 267.654 235.015 267.828 235.142C268.331 235.47 268.75 235.912 269.05 236.432C269.35 236.952 269.523 237.536 269.555 238.136C269.578 238.352 269.543 238.57 269.451 238.768C269.36 238.966 269.218 239.135 269.038 239.258L262.135 243.239L259.705 239.004L266.608 235.023Z" fill="#455A64"/>
<path opacity="0.1" d="M269.348 237.085C269.475 237.416 269.545 237.766 269.555 238.12C269.578 238.336 269.542 238.554 269.451 238.752C269.36 238.949 269.217 239.119 269.038 239.242L262.135 243.223L261.276 241.729L269.348 237.085Z" fill="black"/>
<path d="M262.647 242.122C262.616 241.523 262.443 240.939 262.143 240.42C261.842 239.9 261.423 239.459 260.92 239.133C260.759 238.975 260.551 238.874 260.327 238.845C260.103 238.816 259.876 238.861 259.68 238.974C259.484 239.087 259.331 239.26 259.243 239.468C259.155 239.676 259.137 239.907 259.193 240.126C259.226 240.725 259.4 241.308 259.7 241.828C260 242.348 260.418 242.791 260.92 243.12C261.081 243.279 261.29 243.381 261.515 243.409C261.74 243.438 261.968 243.393 262.164 243.279C262.36 243.166 262.514 242.991 262.601 242.782C262.688 242.573 262.705 242.341 262.647 242.122Z" fill="#37474F"/>
<path d="M260.921 239.991C260.823 239.92 260.707 239.875 260.586 239.864C260.465 239.852 260.343 239.873 260.233 239.924L253.47 244.226L251.313 245.069L252.694 247.473L254.509 246.031L261.614 242.334C261.714 242.265 261.794 242.169 261.845 242.058C261.896 241.947 261.916 241.824 261.903 241.703C261.886 241.36 261.788 241.027 261.617 240.729C261.446 240.432 261.208 240.179 260.921 239.991Z" fill="#8968FF"/>
<path opacity="0.7" d="M260.921 239.991C260.823 239.92 260.707 239.875 260.586 239.864C260.465 239.852 260.343 239.873 260.233 239.924L253.47 244.226L251.313 245.069L252.694 247.473L254.509 246.031L261.614 242.334C261.714 242.265 261.794 242.169 261.845 242.058C261.896 241.947 261.916 241.824 261.903 241.703C261.886 241.36 261.788 241.027 261.617 240.729C261.446 240.432 261.208 240.179 260.921 239.991Z" fill="white"/>
<path d="M252.001 245.142C251.902 245.07 251.787 245.026 251.666 245.014C251.546 245.001 251.424 245.02 251.313 245.069L251.225 245.142L250.656 245.685L251.846 247.753L252.59 247.531C252.632 247.519 252.672 247.501 252.709 247.479C252.81 247.409 252.89 247.313 252.941 247.201C252.992 247.089 253.012 246.965 252.999 246.843C252.978 246.501 252.877 246.168 252.704 245.872C252.53 245.577 252.289 245.326 252.001 245.142Z" fill="#8968FF"/>
<path opacity="0.5" d="M252.001 245.142C251.902 245.07 251.787 245.026 251.666 245.014C251.546 245.001 251.424 245.02 251.313 245.069L251.225 245.142L250.656 245.685L251.846 247.753L252.59 247.531C252.632 247.519 252.672 247.501 252.709 247.479C252.81 247.409 252.89 247.313 252.941 247.201C252.992 247.089 253.012 246.965 252.999 246.843C252.978 246.501 252.877 246.168 252.704 245.872C252.53 245.577 252.289 245.326 252.001 245.142Z" fill="white"/>
<path d="M252.171 247.158C252.155 246.863 252.069 246.576 251.92 246.32C251.772 246.064 251.566 245.846 251.318 245.685C251.237 245.613 251.135 245.569 251.028 245.559C250.92 245.548 250.812 245.572 250.718 245.626C250.624 245.68 250.55 245.762 250.506 245.861C250.461 245.96 250.449 246.07 250.47 246.176C250.486 246.471 250.572 246.758 250.719 247.014C250.866 247.27 251.071 247.487 251.318 247.65C251.399 247.723 251.502 247.769 251.61 247.781C251.719 247.793 251.829 247.77 251.924 247.715C252.019 247.66 252.094 247.577 252.138 247.477C252.183 247.377 252.194 247.265 252.171 247.158Z" fill="#8968FF"/>
<path d="M253.469 244.226C253.552 244.189 253.643 244.173 253.734 244.182C253.825 244.192 253.912 244.225 253.986 244.278C254.199 244.418 254.376 244.606 254.504 244.827C254.631 245.048 254.705 245.295 254.72 245.55C254.731 245.642 254.717 245.735 254.68 245.819C254.642 245.904 254.583 245.977 254.508 246.031L254.777 245.891C254.851 245.834 254.909 245.759 254.946 245.673C254.983 245.587 254.998 245.493 254.989 245.4C254.975 245.144 254.9 244.895 254.772 244.673C254.643 244.451 254.464 244.263 254.25 244.123C254.175 244.071 254.089 244.039 253.999 244.028C253.909 244.017 253.817 244.028 253.732 244.061L253.469 244.226Z" fill="#8968FF"/>
<path d="M255.31 243.058C255.399 243.017 255.498 243.001 255.596 243.011C255.695 243.021 255.788 243.057 255.868 243.115C256.102 243.267 256.296 243.473 256.435 243.714C256.574 243.956 256.655 244.227 256.669 244.506C256.68 244.604 256.664 244.704 256.624 244.794C256.585 244.885 256.522 244.964 256.442 245.023L256.732 244.868C256.81 244.808 256.873 244.729 256.913 244.639C256.954 244.548 256.972 244.449 256.964 244.351C256.948 244.073 256.867 243.803 256.728 243.562C256.589 243.322 256.395 243.117 256.163 242.965C256.081 242.905 255.985 242.867 255.885 242.855C255.785 242.842 255.683 242.855 255.589 242.892L255.31 243.058Z" fill="#8968FF"/>
<path d="M257.141 241.889C257.238 241.845 257.345 241.828 257.451 241.839C257.558 241.85 257.659 241.889 257.746 241.951C257.998 242.116 258.209 242.338 258.359 242.6C258.51 242.861 258.598 243.154 258.614 243.456C258.626 243.563 258.609 243.672 258.566 243.771C258.522 243.87 258.453 243.955 258.366 244.019L258.681 243.854C258.769 243.786 258.837 243.698 258.881 243.596C258.924 243.495 258.941 243.384 258.93 243.275C258.913 242.973 258.826 242.68 258.675 242.419C258.524 242.157 258.314 241.935 258.061 241.77C257.972 241.706 257.869 241.666 257.76 241.654C257.652 241.641 257.542 241.656 257.441 241.698L257.141 241.889Z" fill="#8968FF"/>
<path d="M258.976 240.721C259.081 240.674 259.196 240.656 259.31 240.668C259.424 240.68 259.534 240.721 259.627 240.788C259.899 240.965 260.126 241.204 260.288 241.485C260.451 241.766 260.545 242.082 260.563 242.406C260.576 242.523 260.557 242.641 260.509 242.748C260.461 242.856 260.385 242.948 260.289 243.016L260.635 242.835C260.729 242.763 260.802 242.668 260.848 242.56C260.895 242.451 260.912 242.332 260.899 242.215C260.882 241.891 260.788 241.576 260.627 241.295C260.465 241.014 260.24 240.774 259.968 240.596C259.873 240.527 259.761 240.483 259.643 240.468C259.525 240.454 259.406 240.469 259.296 240.514L258.976 240.721Z" fill="#8968FF"/>
<g opacity="0.1">
<path d="M253.469 244.226C253.552 244.189 253.643 244.173 253.734 244.182C253.825 244.192 253.912 244.225 253.986 244.278C254.199 244.418 254.376 244.606 254.504 244.827C254.631 245.048 254.705 245.295 254.72 245.55C254.731 245.642 254.717 245.735 254.68 245.819C254.642 245.904 254.583 245.977 254.508 246.031L254.777 245.891C254.851 245.834 254.909 245.759 254.946 245.673C254.983 245.587 254.998 245.493 254.989 245.4C254.975 245.144 254.9 244.895 254.772 244.673C254.643 244.451 254.464 244.263 254.25 244.123C254.175 244.071 254.089 244.039 253.999 244.028C253.909 244.017 253.817 244.028 253.732 244.061L253.469 244.226Z" fill="black"/>
<path d="M255.31 243.057C255.399 243.017 255.498 243.001 255.596 243.011C255.695 243.021 255.788 243.056 255.868 243.114C256.102 243.267 256.296 243.472 256.435 243.714C256.574 243.956 256.655 244.227 256.669 244.505C256.68 244.604 256.664 244.703 256.624 244.794C256.585 244.885 256.522 244.963 256.442 245.022L256.732 244.867C256.81 244.807 256.873 244.728 256.913 244.638C256.954 244.548 256.972 244.449 256.964 244.35C256.948 244.072 256.867 243.803 256.728 243.562C256.589 243.321 256.395 243.117 256.163 242.964C256.081 242.905 255.985 242.867 255.885 242.854C255.785 242.842 255.683 242.855 255.589 242.892L255.31 243.057Z" fill="black"/>
<path d="M257.141 241.889C257.238 241.846 257.345 241.829 257.451 241.84C257.558 241.85 257.659 241.889 257.746 241.951C257.998 242.116 258.209 242.339 258.359 242.6C258.51 242.861 258.598 243.155 258.614 243.456C258.626 243.564 258.609 243.672 258.566 243.771C258.522 243.87 258.453 243.956 258.366 244.02L258.681 243.854C258.769 243.787 258.837 243.698 258.881 243.597C258.924 243.496 258.941 243.385 258.93 243.275C258.913 242.974 258.826 242.68 258.675 242.419C258.524 242.158 258.314 241.935 258.061 241.77C257.972 241.707 257.869 241.667 257.76 241.654C257.652 241.642 257.542 241.657 257.441 241.698L257.141 241.889Z" fill="black"/>
<path d="M258.976 240.721C259.081 240.674 259.196 240.656 259.31 240.668C259.424 240.68 259.534 240.721 259.627 240.788C259.899 240.965 260.126 241.204 260.288 241.485C260.451 241.766 260.545 242.082 260.563 242.406C260.576 242.523 260.557 242.641 260.509 242.748C260.461 242.856 260.385 242.948 260.289 243.016L260.635 242.835C260.729 242.763 260.802 242.668 260.848 242.56C260.895 242.451 260.912 242.332 260.899 242.215C260.882 241.891 260.788 241.576 260.627 241.295C260.465 241.014 260.24 240.774 259.968 240.596C259.873 240.527 259.761 240.483 259.643 240.468C259.525 240.454 259.406 240.469 259.296 240.514L258.976 240.721Z" fill="black"/>
</g>
<path d="M193.318 113.481C193.127 113.558 192.936 113.631 192.755 113.724C192.574 113.817 192.46 113.879 192.321 113.956C192.181 114.034 191.969 114.158 191.803 114.267C191.638 114.375 191.529 114.458 191.395 114.561C191.261 114.665 191.08 114.809 190.924 114.944C190.769 115.078 190.676 115.166 190.557 115.285C190.438 115.404 190.268 115.58 190.128 115.735C189.989 115.89 189.906 115.999 189.797 116.133C189.689 116.268 189.539 116.474 189.415 116.65C189.29 116.826 189.223 116.929 189.135 117.074L189.073 117.178C188.975 117.343 188.882 117.514 188.794 117.695C188.763 117.746 188.737 117.798 188.711 117.85C188.639 117.989 188.567 118.134 188.505 118.279C188.442 118.424 188.391 118.538 188.339 118.667C188.287 118.796 188.267 118.827 188.236 118.915L188.143 119.148C188.081 119.313 188.024 119.484 187.972 119.665C187.92 119.846 187.874 119.965 187.832 120.115C187.755 120.389 187.677 120.668 187.615 120.957C187.567 121.15 187.526 121.347 187.491 121.547C187.491 121.655 187.45 121.759 187.429 121.873C187.408 121.986 187.388 122.105 187.372 122.229C187.326 122.519 187.295 122.824 187.264 123.129C187.264 123.274 187.227 123.413 187.217 123.558C187.217 123.615 187.217 123.667 187.217 123.724C187.181 124.241 187.16 124.727 187.16 125.249C187.175 127.354 187.427 129.451 187.91 131.5C189.833 139.955 195.33 148.693 202.052 153.693C202.839 154.289 203.661 154.838 204.513 155.337L204.865 155.529C205.061 155.637 205.258 155.751 205.454 155.849L205.904 156.072L206.39 156.304L206.881 156.516L207.31 156.692C207.481 156.759 207.646 156.821 207.827 156.878L208.236 157.018L208.727 157.173L209.161 157.287L209.606 157.4L210.196 157.514L210.47 157.566L210.702 157.592L214.229 155.565C212.043 155.214 209.946 154.447 208.05 153.305C198.432 147.762 190.676 134.267 190.676 123.202C190.676 118.708 191.959 115.306 194.12 113.207L193.779 113.305C193.618 113.356 193.468 113.419 193.318 113.481Z" fill="#263238"/>
<path d="M196.431 109.737C195.894 109.925 195.375 110.16 194.88 110.441L191.369 112.467C192.915 111.593 194.656 111.122 196.431 111.097V109.737Z" fill="#37474F"/>
<path d="M210.475 157.566L210.201 157.514L209.612 157.4L209.167 157.287L208.878 157.214L208.733 157.173L208.257 157.018L207.849 156.878L207.332 156.692L206.902 156.516L206.411 156.304L205.925 156.071L205.475 155.849C205.279 155.751 205.077 155.637 204.875 155.523C204.767 155.461 204.653 155.41 204.539 155.342C203.718 154.859 202.924 154.331 202.161 153.76C199.972 152.129 197.987 150.24 196.251 148.134C194.751 146.327 193.405 144.397 192.228 142.364C190.284 139.031 188.836 135.432 187.931 131.681L187.9 131.506C187.417 129.46 187.166 127.366 187.15 125.264C187.15 124.778 187.15 124.308 187.202 123.843C187.202 123.775 187.202 123.708 187.202 123.641C187.199 123.594 187.199 123.548 187.202 123.501C187.233 123.113 187.274 122.731 187.331 122.359L187.362 122.121C187.362 121.997 187.409 121.883 187.43 121.759C187.45 121.635 187.497 121.417 187.533 121.242C187.569 121.066 187.605 120.88 187.647 120.725C187.688 120.569 187.75 120.352 187.807 120.166C187.807 120.094 187.843 120.021 187.864 119.954C187.885 119.887 187.864 119.897 187.89 119.871C187.936 119.721 187.983 119.566 188.035 119.416C188.086 119.266 188.169 119.065 188.241 118.899C188.314 118.734 188.417 118.449 188.521 118.232C188.624 118.015 188.671 117.932 188.748 117.782L188.841 117.607C188.924 117.452 189.012 117.302 189.1 117.152C189.188 117.002 189.27 116.888 189.358 116.759L189.477 116.588C189.539 116.49 189.606 116.397 189.674 116.309L189.834 116.107C189.88 116.05 189.922 115.988 189.974 115.931L190.258 115.606L190.356 115.507C190.475 115.383 190.594 115.259 190.723 115.14C190.78 115.089 190.847 115.042 190.904 114.995C191.059 114.861 191.215 114.732 191.375 114.613C191.535 114.494 191.644 114.411 191.783 114.318C191.923 114.225 192.125 114.106 192.3 114.008C192.476 113.91 192.585 113.848 192.735 113.775C192.885 113.703 193.107 113.61 193.298 113.532C193.49 113.455 193.598 113.408 193.753 113.356C193.908 113.305 193.986 113.284 194.105 113.248L194.369 113.181C194.524 113.144 194.679 113.098 194.839 113.067C194.999 113.036 195.294 112.994 195.522 112.969C195.749 112.943 195.827 112.922 195.987 112.912C196.147 112.901 196.266 112.912 196.411 112.912V111.174C194.635 111.199 192.895 111.67 191.349 112.545C191.132 112.674 190.92 112.808 190.708 112.953L190.599 113.025C189.995 113.456 189.438 113.95 188.939 114.499L188.769 114.685C188.619 114.856 188.474 115.032 188.329 115.202L188.205 115.383C187.966 115.706 187.743 116.041 187.538 116.386C187.466 116.516 187.388 116.645 187.316 116.779C187.243 116.914 187.135 117.121 187.047 117.296C186.959 117.472 186.881 117.653 186.799 117.813C186.716 117.974 186.644 118.175 186.571 118.362C186.457 118.651 186.354 118.951 186.256 119.256C186.214 119.401 186.168 119.551 186.127 119.701C186.054 119.959 185.987 120.218 185.92 120.492C185.889 120.626 185.858 120.756 185.832 120.89C185.746 121.283 185.673 121.686 185.615 122.1C185.615 122.203 185.589 122.307 185.578 122.405C185.532 122.757 185.496 123.108 185.47 123.439C185.47 123.568 185.47 123.698 185.444 123.827C185.413 124.287 185.397 124.753 185.397 125.228C185.44 128.296 185.929 131.341 186.85 134.267C187.323 135.817 187.886 137.338 188.536 138.822C188.881 139.574 189.226 140.316 189.57 141.051C190.689 143.258 191.988 145.37 193.453 147.364C196.365 151.32 199.875 154.675 203.65 156.852C205.149 157.744 206.756 158.44 208.433 158.921L210.687 157.628L210.475 157.566Z" fill="#455A64"/>
<path d="M228.169 140.011C228.169 129.897 221.07 117.601 212.311 112.544C207.916 110.011 203.944 109.778 201.075 111.448C200.201 111.965 194.353 115.331 193.458 115.833C190.573 117.482 188.805 121.04 188.805 126.112C188.805 136.226 195.904 148.522 204.663 153.579C209.048 156.113 213.019 156.345 215.889 154.68C216.768 154.163 222.662 150.782 223.547 150.27C226.396 148.615 228.169 145.063 228.169 140.011Z" fill="#8968FF"/>
<path opacity="0.3" d="M228.169 140.011C228.169 129.897 221.07 117.601 212.311 112.544C207.916 110.011 203.944 109.778 201.075 111.448C200.201 111.965 194.353 115.331 193.458 115.833C190.573 117.482 188.805 121.04 188.805 126.112C188.805 136.226 195.904 148.522 204.663 153.579C209.048 156.113 213.019 156.345 215.889 154.68C216.768 154.163 222.662 150.782 223.547 150.27C226.396 148.615 228.169 145.063 228.169 140.011Z" fill="black"/>
<path d="M204.637 116.955C213.391 122.012 220.49 134.313 220.49 144.422C220.49 154.531 213.427 158.636 204.637 153.579C195.847 148.522 188.778 136.227 188.778 126.113C188.778 115.999 195.888 111.898 204.637 116.955Z" fill="#8968FF"/>
<path d="M211.359 157.669H211.437C211.706 157.669 211.954 157.7 212.233 157.706H212.362C212.743 157.707 213.123 157.685 213.5 157.638H213.541C213.858 157.597 214.172 157.538 214.482 157.463C214.612 157.437 214.746 157.406 214.875 157.369C215.118 157.302 215.361 157.225 215.599 157.137C215.837 157.049 215.956 156.992 216.116 156.909C216.204 156.873 216.282 156.832 216.365 156.79C217.125 156.406 217.823 155.907 218.433 155.312C217.056 155.691 215.615 155.778 214.203 155.565L210.677 157.592C210.925 157.623 211.142 157.654 211.359 157.669Z" fill="#263238"/>
<path d="M208.924 113.956C209.014 115.312 209.599 116.587 210.568 117.539C218.123 124.484 223.645 135.756 223.645 145.306C223.645 152.255 220.729 157.199 215.961 158.858C216.57 158.66 217.155 158.393 217.704 158.062L221.215 156.035C224.948 153.884 227.171 149.313 227.171 143.269C227.171 133.724 221.644 122.446 214.089 115.507C213.123 114.553 212.538 113.279 212.445 111.924V97.8545L208.924 99.8917V113.956Z" fill="#37474F"/>
<path d="M210.568 117.54C209.599 116.588 209.014 115.312 208.924 113.957V99.8923L207.187 98.8892V114.799C207.191 115.011 207.215 115.223 207.259 115.43L207.29 115.585C207.339 115.806 207.403 116.024 207.481 116.237C207.607 116.566 207.761 116.885 207.941 117.188L208.086 117.4C208.221 117.614 208.373 117.817 208.541 118.005C208.644 118.123 208.754 118.234 208.872 118.336C209.291 118.703 209.699 119.086 210.103 119.474L210.423 119.789C210.775 120.141 211.121 120.498 211.458 120.87L211.613 121.03C211.995 121.449 212.368 121.878 212.74 122.323L213.019 122.664C213.324 123.036 213.624 123.419 213.914 123.802L214.126 124.081C214.472 124.541 214.808 125.017 215.134 125.492L215.361 125.839C215.63 126.237 215.878 126.645 216.142 127.054L216.359 127.406C216.664 127.923 216.954 128.409 217.238 128.921L217.399 129.226C217.631 129.655 217.859 130.089 218.076 130.529L218.278 130.937C218.533 131.458 218.776 131.985 219.007 132.519C219.033 132.592 219.064 132.659 219.089 132.731C219.291 133.202 219.482 133.678 219.669 134.158C219.72 134.303 219.777 134.443 219.829 134.588C220.031 135.105 220.222 135.679 220.392 136.222C220.563 136.765 220.723 137.318 220.868 137.866L220.961 138.217C221.096 138.735 221.22 139.283 221.328 139.815L221.375 140.084C221.471 140.574 221.554 141.06 221.623 141.542C221.623 141.63 221.649 141.723 221.664 141.811C221.732 142.328 221.789 142.845 221.825 143.362C221.825 143.476 221.825 143.59 221.851 143.704C221.882 144.221 221.908 144.769 221.908 145.291C221.908 148.393 221.292 150.979 220.191 153.001C219.955 153.433 219.687 153.848 219.389 154.241C219.245 154.433 219.095 154.619 218.94 154.795C218.784 154.971 218.624 155.136 218.459 155.312C217.848 155.907 217.151 156.406 216.39 156.791C216.313 156.832 216.23 156.873 216.142 156.91C215.972 156.992 215.796 157.07 215.625 157.137C215.454 157.204 215.18 157.292 214.958 157.354H214.901C214.772 157.39 214.643 157.421 214.508 157.447L214.276 157.509C214.043 157.556 213.805 157.592 213.567 157.623H213.526C213.148 157.669 212.768 157.692 212.388 157.69H212.094C211.887 157.69 211.675 157.69 211.463 157.654H211.359C211.142 157.654 210.925 157.613 210.703 157.582L208.448 158.874C209.699 159.235 210.993 159.423 212.295 159.433C212.471 159.433 212.642 159.433 212.812 159.407C212.983 159.381 213.283 159.407 213.5 159.371L213.898 159.314C214.151 159.278 214.415 159.242 214.638 159.195C214.756 159.195 214.875 159.143 214.994 159.112L215.139 159.071C215.361 159.014 215.584 158.962 215.801 158.89L215.956 158.843C220.723 157.199 223.64 152.24 223.64 145.291C223.645 135.756 218.123 124.484 210.568 117.54Z" fill="#455A64"/>
<path d="M201.018 113.191L201.09 113.16C201.132 113.144 201.172 113.123 201.209 113.098L204.735 111.06C204.962 110.916 205.146 110.713 205.267 110.473C205.388 110.232 205.442 109.964 205.423 109.695V93.7852L201.902 95.8224V111.733C201.927 112.038 201.855 112.343 201.696 112.605C201.537 112.867 201.3 113.072 201.018 113.191Z" fill="#37474F"/>
<path d="M196.767 111.092C197.613 111.095 198.458 111.175 199.29 111.33C199.393 111.358 199.5 111.361 199.604 111.339C199.708 111.317 199.805 111.271 199.888 111.205C199.971 111.138 200.037 111.053 200.08 110.956C200.124 110.859 200.143 110.753 200.138 110.647V109.065C198.873 109.08 197.62 109.307 196.431 109.737V111.113C196.544 111.107 196.653 111.092 196.767 111.092Z" fill="#37474F"/>
<path d="M197.212 112.839C197.631 112.855 198.049 112.893 198.463 112.953C198.867 113.015 199.28 113.098 199.694 113.201H199.772H199.813C199.946 113.233 200.08 113.256 200.216 113.269H200.253C200.364 113.279 200.477 113.279 200.589 113.269H200.651C200.756 113.251 200.86 113.225 200.961 113.191C201.243 113.072 201.481 112.867 201.639 112.605C201.798 112.344 201.87 112.038 201.845 111.733V95.8227L200.108 94.7886V110.621C200.113 110.727 200.093 110.833 200.05 110.93C200.006 111.027 199.941 111.112 199.858 111.179C199.775 111.245 199.678 111.292 199.574 111.313C199.47 111.335 199.362 111.332 199.26 111.304C198.428 111.149 197.583 111.069 196.736 111.066C196.623 111.066 196.514 111.066 196.4 111.066V112.803C196.524 112.803 196.643 112.803 196.768 112.803C196.892 112.803 197.073 112.834 197.212 112.839Z" fill="#455A64"/>
<path d="M226.545 149.629C226.545 134.685 216.054 116.536 203.112 109.044C196.648 105.311 190.8 104.959 186.566 107.4L179.487 111.484C175.257 113.935 172.636 119.173 172.636 126.64C172.636 141.583 183.127 159.732 196.064 167.225C202.528 170.953 208.376 171.309 212.61 168.869L219.684 164.774C223.924 162.338 226.545 157.095 226.545 149.629Z" fill="#8968FF"/>
<path opacity="0.1" d="M212.634 168.864C221.785 163.581 221.784 146.45 212.633 130.599C203.482 114.749 188.646 106.183 179.495 111.466C170.345 116.749 170.345 133.881 179.496 149.731C188.647 165.581 203.484 174.147 212.634 168.864Z" fill="black"/>
<path d="M219.508 153.698C219.508 138.755 209.016 120.606 196.074 113.114C189.6 109.375 183.742 109.029 179.502 111.485L175.996 113.507C171.746 115.952 169.119 121.201 169.119 128.677C169.119 143.621 179.61 161.77 192.548 169.262C199.021 172.996 204.88 173.347 209.12 170.896L212.646 168.859C216.881 166.413 219.508 161.155 219.508 153.698Z" fill="#F0F0F0"/>
<path d="M192.548 115.135C205.474 122.607 215.981 140.776 215.981 155.72C215.981 170.663 205.49 176.718 192.548 169.246C179.605 161.775 169.119 143.605 169.119 128.661C169.119 113.718 179.61 107.679 192.548 115.135Z" fill="#E0E0E0"/>
<path d="M217.704 155.736C217.704 140.265 206.804 121.387 193.401 113.651C189.456 111.371 185.645 110.218 182.067 110.218C179.621 110.184 177.21 110.807 175.087 112.023C173.918 112.705 169.192 115.409 167.993 116.108C163.184 118.926 160.319 124.851 160.319 132.752C160.319 148.223 171.219 167.101 184.622 174.836C188.567 177.117 192.378 178.27 195.956 178.27C198.419 178.304 200.845 177.671 202.978 176.439C204.125 175.762 208.795 173.094 209.984 172.406C214.824 169.598 217.704 163.662 217.704 155.736Z" fill="#455A64"/>
<path d="M195.956 178.269C192.383 178.269 188.567 177.116 184.622 174.836C171.224 167.08 160.319 148.222 160.319 132.752C160.319 121.531 166.09 114.287 175.02 114.287C178.598 114.287 182.409 115.44 186.354 117.72C199.751 125.476 210.656 144.334 210.656 159.805C210.656 171.02 204.886 178.269 195.956 178.269Z" fill="#37474F"/>
<path d="M190.718 162.256C188.704 162.195 186.742 161.603 185.03 160.539C178.339 156.677 172.895 147.25 172.895 139.52C172.895 133.92 175.78 130.301 180.237 130.301C182.242 130.366 184.194 130.956 185.899 132.012C192.59 135.88 198.034 145.306 198.034 153.036C198.06 158.636 195.175 162.256 190.718 162.256Z" fill="#263238"/>
<path d="M160.831 188.559C160.831 173.088 149.931 154.21 136.528 146.47C132.583 144.195 128.772 143.041 125.199 143.041C122.753 143.006 120.342 143.63 118.219 144.846C117.05 145.529 112.319 148.233 111.125 148.931C106.311 151.749 103.446 157.675 103.446 165.57C103.446 181.041 114.346 199.924 127.749 207.66C131.694 209.94 135.505 211.093 139.078 211.093C141.544 211.122 143.973 210.483 146.105 209.242C147.258 208.565 151.927 205.896 153.111 205.209C157.951 202.422 160.831 196.486 160.831 188.559Z" fill="#455A64"/>
<path d="M139.083 211.093C135.51 211.093 131.7 209.94 127.754 207.66C114.352 199.904 103.452 181.041 103.452 165.57C103.452 154.355 109.223 147.111 118.158 147.111C121.731 147.111 125.541 148.264 129.487 150.539C142.884 158.295 153.789 177.158 153.789 192.628C153.784 203.844 148.013 211.093 139.083 211.093Z" fill="#37474F"/>
<path d="M152.052 192.628C152.052 177.685 141.561 159.536 128.618 152.044C122.145 148.305 116.286 147.954 112.072 150.41L108.566 152.437C104.321 154.882 101.689 160.125 101.689 167.602C101.689 182.546 112.181 200.695 125.123 208.187C131.597 211.925 137.45 212.272 141.669 209.826L145.196 207.789C149.431 205.338 152.052 200.095 152.052 192.628Z" fill="#F0F0F0"/>
<path d="M125.097 154.076C138.023 161.548 148.53 179.717 148.53 194.661C148.53 209.604 138.039 215.659 125.097 208.208C112.154 200.757 101.663 182.566 101.663 167.623C101.663 152.68 112.154 146.604 125.097 154.076Z" fill="#E0E0E0"/>
<path d="M148.53 194.66C148.53 179.717 138.039 161.568 125.096 154.076C118.633 150.342 112.785 149.991 108.55 152.431L101.472 156.501C97.2368 158.952 94.6152 164.195 94.6152 171.656C94.6152 186.599 105.107 204.748 118.049 212.241C124.507 215.974 130.355 216.326 134.595 213.885L141.663 209.805C145.903 207.375 148.53 202.132 148.53 194.66Z" fill="#8968FF"/>
<path opacity="0.1" d="M118.049 158.145C130.976 165.617 141.477 183.787 141.477 198.73C141.477 213.673 130.991 219.728 118.049 212.256C105.107 204.785 94.6152 186.615 94.6152 171.672C94.6152 156.728 105.107 150.673 118.049 158.145Z" fill="black"/>
<path d="M101.224 166.651C101.032 166.724 100.841 166.801 100.655 166.889C100.469 166.977 100.365 167.044 100.226 167.127C100.086 167.21 99.8742 167.329 99.7087 167.437C99.5433 167.546 99.4347 167.629 99.3002 167.732C99.1658 167.835 98.9848 167.975 98.8297 168.109L98.4574 168.456C98.3126 168.601 98.173 168.751 98.0334 168.906C97.8938 169.061 97.8059 169.169 97.6973 169.304C97.5887 169.438 97.444 169.645 97.3199 169.821C97.1958 169.997 97.1285 170.105 97.0406 170.25L96.9786 170.354C96.8803 170.519 96.7873 170.684 96.6942 170.871L96.6166 171.026C96.5442 171.165 96.4719 171.305 96.4046 171.45C96.3374 171.594 96.2961 171.708 96.2443 171.838C96.1926 171.967 96.172 172.003 96.1409 172.086L96.0479 172.324C95.9858 172.489 95.9289 172.66 95.8721 172.841C95.8152 173.022 95.779 173.141 95.7376 173.29C95.6549 173.563 95.5825 173.842 95.5205 174.128C95.4739 174.325 95.4325 174.521 95.3964 174.723L95.3343 175.043C95.3343 175.162 95.2929 175.281 95.2774 175.4C95.2309 175.695 95.1999 175.995 95.1688 176.3C95.1688 176.445 95.1326 176.584 95.1223 176.734C95.1223 176.786 95.1223 176.843 95.1223 176.9C95.0861 177.391 95.0654 177.898 95.0654 178.425C95.0804 180.53 95.3319 182.627 95.8152 184.676C97.749 193.146 103.251 201.884 109.983 206.884C110.773 207.477 111.594 208.026 112.444 208.529L112.796 208.72L113.385 209.041L113.835 209.263L114.321 209.491C114.487 209.568 114.647 209.635 114.838 209.703C115.029 209.77 115.123 209.827 115.267 209.878L115.784 210.07L116.188 210.209L116.705 210.359L117.139 210.478L117.584 210.587C117.78 210.633 117.977 210.669 118.173 210.706L118.442 210.757L118.675 210.783L122.124 208.725C119.929 208.38 117.822 207.613 115.919 206.466C106.317 200.923 98.535 187.453 98.535 176.362C98.535 171.874 99.8173 168.471 101.979 166.372C101.865 166.403 101.746 166.429 101.637 166.465L101.224 166.651Z" fill="#263238"/>
<path d="M104.326 162.907C103.79 163.095 103.271 163.329 102.775 163.605L99.2637 165.632C100.811 164.765 102.552 164.301 104.326 164.283V162.907Z" fill="#37474F"/>
<path d="M118.359 210.736L118.09 210.684C117.894 210.648 117.702 210.612 117.501 210.565C117.299 210.519 117.206 210.493 117.056 210.457L116.761 210.384L116.622 210.338L116.105 210.188L115.691 210.048L115.174 209.857C115.029 209.805 114.89 209.743 114.745 209.681L114.228 209.474L113.742 209.242L113.292 209.019L112.692 208.694L112.356 208.513C111.536 208.027 110.742 207.499 109.977 206.93C107.788 205.3 105.804 203.411 104.067 201.305C102.574 199.497 101.235 197.566 100.065 195.534C98.1132 192.192 96.6603 188.583 95.7528 184.82C95.7528 184.764 95.7528 184.707 95.7166 184.645C95.2535 182.598 95.0194 180.507 95.0186 178.409C95.0186 177.923 95.0186 177.452 95.0703 176.987C95.0703 176.92 95.0703 176.847 95.0703 176.78C95.0679 176.734 95.0679 176.687 95.0703 176.64C95.1013 176.253 95.1427 175.875 95.1996 175.503L95.2306 175.265C95.2306 175.141 95.2771 175.022 95.2978 174.903C95.3185 174.784 95.365 174.562 95.3961 174.386C95.4271 174.21 95.4685 174.024 95.515 173.869C95.5615 173.714 95.6184 173.491 95.6701 173.305L95.7322 173.099C95.7345 173.071 95.7345 173.043 95.7322 173.016C95.7839 172.861 95.8304 172.711 95.8821 172.561C95.9338 172.411 96.0166 172.204 96.0838 172.044C96.151 171.883 96.2647 171.594 96.3682 171.382C96.4716 171.17 96.5181 171.082 96.5957 170.932L96.6887 170.751C96.7715 170.601 96.8594 170.446 96.9473 170.301C97.0352 170.156 97.1179 170.037 97.2058 169.908L97.3196 169.732L97.604 169.427L97.7591 169.231C97.8108 169.174 97.8521 169.112 97.9039 169.055C97.9556 168.998 98.09 168.838 98.1882 168.729L98.2813 168.631L98.6484 168.264C98.7053 168.212 98.7725 168.171 98.8294 168.119C98.9845 167.985 99.1397 167.861 99.2999 167.742C99.4602 167.623 99.5688 167.54 99.7084 167.447C99.848 167.354 100.05 167.235 100.225 167.137C100.401 167.038 100.51 166.971 100.655 166.899C100.799 166.826 101.032 166.733 101.223 166.661L101.678 166.48L102.03 166.377L102.258 166.325C102.413 166.284 102.568 166.242 102.728 166.211C102.888 166.18 103.178 166.139 103.411 166.113C103.566 166.113 103.716 166.066 103.876 166.051C104.036 166.035 104.155 166.051 104.3 166.051V164.313C102.524 164.338 100.784 164.809 99.2379 165.684C99.0156 165.808 98.8036 165.947 98.5967 166.087L98.4881 166.165C97.8821 166.595 97.3239 167.089 96.8232 167.638L96.6577 167.824C96.5078 167.995 96.363 168.171 96.2182 168.341C96.1768 168.398 96.1355 168.46 96.0889 168.517C95.8563 168.838 95.6339 169.174 95.4271 169.551L95.2048 169.939C95.1117 170.11 95.0238 170.286 94.9359 170.456C94.848 170.627 94.7704 170.813 94.6877 170.999C94.6049 171.185 94.5326 171.356 94.4602 171.547C94.3464 171.837 94.243 172.132 94.1448 172.437C94.0982 172.581 94.0569 172.731 94.0155 172.881C93.9431 173.145 93.8707 173.398 93.8087 173.678L93.7156 174.076C93.6329 174.469 93.5605 174.872 93.5036 175.286C93.5036 175.384 93.5036 175.493 93.4674 175.591C93.4209 175.937 93.3847 176.289 93.3588 176.625L93.3278 177.013C93.3019 177.473 93.2812 177.938 93.2812 178.414C93.3179 181.476 93.8022 184.515 94.7187 187.437C95.1918 188.985 95.7546 190.504 96.4044 191.987C96.7318 192.735 97.0765 193.478 97.4385 194.216C98.5549 196.424 99.8538 198.536 101.322 200.529C104.233 204.485 107.744 207.84 111.518 210.022C113.019 210.91 114.626 211.605 116.301 212.091L118.556 210.793L118.359 210.736Z" fill="#455A64"/>
<path d="M133.907 194.355C133.907 184.247 126.808 171.946 118.049 166.889C113.654 164.355 109.683 164.122 106.813 165.798L99.1966 170.177C96.3113 171.827 94.543 175.389 94.543 180.457C94.543 190.57 101.642 202.866 110.401 207.923C114.786 210.457 118.757 210.695 121.627 209.025L129.285 204.619C132.134 202.959 133.907 199.418 133.907 194.355Z" fill="#8968FF"/>
<path opacity="0.3" d="M133.907 194.355C133.907 184.247 126.808 171.946 118.049 166.889C113.654 164.355 109.683 164.122 106.813 165.798L99.1966 170.177C96.3113 171.827 94.543 175.389 94.543 180.457C94.543 190.57 101.642 202.866 110.401 207.923C114.786 210.457 118.757 210.695 121.627 209.025L129.285 204.619C132.134 202.959 133.907 199.418 133.907 194.355Z" fill="black"/>
<path d="M121.596 209.032C127.789 205.457 127.789 193.863 121.596 183.138C115.404 172.412 105.363 166.615 99.1708 170.19C92.9782 173.766 92.9781 185.359 99.1707 196.085C105.363 206.811 115.403 212.607 121.596 209.032Z" fill="#8968FF"/>
<path d="M118.622 205.835C123.449 203.061 123.466 194.032 118.66 185.67C113.854 177.307 106.044 172.777 101.217 175.551C96.3899 178.325 96.3727 187.354 101.179 195.716C105.985 204.079 113.794 208.609 118.622 205.835Z" fill="#263238"/>
<path d="M116.498 183.042L109.217 190.312L100.525 175.25C102.744 173.957 105.825 174.143 109.217 176.103C112.106 177.877 114.586 180.242 116.498 183.042Z" fill="#455A64"/>
<path d="M121.528 197.427C121.528 201.346 120.148 204.107 117.909 205.379L109.217 190.312L116.497 183.042C119.543 187.391 121.528 192.696 121.528 197.427Z" fill="#37474F"/>
<path d="M117.92 205.379C115.701 206.657 112.599 206.491 109.217 204.531C106.324 202.763 103.845 200.393 101.947 197.582L109.217 190.312L117.92 205.379Z" fill="#455A64"/>
<path d="M109.217 190.312L101.947 197.582C98.8912 193.238 96.916 187.918 96.916 183.218C96.916 179.288 98.2966 176.537 100.536 175.25L109.217 190.312Z" fill="#37474F"/>
<path d="M119.248 210.839H119.32C119.589 210.839 119.837 210.87 120.117 210.87H120.246C120.634 210.87 121.011 210.844 121.383 210.803H121.425C121.741 210.765 122.056 210.708 122.366 210.632C122.495 210.601 122.629 210.576 122.759 210.539C123.002 210.472 123.245 210.389 123.477 210.302C123.71 210.214 123.839 210.157 123.995 210.079L124.243 209.955C125.004 209.574 125.702 209.077 126.311 208.481C124.934 208.859 123.493 208.944 122.081 208.73L118.55 210.762C118.803 210.793 119.031 210.824 119.248 210.839Z" fill="#263238"/>
<path d="M116.812 167.126C116.903 168.482 117.488 169.757 118.457 170.71C126.006 177.649 131.533 188.926 131.533 198.471C131.533 205.426 128.617 210.364 123.85 212.024C124.459 211.828 125.044 211.563 125.592 211.233L129.103 209.206C132.836 207.055 135.06 202.484 135.06 196.439C135.06 186.894 129.532 175.617 121.978 168.678C121.018 167.721 120.441 166.447 120.354 165.094V151.025L116.833 153.062L116.812 167.126Z" fill="#37474F"/>
<path d="M118.457 170.71C117.489 169.757 116.903 168.482 116.813 167.126V153.062L115.075 152.059V167.969C115.08 168.18 115.104 168.389 115.148 168.595L115.179 168.755C115.228 168.976 115.292 169.194 115.37 169.407C115.495 169.735 115.649 170.052 115.83 170.353C115.877 170.431 115.923 170.498 115.975 170.57C116.109 170.783 116.26 170.985 116.425 171.175C116.53 171.292 116.642 171.402 116.761 171.506C117.18 171.868 117.588 172.251 117.991 172.644L118.312 172.959C118.664 173.311 119.01 173.667 119.346 174.035L119.501 174.2C119.884 174.619 120.256 175.048 120.623 175.488C120.722 175.601 120.815 175.72 120.908 175.834C121.213 176.206 121.513 176.584 121.802 176.971C121.875 177.065 121.947 177.152 122.014 177.246C122.361 177.711 122.692 178.181 123.048 178.662L123.276 179.009C123.545 179.407 123.793 179.81 124.057 180.219L124.274 180.575C124.579 181.093 124.868 181.579 125.153 182.085L125.313 182.396C125.546 182.825 125.773 183.259 125.991 183.699L126.192 184.102C126.446 184.619 126.709 185.136 126.916 185.689C126.947 185.757 126.978 185.829 127.004 185.896C127.207 186.372 127.399 186.848 127.578 187.323C127.635 187.468 127.692 187.613 127.743 187.758C127.94 188.301 128.136 188.843 128.307 189.392C128.478 189.94 128.633 190.488 128.783 191.036C128.814 191.15 128.845 191.268 128.871 191.387C129.012 191.918 129.136 192.451 129.243 192.985L129.289 193.254C129.388 193.74 129.465 194.226 129.538 194.712C129.538 194.8 129.538 194.888 129.574 194.976C129.646 195.493 129.698 196.01 129.739 196.527C129.739 196.641 129.739 196.755 129.739 196.868C129.77 197.385 129.796 197.928 129.796 198.451C129.796 201.553 129.181 204.164 128.08 206.165C127.843 206.598 127.575 207.013 127.278 207.406C127.133 207.598 126.983 207.784 126.828 207.959C126.673 208.135 126.513 208.301 126.347 208.477C125.738 209.072 125.041 209.569 124.279 209.95L124.031 210.074C123.855 210.152 123.679 210.229 123.514 210.297C123.348 210.364 123.074 210.457 122.852 210.519H122.795C122.666 210.555 122.531 210.581 122.402 210.612L122.169 210.669C121.937 210.715 121.699 210.757 121.461 210.783H121.389C121.011 210.826 120.631 210.849 120.251 210.85H119.956C119.75 210.85 119.538 210.85 119.326 210.814H119.248C119.031 210.814 118.808 210.767 118.591 210.736L116.337 212.034C117.588 212.395 118.882 212.583 120.184 212.592C120.36 212.592 120.53 212.592 120.701 212.592C120.872 212.592 121.171 212.592 121.389 212.556L121.787 212.499C122.04 212.463 122.304 212.427 122.521 212.38L122.883 212.298L123.028 212.256C123.25 212.199 123.472 212.143 123.69 212.075L123.845 212.024C128.612 210.385 131.528 205.426 131.528 198.471C131.534 188.926 126.006 177.649 118.457 170.71Z" fill="#455A64"/>
<path d="M108.876 166.361L108.979 166.325L109.098 166.263L112.599 164.257C112.826 164.112 113.009 163.909 113.13 163.669C113.252 163.429 113.305 163.16 113.287 162.892V146.956L109.765 148.993V164.898C109.791 165.205 109.719 165.511 109.559 165.774C109.399 166.037 109.16 166.243 108.876 166.361Z" fill="#37474F"/>
<path d="M104.656 164.256C105.503 164.257 106.348 164.337 107.18 164.494C107.282 164.521 107.389 164.523 107.493 164.501C107.596 164.479 107.693 164.433 107.776 164.367C107.858 164.3 107.924 164.215 107.968 164.119C108.011 164.023 108.032 163.917 108.028 163.812V162.229C106.762 162.239 105.508 162.466 104.32 162.902V164.277C104.434 164.256 104.543 164.256 104.656 164.256Z" fill="#37474F"/>
<path d="M105.101 166.005C105.51 166.005 105.929 166.062 106.353 166.124C106.767 166.185 107.178 166.268 107.583 166.372C107.607 166.369 107.632 166.369 107.656 166.372H107.702C107.836 166.406 107.973 166.429 108.111 166.439H108.147C108.259 166.447 108.371 166.447 108.483 166.439H108.545C108.651 166.424 108.755 166.398 108.855 166.361C109.139 166.243 109.379 166.038 109.538 165.775C109.698 165.512 109.77 165.205 109.745 164.898V148.993L108.007 147.959V163.797C108.011 163.903 107.991 164.008 107.947 164.104C107.903 164.201 107.838 164.285 107.755 164.352C107.673 164.418 107.576 164.464 107.472 164.486C107.369 164.508 107.262 164.506 107.159 164.479C106.327 164.322 105.483 164.242 104.636 164.242C104.522 164.242 104.414 164.242 104.3 164.242V165.979H104.667C104.843 166.01 104.962 166 105.101 166.005Z" fill="#455A64"/>
<path d="M110.867 139.282C110.225 138.915 109.346 138.967 108.374 139.531C107.344 140.197 106.487 141.099 105.873 142.161C105.259 143.224 104.906 144.417 104.843 145.642C104.843 146.775 105.241 147.571 105.877 147.933L119.962 156.061L124.926 147.421L110.867 139.282Z" fill="#8968FF"/>
<path opacity="0.3" d="M110.867 139.282C110.225 138.915 109.346 138.967 108.374 139.531C107.344 140.197 106.487 141.099 105.873 142.161C105.259 143.224 104.906 144.417 104.843 145.642C104.843 146.775 105.241 147.571 105.877 147.933L119.962 156.061L124.926 147.421L110.867 139.282Z" fill="black"/>
<path opacity="0.3" d="M105.272 143.496C105.005 144.181 104.86 144.907 104.843 145.642C104.843 146.774 105.241 147.571 105.877 147.933L119.962 156.061L121.715 153.01L105.272 143.496Z" fill="black"/>
<path d="M118.943 153.771C119.008 152.547 119.361 151.357 119.974 150.296C120.587 149.236 121.442 148.336 122.47 147.669C123.432 147.111 124.305 147.054 124.941 147.411C125.577 147.767 125.976 148.569 125.976 149.701C125.909 150.924 125.556 152.114 124.944 153.175C124.333 154.236 123.48 155.138 122.454 155.808C121.477 156.366 120.598 156.423 119.962 156.051C119.326 155.679 118.943 154.898 118.943 153.771Z" fill="#8968FF"/>
<path opacity="0.2" d="M118.943 153.771C119.008 152.547 119.361 151.357 119.974 150.296C120.587 149.236 121.442 148.336 122.47 147.669C123.432 147.111 124.305 147.054 124.941 147.411C125.577 147.767 125.976 148.569 125.976 149.701C125.909 150.924 125.556 152.114 124.944 153.175C124.333 154.236 123.48 155.138 122.454 155.808C121.477 156.366 120.598 156.423 119.962 156.051C119.326 155.679 118.943 154.898 118.943 153.771Z" fill="black"/>
<path d="M120.469 152.881C120.507 152.187 120.708 151.512 121.055 150.91C121.403 150.308 121.888 149.796 122.47 149.417C122.661 149.247 122.901 149.142 123.155 149.116C123.41 149.091 123.666 149.146 123.887 149.274C124.108 149.403 124.283 149.598 124.387 149.831C124.491 150.064 124.519 150.325 124.466 150.575C124.428 151.268 124.228 151.942 123.881 152.543C123.534 153.144 123.051 153.655 122.47 154.034C122.279 154.202 122.039 154.305 121.786 154.33C121.533 154.355 121.278 154.3 121.057 154.173C120.837 154.046 120.661 153.853 120.556 153.621C120.45 153.39 120.42 153.131 120.469 152.881Z" fill="#37474F"/>
<path d="M123.529 150.058C123.539 149.746 123.466 149.438 123.317 149.164C123.017 149.181 122.726 149.271 122.469 149.427C121.887 149.807 121.402 150.318 121.054 150.92C120.707 151.522 120.506 152.198 120.468 152.892C120.461 153.203 120.534 153.511 120.68 153.786C120.982 153.769 121.275 153.678 121.533 153.522C122.115 153.142 122.599 152.631 122.945 152.029C123.292 151.427 123.492 150.752 123.529 150.058Z" fill="#263238"/>
<path d="M202.486 86.3859C201.85 86.0188 200.966 86.0705 199.994 86.6341C198.968 87.3022 198.114 88.2029 197.501 89.2631C196.889 90.3232 196.534 91.5129 196.468 92.7355C196.468 93.8679 196.871 94.659 197.502 95.0261L211.582 103.154L216.551 94.5142L202.486 86.3859Z" fill="#8968FF"/>
<path opacity="0.3" d="M202.486 86.3859C201.85 86.0188 200.966 86.0705 199.994 86.6341C198.968 87.3022 198.114 88.2029 197.501 89.2631C196.889 90.3232 196.534 91.5129 196.468 92.7355C196.468 93.8679 196.871 94.659 197.502 95.0261L211.582 103.154L216.551 94.5142L202.486 86.3859Z" fill="black"/>
<path opacity="0.3" d="M196.881 90.5947C196.619 91.279 196.476 92.0029 196.457 92.7354C196.457 93.8678 196.86 94.6589 197.491 95.026L211.571 103.154L213.329 100.098L196.881 90.5947Z" fill="black"/>
<path d="M210.568 100.874C210.635 99.6512 210.988 98.4611 211.6 97.4001C212.211 96.3392 213.064 95.4373 214.09 94.7675C215.057 94.2142 215.93 94.1573 216.566 94.5141C217.202 94.8709 217.601 95.6723 217.601 96.8047C217.536 98.0279 217.183 99.2186 216.57 100.279C215.957 101.34 215.102 102.24 214.074 102.906C213.102 103.47 212.223 103.521 211.582 103.154C210.941 102.787 210.568 101.996 210.568 100.874Z" fill="#8968FF"/>
<path opacity="0.2" d="M210.568 100.874C210.635 99.6512 210.988 98.4611 211.6 97.4001C212.211 96.3392 213.064 95.4373 214.09 94.7675C215.057 94.2142 215.93 94.1573 216.566 94.5141C217.202 94.8709 217.601 95.6723 217.601 96.8047C217.536 98.0279 217.183 99.2186 216.57 100.279C215.957 101.34 215.102 102.24 214.074 102.906C213.102 103.47 212.223 103.521 211.582 103.154C210.941 102.787 210.568 101.996 210.568 100.874Z" fill="black"/>
<path d="M212.094 99.9951C212.131 99.3014 212.331 98.6263 212.678 98.0244C213.025 97.4225 213.508 96.9108 214.09 96.5307C214.291 96.386 214.527 96.2965 214.774 96.2711C215.02 96.2457 215.27 96.2853 215.496 96.386C215.703 96.5288 215.867 96.7247 215.972 96.9531C216.077 97.1815 216.118 97.434 216.091 97.6838C216.054 98.3781 215.853 99.0539 215.506 99.6559C215.158 100.258 214.673 100.769 214.09 101.148C213.899 101.317 213.66 101.422 213.406 101.447C213.153 101.473 212.897 101.418 212.677 101.29C212.456 101.163 212.281 100.969 212.176 100.737C212.072 100.504 212.043 100.245 212.094 99.9951Z" fill="#37474F"/>
<path d="M215.155 97.1616C215.162 96.8502 215.089 96.5421 214.943 96.2671C214.641 96.2843 214.348 96.3748 214.09 96.5308C213.507 96.9106 213.023 97.4221 212.675 98.024C212.328 98.6259 212.127 99.3011 212.089 99.9952C212.08 100.307 212.155 100.616 212.306 100.89C212.606 100.872 212.897 100.782 213.154 100.626C213.736 100.246 214.22 99.7347 214.568 99.1328C214.916 98.5309 215.117 97.8556 215.155 97.1616Z" fill="#263238"/>
<path d="M213.329 57.0166L198.128 48.2264C197.154 46.3719 195.986 44.6264 194.643 43.0195C202.802 44.4415 209.255 49.3847 213.329 57.0166Z" fill="#8968FF"/>
<path opacity="0.2" d="M213.329 57.0166L198.128 48.2264C197.154 46.3719 195.986 44.6264 194.643 43.0195C202.802 44.4415 209.255 49.3847 213.329 57.0166Z" fill="black"/>
<path d="M210.516 94.8555C211.29 90.7445 211.689 86.572 211.711 82.3889C211.711 54.1104 191.86 42.6469 167.372 56.7888C142.884 70.9306 123.028 105.311 123.028 133.589C123.004 137.322 123.407 141.044 124.228 144.685L118.509 147.99C117.797 144.303 117.451 140.555 117.475 136.8C117.475 104.975 139.823 66.2667 167.388 50.3564C194.953 34.4462 217.295 47.3419 217.295 79.1727C217.286 83.3304 216.94 87.4806 216.261 91.5824L210.573 94.8762" fill="#37474F"/>
<path d="M210.521 94.856C211.291 90.7428 211.689 86.5688 211.71 82.3843C211.71 63.7336 203.075 52.3942 190.164 50.8999C194.202 56.2878 196.519 63.9766 196.519 73.651C196.494 77.8233 196.096 81.9851 195.33 86.0865L210.521 94.856Z" fill="#263238"/>
<path d="M201.757 46.3652C192.801 41.7115 180.697 42.6733 167.372 50.3673C139.802 66.2672 117.459 104.97 117.459 136.806C117.435 140.557 117.781 144.302 118.493 147.985L103.328 139.226C102.6 135.549 102.242 131.81 102.257 128.062C102.257 96.2314 124.6 57.5287 152.17 41.6133C165.94 33.6608 178.401 32.911 187.434 38.1179C189.751 39.4313 198.277 44.3589 201.757 46.3652Z" fill="#455A64"/>
<path d="M110.748 134.892C110.325 134.877 109.913 134.752 109.553 134.53C108.814 134.047 108.197 133.398 107.754 132.633C107.31 131.869 107.052 131.012 106.999 130.13C106.999 128.951 107.609 128.191 108.55 128.191C108.973 128.204 109.384 128.327 109.745 128.548C110.486 129.035 111.103 129.689 111.547 130.458C111.99 131.226 112.248 132.088 112.299 132.974C112.294 134.127 111.684 134.892 110.748 134.892Z" fill="#263238"/>
<path d="M204.012 43.309C199.597 40.9408 194.653 39.7344 189.643 39.8033C182.027 39.8033 173.903 42.2645 165.491 47.1146C146.023 58.3506 129.037 80.6208 120.195 104.101L105.004 95.3107C113.846 71.8306 130.857 49.5604 150.299 38.3245C158.712 33.4743 166.845 31.0027 174.452 31.0027C179.652 30.9317 184.778 32.2413 189.307 34.798C191.711 36.2148 200.796 41.4476 204.012 43.309Z" fill="#8968FF"/>
<path opacity="0.6" d="M204.012 43.309C199.597 40.9408 194.653 39.7344 189.643 39.8033C182.027 39.8033 173.903 42.2645 165.491 47.1146C146.023 58.3506 129.037 80.6208 120.195 104.101L105.004 95.3107C113.846 71.8306 130.857 49.5604 150.299 38.3245C158.712 33.4743 166.845 31.0027 174.452 31.0027C179.652 30.9317 184.778 32.2413 189.307 34.798C191.711 36.2148 200.796 41.4476 204.012 43.309Z" fill="white"/>
<path d="M213.324 57.0113C208.453 47.916 200.185 42.6057 189.642 42.6057C182.522 42.6057 174.864 44.9377 166.891 49.5448C147.811 60.5584 131.177 82.4718 122.625 105.507L120.194 104.101C129.036 80.6207 146.022 58.3505 165.49 47.1146C173.902 42.2645 182.036 39.8032 189.642 39.8032C200.738 39.8032 209.554 45.0463 214.978 54.1519L213.324 57.0113Z" fill="#8968FF"/>
<path d="M278.603 48.5986L276.069 56.9493C275.861 56.7932 275.629 56.6726 275.381 56.5925C274.949 56.4615 274.487 56.4618 274.054 56.5933C273.622 56.7248 273.238 56.9815 272.951 57.3312C272.665 57.6808 272.488 58.1075 272.444 58.5574C272.4 59.0073 272.491 59.4601 272.704 59.8587C272.918 60.2572 273.244 60.5835 273.643 60.7963C274.042 61.0091 274.495 61.0989 274.945 61.0542C275.395 61.0096 275.821 60.8325 276.17 60.5455C276.52 60.2584 276.776 59.8743 276.907 59.4416L279.182 51.9596L287.315 52.2595L285.076 59.6794C284.87 59.5213 284.637 59.4005 284.389 59.3227C283.956 59.1917 283.494 59.1919 283.062 59.3234C282.629 59.4549 282.245 59.7117 281.959 60.0613C281.672 60.4109 281.496 60.8376 281.452 61.2875C281.408 61.7374 281.498 62.1903 281.712 62.5888C281.925 62.9873 282.252 63.3136 282.65 63.5264C283.049 63.7392 283.502 63.829 283.952 63.7843C284.402 63.7397 284.828 63.5627 285.178 63.2756C285.527 62.9886 285.783 62.6044 285.914 62.1717L289.652 49.762L278.603 48.5986Z" fill="#526ABC"/>
<path d="M272.491 176.547L269.958 184.898C269.751 184.74 269.518 184.619 269.27 184.541C268.837 184.41 268.376 184.411 267.943 184.542C267.511 184.674 267.127 184.93 266.84 185.28C266.554 185.63 266.377 186.056 266.333 186.506C266.289 186.956 266.379 187.409 266.593 187.807C266.806 188.206 267.133 188.532 267.532 188.745C267.931 188.958 268.384 189.048 268.833 189.003C269.283 188.958 269.71 188.781 270.059 188.494C270.408 188.207 270.664 187.823 270.795 187.39L273.07 179.908L281.204 180.208L278.965 187.628C278.758 187.47 278.526 187.349 278.277 187.271C277.845 187.14 277.383 187.141 276.95 187.272C276.518 187.404 276.134 187.66 275.848 188.01C275.561 188.36 275.385 188.786 275.34 189.236C275.296 189.686 275.387 190.139 275.6 190.538C275.814 190.936 276.14 191.262 276.539 191.475C276.938 191.688 277.391 191.778 277.841 191.733C278.291 191.688 278.717 191.511 279.066 191.224C279.416 190.937 279.672 190.553 279.803 190.12L283.536 177.711L272.491 176.547Z" fill="#4E73BC"/>
<path d="M256.406 78.2113C256.917 77.961 257.476 77.8218 258.045 77.8028C258.806 77.7879 259.566 77.8749 260.304 78.0614C261.283 78.3305 262.286 78.5037 263.298 78.5784C263.806 78.6131 264.315 78.5448 264.796 78.3778C265.277 78.2107 265.719 77.9483 266.095 77.6064C265.503 77.6616 264.905 77.5821 264.348 77.3737C263.009 76.8566 261.933 75.4864 260.728 74.7211C258.934 73.5887 257.16 73.687 254.978 74.2351C254.978 76.0913 254.942 77.958 254.922 79.8194L254.875 84.199C254.875 84.3386 254.808 86.1897 254.808 86.1897C254.302 85.9361 253.745 85.7983 253.179 85.7864C252.559 85.7803 251.951 85.9582 251.433 86.2976C250.914 86.637 250.507 87.1227 250.265 87.6932C250.022 88.2637 249.954 88.8933 250.069 89.5025C250.185 90.1116 250.478 90.6728 250.912 91.1151C251.347 91.5575 251.903 91.861 252.509 91.9874C253.116 92.1137 253.747 92.0572 254.322 91.8249C254.897 91.5927 255.39 91.1951 255.739 90.6826C256.087 90.1701 256.276 89.5656 256.281 88.9457L256.406 78.2113Z" fill="#3C97BB"/>
<path d="M307.017 156.563C307.578 156.463 308.155 156.485 308.708 156.625C309.442 156.823 310.147 157.115 310.807 157.494C311.674 158.023 312.59 158.468 313.542 158.823C314.021 158.995 314.53 159.07 315.038 159.041C315.546 159.013 316.043 158.882 316.5 158.657C315.914 158.548 315.361 158.307 314.881 157.954C313.739 157.101 313.087 155.472 312.141 154.402C310.735 152.814 309.008 152.411 306.753 152.333C306.236 154.123 305.688 155.901 305.155 157.685L303.899 161.884L303.278 163.771C302.863 163.388 302.366 163.104 301.825 162.939C301.232 162.758 300.599 162.758 300.006 162.938C299.412 163.118 298.886 163.47 298.492 163.949C298.099 164.428 297.857 165.013 297.796 165.63C297.736 166.247 297.859 166.868 298.152 167.415C298.444 167.962 298.893 168.409 299.439 168.701C299.986 168.993 300.608 169.116 301.225 169.055C301.841 168.994 302.426 168.751 302.905 168.357C303.384 167.963 303.735 167.436 303.914 166.842L307.017 156.563Z" fill="#8968FF"/>
<path d="M232.946 45.041C233.189 44.4733 233.55 43.9639 234.006 43.5467C234.62 42.9961 235.305 42.53 236.043 42.1609C237.04 41.686 237.989 41.1164 238.877 40.4598C239.318 40.1295 239.688 39.7132 239.965 39.2359C240.241 38.7587 240.418 38.2305 240.485 37.6831C240.036 38.1447 239.488 38.4983 238.882 38.7172C237.429 39.2343 235.562 38.8672 234.032 39.0895C231.751 39.4256 230.355 40.7545 228.954 42.7556C230.273 44.3068 231.539 45.858 232.858 47.4092L235.924 51.0287C236.022 51.1424 237.274 52.7143 237.274 52.7143C236.681 52.8705 236.129 53.1566 235.66 53.552C235.146 53.9861 234.772 54.563 234.586 55.2097C234.4 55.8564 234.409 56.5439 234.614 57.1851C234.818 57.8263 235.208 58.3925 235.734 58.812C236.261 59.2315 236.899 59.4856 237.57 59.542C238.241 59.5984 238.913 59.4547 239.502 59.129C240.091 58.8033 240.57 58.3102 240.879 57.7122C241.187 57.1142 241.312 56.438 241.236 55.7693C241.16 55.1006 240.888 54.4693 240.454 53.9553L232.946 45.041Z" fill="#52C1B9"/>
<path d="M278.577 94.7005L265.024 102.529C264.897 102.611 264.79 102.722 264.714 102.854C264.638 102.985 264.593 103.132 264.585 103.284V118.92C264.593 119.071 264.636 119.218 264.713 119.349C264.789 119.479 264.896 119.589 265.024 119.67L266.576 120.564C266.71 120.632 266.859 120.667 267.01 120.667C267.161 120.667 267.31 120.632 267.444 120.564L281.002 112.731C281.128 112.649 281.233 112.538 281.309 112.408C281.384 112.278 281.428 112.131 281.436 111.981V96.3189C281.429 96.1678 281.385 96.0208 281.308 95.8903C281.232 95.7598 281.125 95.6496 280.997 95.5692L279.446 94.6953C279.31 94.6296 279.161 94.5958 279.011 94.5967C278.86 94.5976 278.712 94.6331 278.577 94.7005Z" fill="#8968FF"/>
<path d="M267.036 120.306V104.649C267.044 104.498 267.088 104.351 267.163 104.22C267.239 104.089 267.344 103.978 267.47 103.894L281.028 96.066C281.266 95.9264 281.462 96.0402 281.462 96.3194V111.981C281.454 112.132 281.41 112.278 281.335 112.408C281.259 112.539 281.154 112.649 281.028 112.731L267.47 120.565C267.233 120.699 267.036 120.591 267.036 120.306Z" fill="#8968FF"/>
<path d="M267.036 120.306V104.649C267.044 104.498 267.088 104.351 267.163 104.22C267.239 104.089 267.344 103.978 267.47 103.894L281.028 96.066C281.266 95.9264 281.462 96.0402 281.462 96.3194V111.981C281.454 112.132 281.41 112.278 281.335 112.408C281.259 112.539 281.154 112.649 281.028 112.731L267.47 120.565C267.233 120.699 267.036 120.591 267.036 120.306Z" fill="#8968FF"/>
<path opacity="0.2" d="M267.47 120.565C267.333 120.628 267.184 120.661 267.033 120.661C266.882 120.661 266.733 120.628 266.596 120.565L265.045 119.665C264.917 119.584 264.81 119.474 264.733 119.344C264.657 119.213 264.613 119.066 264.605 118.915V103.284C264.613 103.126 264.661 102.973 264.745 102.839L267.17 104.22C267.089 104.349 267.044 104.497 267.041 104.649V120.306C267.036 120.565 267.201 120.709 267.47 120.565Z" fill="black"/>
<path opacity="0.4" d="M281.457 96.2416C281.421 96.0192 281.245 95.9416 281.028 96.0657L267.47 103.894C267.344 103.976 267.239 104.088 267.165 104.22L264.74 102.839C264.811 102.711 264.914 102.604 265.04 102.529L278.577 94.7007C278.712 94.6317 278.862 94.5957 279.014 94.5957C279.166 94.5957 279.316 94.6317 279.451 94.7007L281.002 95.5745C281.122 95.6453 281.226 95.7418 281.304 95.8571C281.383 95.9724 281.435 96.1037 281.457 96.2416Z" fill="white"/>
<path d="M279.559 105.202C279.559 109.142 277.165 113.724 274.207 115.43C271.25 117.136 268.851 115.326 268.851 111.381C268.851 107.436 271.25 102.86 274.207 101.154C277.165 99.4472 279.559 101.257 279.559 105.202Z" fill="#FAFAFA"/>
<path d="M273.484 106.474V111.04C273.477 111.154 273.444 111.264 273.388 111.363C273.331 111.462 273.253 111.546 273.158 111.609L272.279 112.126C272.098 112.229 271.953 112.126 271.953 111.935V107.379C271.96 107.266 271.992 107.155 272.049 107.057C272.106 106.958 272.184 106.874 272.279 106.811L273.158 106.293C273.334 106.185 273.484 106.268 273.484 106.474Z" fill="#455A64"/>
<path d="M276.549 104.706V109.267C276.543 109.38 276.51 109.491 276.453 109.589C276.397 109.688 276.318 109.772 276.224 109.835L275.345 110.352C275.164 110.456 275.014 110.352 275.014 110.161V105.601C275.021 105.487 275.054 105.377 275.112 105.279C275.169 105.181 275.249 105.098 275.345 105.037L276.224 104.52C276.405 104.411 276.549 104.494 276.549 104.706Z" fill="#455A64"/>
<path d="M294.332 87.5548L283.473 93.8165C283.372 93.8833 283.289 93.9728 283.228 94.0779C283.168 94.1829 283.133 94.3006 283.127 94.4215V106.929C283.133 107.05 283.168 107.168 283.229 107.273C283.29 107.377 283.376 107.465 283.479 107.529L284.725 108.248C284.833 108.303 284.952 108.332 285.074 108.332C285.195 108.332 285.315 108.303 285.423 108.248L296.281 101.986C296.383 101.92 296.468 101.831 296.529 101.726C296.59 101.621 296.626 101.503 296.633 101.381V88.8475C296.625 88.727 296.589 88.6101 296.528 88.506C296.467 88.4018 296.382 88.3134 296.281 88.2477L295.035 87.5496C294.926 87.4946 294.805 87.4664 294.683 87.4673C294.561 87.4682 294.44 87.4982 294.332 87.5548Z" fill="#1ED6BB"/>
<path d="M285.087 108.042V95.5131C285.093 95.3928 285.128 95.2757 285.188 95.1714C285.248 95.0672 285.332 94.9787 285.433 94.9133L296.292 88.6464C296.483 88.5378 296.643 88.6464 296.643 88.8481V101.377C296.636 101.498 296.601 101.616 296.54 101.721C296.479 101.826 296.394 101.915 296.292 101.982L285.433 108.243C285.242 108.357 285.087 108.264 285.087 108.042Z" fill="#1ED6BB"/>
<path d="M285.087 108.042V95.5131C285.093 95.3928 285.128 95.2757 285.188 95.1714C285.248 95.0672 285.332 94.9787 285.433 94.9133L296.292 88.6464C296.483 88.5378 296.643 88.6464 296.643 88.8481V101.377C296.636 101.498 296.601 101.616 296.54 101.721C296.479 101.826 296.394 101.915 296.292 101.982L285.433 108.243C285.242 108.357 285.087 108.264 285.087 108.042Z" fill="#1ED6BB"/>
<path opacity="0.2" d="M285.433 108.243C285.325 108.296 285.205 108.324 285.084 108.324C284.963 108.324 284.844 108.296 284.735 108.243L283.489 107.524C283.387 107.46 283.301 107.372 283.24 107.268C283.179 107.163 283.144 107.045 283.138 106.924V94.4217C283.142 94.2953 283.179 94.1722 283.246 94.0649L285.19 95.1715C285.126 95.2738 285.09 95.3917 285.087 95.5127V108.041C285.087 108.248 285.227 108.362 285.433 108.243Z" fill="black"/>
<path opacity="0.4" d="M296.622 88.7647C296.591 88.5889 296.451 88.5269 296.275 88.6251L285.417 94.892C285.315 94.9556 285.231 95.0447 285.174 95.1505L283.229 94.0647C283.287 93.9618 283.371 93.8761 283.473 93.8165L294.331 87.5548C294.439 87.4998 294.559 87.4712 294.68 87.4712C294.801 87.4712 294.921 87.4998 295.029 87.5548L296.275 88.2528C296.365 88.3101 296.442 88.385 296.501 88.473C296.561 88.5611 296.602 88.6603 296.622 88.7647Z" fill="white"/>
<path d="M293.938 94.3755V98.936C293.932 99.0498 293.9 99.1606 293.843 99.2594C293.787 99.3583 293.707 99.4423 293.612 99.5048L292.733 100.022C292.552 100.125 292.402 100.022 292.402 99.8358V95.27C292.409 95.1567 292.443 95.0467 292.501 94.9487C292.558 94.8508 292.638 94.7678 292.733 94.7064L293.612 94.1893C293.793 94.0808 293.938 94.1635 293.938 94.3755Z" fill="#455A64"/>
<path d="M287.771 97.9839V102.451C287.771 102.788 287.946 102.85 288.169 102.601L292.305 97.834C292.528 97.5806 292.434 97.379 292.098 97.379H288.401C288.32 97.3755 288.238 97.3885 288.162 97.4174C288.085 97.4462 288.016 97.4902 287.957 97.5468C287.898 97.6033 287.851 97.6712 287.819 97.7463C287.787 97.8214 287.77 97.9023 287.771 97.9839Z" fill="#455A64"/>
<path d="M259.91 107.431L249.052 113.693C248.95 113.759 248.864 113.848 248.803 113.953C248.742 114.058 248.707 114.176 248.7 114.298V126.806C248.707 126.926 248.743 127.044 248.804 127.148C248.865 127.252 248.95 127.34 249.052 127.405L250.298 128.124C250.406 128.179 250.526 128.208 250.647 128.208C250.768 128.208 250.888 128.179 250.996 128.124L261.854 121.863C261.956 121.796 262.04 121.707 262.1 121.601C262.16 121.496 262.195 121.379 262.201 121.258V108.724C262.195 108.603 262.16 108.485 262.099 108.381C262.038 108.276 261.952 108.188 261.849 108.124L260.603 107.426C260.495 107.373 260.376 107.345 260.256 107.346C260.136 107.347 260.017 107.376 259.91 107.431Z" fill="#1ED6BB"/>
<path d="M250.655 127.917V115.389C250.661 115.268 250.696 115.151 250.756 115.047C250.816 114.943 250.901 114.854 251.002 114.789L261.86 108.522C262.051 108.413 262.207 108.522 262.207 108.724V121.252C262.2 121.373 262.166 121.491 262.106 121.596C262.046 121.701 261.961 121.791 261.86 121.857L251.002 128.119C250.821 128.233 250.655 128.14 250.655 127.917Z" fill="#1ED6BB"/>
<path d="M250.655 127.917V115.389C250.661 115.268 250.696 115.151 250.756 115.047C250.816 114.943 250.901 114.854 251.002 114.789L261.86 108.522C262.051 108.413 262.207 108.522 262.207 108.724V121.252C262.2 121.373 262.166 121.491 262.106 121.596C262.046 121.701 261.961 121.791 261.86 121.857L251.002 128.119C250.821 128.233 250.655 128.14 250.655 127.917Z" fill="#1ED6BB"/>
<path opacity="0.2" d="M251.012 128.118C250.903 128.172 250.784 128.2 250.663 128.2C250.542 128.2 250.422 128.172 250.314 128.118L249.067 127.4C248.966 127.335 248.881 127.246 248.82 127.142C248.758 127.038 248.723 126.921 248.716 126.8V114.297C248.722 114.17 248.761 114.047 248.83 113.94L250.769 115.047C250.704 115.149 250.668 115.267 250.665 115.388V127.917C250.655 128.124 250.81 128.237 251.012 128.118Z" fill="black"/>
<path opacity="0.4" d="M262.201 108.661C262.175 108.486 262.03 108.424 261.854 108.522L250.996 114.789C250.895 114.854 250.811 114.942 250.753 115.047L248.809 113.941C248.869 113.84 248.952 113.755 249.052 113.692L259.91 107.431C260.018 107.376 260.138 107.347 260.259 107.347C260.38 107.347 260.5 107.376 260.608 107.431L261.854 108.129C261.946 108.188 262.024 108.267 262.084 108.358C262.144 108.45 262.184 108.553 262.201 108.661Z" fill="white"/>
<path d="M254.713 117.136V121.697C254.708 121.811 254.676 121.922 254.619 122.02C254.562 122.119 254.483 122.203 254.387 122.266L253.508 122.783C253.327 122.891 253.183 122.783 253.183 122.597V118.036C253.188 117.922 253.22 117.811 253.277 117.712C253.334 117.613 253.413 117.529 253.508 117.467L254.387 116.95C254.568 116.842 254.713 116.929 254.713 117.136Z" fill="#455A64"/>
<path d="M259.688 118.802V114.148C259.688 113.791 259.497 113.719 259.259 113.988L254.854 118.967C254.616 119.236 254.714 119.453 255.071 119.453H259.042C259.213 119.45 259.377 119.381 259.498 119.259C259.618 119.137 259.687 118.973 259.688 118.802Z" fill="#455A64"/>
<path d="M295.847 110.859L248.442 138.228C248.315 138.31 248.21 138.422 248.135 138.553C248.059 138.684 248.016 138.831 248.008 138.983V169.205C248.016 169.355 248.06 169.5 248.136 169.63C248.211 169.759 248.316 169.869 248.442 169.95L249.993 170.85C250.129 170.917 250.279 170.952 250.43 170.952C250.582 170.952 250.731 170.917 250.867 170.85L298.272 143.476C298.399 143.393 298.504 143.281 298.579 143.15C298.655 143.019 298.698 142.872 298.707 142.721V112.478C298.699 112.327 298.655 112.179 298.578 112.049C298.502 111.918 298.395 111.808 298.267 111.728L296.716 110.854C296.581 110.787 296.432 110.752 296.281 110.753C296.13 110.754 295.981 110.79 295.847 110.859Z" fill="#455A64"/>
<path d="M298.712 112.395C298.676 112.178 298.5 112.1 298.283 112.224L250.878 139.598C250.748 139.678 250.642 139.79 250.568 139.924L248.143 138.538C248.215 138.411 248.318 138.304 248.442 138.228L295.847 110.854C295.983 110.787 296.133 110.751 296.284 110.751C296.436 110.751 296.585 110.787 296.721 110.854L298.272 111.728C298.39 111.8 298.49 111.897 298.566 112.013C298.642 112.128 298.692 112.258 298.712 112.395Z" fill="#37474F"/>
<path d="M250.438 170.591V140.353C250.446 140.201 250.49 140.054 250.567 139.923C250.643 139.791 250.749 139.68 250.877 139.598L298.282 112.224C298.52 112.085 298.716 112.198 298.716 112.478V142.716C298.708 142.867 298.664 143.014 298.589 143.145C298.514 143.276 298.408 143.388 298.282 143.471L250.877 170.844C250.655 170.979 250.438 170.87 250.438 170.591Z" fill="#455A64"/>
<path opacity="0.2" d="M250.878 170.845C250.742 170.911 250.592 170.945 250.441 170.945C250.29 170.945 250.14 170.911 250.004 170.845L248.453 169.945C248.327 169.864 248.222 169.754 248.147 169.625C248.071 169.495 248.027 169.35 248.019 169.2V138.983C248.024 138.825 248.07 138.672 248.153 138.538L250.578 139.924C250.499 140.054 250.455 140.201 250.449 140.353V170.591C250.438 170.845 250.619 170.979 250.878 170.845Z" fill="#263238"/>
<path d="M256.467 163.548C256.461 163.552 256.455 163.554 256.449 163.554C256.442 163.554 256.436 163.552 256.431 163.548C256.429 163.544 256.428 163.54 256.428 163.535C256.428 163.531 256.429 163.526 256.431 163.522V163.352L255.913 163.662C255.909 163.664 255.903 163.665 255.898 163.665C255.893 163.665 255.887 163.664 255.882 163.662V163.636V163.455C255.878 163.426 255.878 163.396 255.882 163.367L256.4 162.426C256.406 162.411 256.414 162.397 256.425 162.385H256.462L256.72 162.235C256.72 162.235 256.746 162.235 256.751 162.235V162.261V162.917L256.896 162.835C256.901 162.831 256.908 162.829 256.914 162.829C256.921 162.829 256.927 162.831 256.932 162.835V163.021C256.936 163.032 256.936 163.045 256.932 163.057L256.896 163.093L256.751 163.176V163.352C256.755 163.365 256.755 163.38 256.751 163.393C256.745 163.407 256.734 163.418 256.72 163.424L256.467 163.548ZM256.425 163.078V162.762L256.177 163.222L256.425 163.078Z" fill="white"/>
<path d="M257.48 162.318C257.482 162.332 257.482 162.345 257.48 162.359L257.444 162.39L257.222 162.52C257.222 162.52 257.196 162.52 257.191 162.52V162.297C257.186 162.284 257.186 162.269 257.191 162.256C257.193 162.248 257.197 162.242 257.202 162.236C257.208 162.231 257.214 162.227 257.222 162.225L257.444 162.09H257.48C257.483 162.099 257.483 162.108 257.48 162.116V162.318ZM257.48 162.918C257.482 162.931 257.482 162.945 257.48 162.959L257.444 162.99L257.222 163.119C257.222 163.119 257.196 163.119 257.191 163.119V163.093V162.871C257.186 162.858 257.186 162.843 257.191 162.83C257.193 162.822 257.197 162.816 257.202 162.81C257.208 162.805 257.214 162.801 257.222 162.799L257.444 162.669C257.449 162.666 257.456 162.664 257.462 162.664C257.469 162.664 257.475 162.666 257.48 162.669V162.918Z" fill="white"/>
<path d="M258.348 162.462C258.348 162.462 258.323 162.462 258.312 162.462C258.31 162.458 258.309 162.454 258.309 162.449C258.309 162.445 258.31 162.44 258.312 162.436V162.261L257.769 162.576H257.738V162.395C257.739 162.364 257.748 162.334 257.764 162.307L258.281 161.366L258.307 161.325C258.317 161.313 258.329 161.304 258.343 161.299L258.602 161.149C258.602 161.149 258.628 161.149 258.633 161.149V161.175V161.831L258.783 161.744H258.814C258.816 161.747 258.817 161.752 258.817 161.756C258.817 161.761 258.816 161.765 258.814 161.769V161.95C258.818 161.964 258.818 161.978 258.814 161.992L258.783 162.028L258.633 162.111V162.286C258.636 162.3 258.636 162.314 258.633 162.328C258.627 162.342 258.616 162.353 258.602 162.359L258.348 162.462ZM258.307 161.987V161.671L258.059 162.131L258.307 161.987Z" fill="white"/>
<path d="M290.257 143.625C290.258 143.695 290.244 143.764 290.216 143.827C290.19 143.899 290.153 143.967 290.107 144.029C290.058 144.094 290.002 144.155 289.942 144.21C289.883 144.262 289.819 144.309 289.75 144.349C289.689 144.386 289.623 144.414 289.554 144.432C289.499 144.444 289.443 144.444 289.388 144.432C289.344 144.423 289.304 144.4 289.275 144.365C289.246 144.316 289.231 144.261 289.233 144.205C289.228 144.17 289.228 144.135 289.233 144.101L289.264 144.003C289.274 143.97 289.288 143.939 289.306 143.91L289.347 143.822L289.678 143.191V143.155L289.714 143.124L289.988 142.969V142.995L289.761 143.429C289.815 143.402 289.872 143.383 289.931 143.372C289.977 143.361 290.025 143.361 290.071 143.372C290.111 143.387 290.145 143.414 290.169 143.45C290.218 143.496 290.25 143.558 290.257 143.625ZM289.554 144.034C289.548 144.052 289.548 144.072 289.554 144.091C289.569 144.096 289.585 144.096 289.6 144.091C289.621 144.096 289.642 144.096 289.662 144.091L289.735 144.06L289.802 144.008C289.825 143.99 289.846 143.969 289.864 143.946C289.881 143.921 289.897 143.895 289.911 143.868C289.916 143.843 289.916 143.817 289.911 143.791C289.917 143.772 289.917 143.753 289.911 143.734C289.895 143.729 289.879 143.729 289.864 143.734C289.844 143.726 289.822 143.726 289.802 143.734C289.778 143.74 289.755 143.751 289.735 143.765C289.708 143.777 289.683 143.795 289.662 143.817C289.639 143.835 289.618 143.856 289.6 143.879C289.581 143.902 289.565 143.928 289.554 143.956C289.549 143.982 289.549 144.008 289.554 144.034Z" fill="white"/>
<path d="M290.805 143.057C290.809 143.071 290.809 143.085 290.805 143.098L290.774 143.13L290.552 143.259C290.552 143.259 290.526 143.259 290.516 143.259C290.514 143.255 290.513 143.25 290.513 143.246C290.513 143.241 290.514 143.237 290.516 143.233V143.057C290.513 143.043 290.513 143.029 290.516 143.016C290.523 143.001 290.536 142.99 290.552 142.985L290.774 142.855C290.774 142.855 290.8 142.855 290.805 142.855V143.057ZM290.805 143.657C290.809 143.67 290.809 143.685 290.805 143.698C290.798 143.711 290.787 143.722 290.774 143.729L290.552 143.859C290.552 143.859 290.526 143.859 290.516 143.859V143.636C290.513 143.623 290.513 143.609 290.516 143.595C290.523 143.58 290.536 143.569 290.552 143.564L290.774 143.435C290.774 143.435 290.8 143.435 290.805 143.435V143.657Z" fill="white"/>
<path d="M291.964 141.852H292.021C292.023 141.856 292.024 141.86 292.024 141.865C292.024 141.87 292.023 141.874 292.021 141.878V142.059C292.023 142.073 292.023 142.087 292.021 142.1C292.022 142.114 292.022 142.128 292.021 142.142L291.814 142.467C291.884 142.445 291.96 142.445 292.031 142.467C292.062 142.483 292.086 142.508 292.102 142.539C292.118 142.569 292.124 142.604 292.119 142.638C292.116 142.772 292.069 142.901 291.984 143.005C291.88 143.134 291.752 143.241 291.607 143.321C291.539 143.362 291.466 143.393 291.39 143.414C291.337 143.428 291.282 143.428 291.23 143.414C291.192 143.411 291.157 143.394 291.131 143.367C291.107 143.338 291.094 143.301 291.095 143.264C291.091 143.252 291.091 143.239 291.095 143.227C291.101 143.216 291.11 143.207 291.121 143.202L291.338 143.078C291.346 143.073 291.355 143.071 291.364 143.071C291.373 143.071 291.382 143.073 291.39 143.078H291.431H291.493C291.531 143.073 291.566 143.058 291.597 143.036C291.648 143.007 291.695 142.97 291.736 142.928C291.752 142.912 291.765 142.894 291.774 142.873C291.783 142.853 291.788 142.831 291.788 142.809C291.788 142.767 291.788 142.752 291.736 142.752C291.687 142.761 291.64 142.778 291.597 142.803L291.457 142.886C291.457 142.886 291.457 142.886 291.426 142.886V142.741C291.424 142.728 291.424 142.714 291.426 142.7C291.433 142.686 291.442 142.672 291.452 142.659L291.633 142.369L291.188 142.628C291.188 142.628 291.162 142.628 291.152 142.628V142.447C291.151 142.431 291.155 142.416 291.163 142.403C291.172 142.39 291.184 142.38 291.198 142.374L291.964 141.852Z" fill="white"/>
<path d="M292.822 141.34C292.891 141.299 292.966 141.269 293.044 141.252C293.093 141.238 293.145 141.238 293.194 141.252C293.236 141.272 293.269 141.307 293.287 141.35C293.308 141.4 293.32 141.452 293.323 141.505V141.81C293.318 141.879 293.306 141.946 293.287 142.012C293.266 142.082 293.235 142.148 293.194 142.209C293.152 142.278 293.102 142.342 293.044 142.4C292.977 142.463 292.902 142.519 292.822 142.565C292.753 142.607 292.678 142.638 292.6 142.658C292.549 142.675 292.495 142.675 292.444 142.658C292.406 142.637 292.376 142.604 292.357 142.565C292.335 142.514 292.323 142.46 292.32 142.405C292.32 142.358 292.32 142.312 292.32 142.255C292.32 142.198 292.32 142.152 292.32 142.1C292.325 142.033 292.337 141.967 292.357 141.903C292.379 141.834 292.409 141.766 292.444 141.702C292.488 141.632 292.54 141.568 292.6 141.51C292.667 141.446 292.742 141.389 292.822 141.34ZM293.003 141.997C293.008 141.9 293.008 141.803 293.003 141.707C293.006 141.683 293.006 141.659 293.003 141.635C292.997 141.618 292.986 141.603 292.972 141.593C292.963 141.589 292.953 141.587 292.943 141.587C292.934 141.587 292.924 141.589 292.915 141.593C292.886 141.598 292.858 141.609 292.832 141.624C292.8 141.642 292.77 141.665 292.744 141.691C292.724 141.713 292.706 141.737 292.693 141.764C292.677 141.789 292.666 141.817 292.662 141.847C292.659 141.874 292.659 141.902 292.662 141.929C292.656 142.026 292.656 142.122 292.662 142.219C292.659 142.243 292.659 142.267 292.662 142.291C292.658 142.307 292.658 142.323 292.662 142.338C292.68 142.343 292.7 142.343 292.718 142.338C292.75 142.331 292.779 142.318 292.806 142.302C292.836 142.283 292.863 142.263 292.889 142.24C292.911 142.216 292.93 142.19 292.946 142.162C292.961 142.138 292.971 142.112 292.977 142.084C292.987 142.064 292.996 142.044 293.003 142.022V141.997Z" fill="white"/>
<path opacity="0.3" d="M262.087 158.714L287.072 144.288C287.481 144.05 287.812 144.22 287.812 144.665C287.794 144.914 287.718 145.155 287.589 145.369C287.461 145.583 287.284 145.763 287.072 145.896L262.087 160.322C261.679 160.56 261.343 160.389 261.343 159.945C261.361 159.695 261.438 159.454 261.567 159.24C261.697 159.026 261.875 158.846 262.087 158.714Z" fill="white"/>
<path d="M262.087 158.714L280.847 147.881C281.255 147.643 281.591 147.814 281.591 148.258C281.572 148.507 281.495 148.748 281.365 148.962C281.236 149.176 281.058 149.356 280.847 149.489L262.087 160.322C261.679 160.559 261.343 160.389 261.343 159.944C261.361 159.695 261.438 159.453 261.567 159.239C261.697 159.025 261.875 158.845 262.087 158.714Z" fill="white"/>
<path d="M296.628 125.477L294.415 126.749C293.505 127.266 291.918 128.264 291.008 128.015C290.242 127.809 289.653 126.78 288.598 127.39C287.931 127.772 287.192 130.135 285.894 130.885C284.596 131.635 283.826 129.52 283.407 128.429C282.988 127.338 282.248 125.296 280.702 126.185C279.156 127.074 278.355 130.203 277.373 132.498C276.39 134.794 275.113 137.018 273.536 137.928C271.674 139.003 270.392 138.481 269.518 138.988C268.644 139.494 267.91 141.097 266.933 142.023C266.064 142.866 264.725 143.677 263.955 143.057C263.184 142.436 262.631 140.844 261.855 141.289C261.08 141.733 260.454 144.308 259.72 145.596C258.986 146.883 258.169 147.664 256.002 148.91L251.896 151.278V151.573L253.665 150.539C254.549 150.022 255.795 149.355 256.628 149.706C257.46 150.058 257.496 150.379 258.231 149.955C258.965 149.531 259.265 148.921 259.782 148.088C260.123 147.448 260.61 146.897 261.204 146.48C261.721 146.165 262.429 146.48 262.858 146.894C263.288 147.307 263.706 147.757 264.342 147.411C265.007 146.919 265.522 146.253 265.832 145.487C266.245 144.681 266.473 144.045 266.928 143.776C267.43 143.544 267.997 143.497 268.531 143.641C269.395 143.782 270.281 143.598 271.018 143.124C272.093 142.504 273.345 141.407 274.916 138.605L277.3 137.224C279.037 136.226 280.237 135.642 281.033 135.828C282.026 136.056 283.391 137.969 284.875 137.105C286.359 136.242 286.794 134.003 287.528 132.524C288.11 131.12 289.178 129.973 290.537 129.293L296.608 125.787L296.628 125.477Z" fill="#3C97BB"/>
<path opacity="0.2" d="M283.406 137.178C282.511 136.837 281.7 135.968 281.053 135.818C280.257 135.632 279.057 136.216 277.32 137.214L274.957 138.595C276.332 136.128 277.641 132.266 278.132 130.735C278.344 130.084 278.582 129.432 278.861 128.796C279.141 128.112 279.509 127.467 279.957 126.878C280.728 126.077 281.307 125.989 281.679 126.919C282.051 127.85 281.777 130.622 281.844 132.974C281.912 135.327 282.532 136.651 283.406 137.178Z" fill="black"/>
<path opacity="0.2" d="M263.97 143.057C264.74 143.667 266.079 142.856 266.948 142.023C267.91 141.098 268.639 139.495 269.533 138.988C270.428 138.481 271.689 138.988 273.551 137.928C274.162 137.552 274.699 137.067 275.133 136.496C274.456 137.53 273.427 139.464 271.415 140.917C270.247 141.759 268.732 142.276 268.06 142.664C267.38 143.048 266.826 143.621 266.467 144.314C266.276 144.629 266.1 145.032 265.867 145.487C265.558 146.254 265.042 146.919 264.378 147.411C264.258 147.49 264.119 147.536 263.976 147.544C263.832 147.552 263.689 147.522 263.561 147.457C262.997 147.018 262.744 146.056 262.672 144.029C262.584 141.687 262.253 141.232 261.886 141.299C262.646 140.865 263.199 142.473 263.97 143.057Z" fill="black"/>
<path opacity="0.2" d="M281.825 132.974C281.757 130.622 282.037 127.85 281.659 126.919C281.406 126.289 281.059 126.128 280.625 126.335C281.282 126.247 281.861 127.287 281.478 129.846C281.266 131.263 280.641 133.921 280.961 135.803C280.997 135.8 281.034 135.8 281.07 135.803C281.716 135.953 282.528 136.837 283.422 137.163C282.533 136.651 281.892 135.332 281.825 132.974Z" fill="black"/>
<path opacity="0.2" d="M274.957 138.595L276.276 137.83C276.737 136.589 277.136 135.326 277.47 134.045C277.987 132.188 278.38 130.006 278.861 128.796C278.582 129.432 278.344 130.084 278.132 130.735C277.62 132.266 276.312 136.128 274.957 138.595Z" fill="black"/>
<path opacity="0.5" d="M287.885 128.31C287.368 129.179 286.757 130.378 285.889 130.895C284.591 131.645 283.82 129.53 283.402 128.439C283.277 128.124 283.128 127.721 282.941 127.338C283.458 128.444 283.893 130.471 284.208 131.614C284.477 132.586 284.751 133.248 285.511 132.953C286.271 132.659 286.794 131.056 287.109 130.192C287.325 129.548 287.584 128.919 287.885 128.31Z" fill="white"/>
<path opacity="0.2" d="M288.013 129.763C287.621 130.978 287.44 132.318 286.824 134.272C287.067 133.652 287.29 133.031 287.548 132.514C288.13 131.11 289.198 129.963 290.557 129.282L292.548 128.135C290.63 129.241 289.803 128.393 289.342 128.135C288.882 127.876 288.401 128.548 288.013 129.763Z" fill="black"/>
<path opacity="0.2" d="M289.073 128.088C288.701 128.16 288.329 128.781 288.013 129.763C287.62 130.978 287.44 132.318 286.824 134.272C287.067 133.652 287.29 133.031 287.548 132.514C287.734 132.137 287.91 131.811 288.065 131.511C288.138 130.932 288.184 130.425 288.215 130.125C288.334 129.231 288.66 128.388 289.073 128.088Z" fill="black"/>
<path opacity="0.2" d="M273.535 137.938C271.674 139.014 270.391 138.492 269.518 138.998C269.37 139.086 269.235 139.192 269.114 139.314C269.704 138.797 270.665 139.184 271.405 139.314C272.154 139.396 272.91 139.231 273.556 138.843C274.115 138.098 274.633 137.323 275.107 136.521C274.674 137.086 274.141 137.566 273.535 137.938Z" fill="black"/>
<path opacity="0.2" d="M262.656 144.039C262.728 146.066 262.982 147.028 263.545 147.467C263.674 147.532 263.817 147.562 263.96 147.554C264.104 147.546 264.242 147.5 264.362 147.421C264.967 146.99 265.443 146.401 265.738 145.72C264.988 146.754 263.861 146.924 263.54 145.942C263.22 144.96 263.209 143.594 262.987 142.664C262.765 141.733 262.511 141.252 262.149 141.231H262.077H262.025H261.994H261.953L261.87 141.268C262.237 141.242 262.547 141.697 262.656 144.039Z" fill="black"/>
<path opacity="0.5" d="M259.735 145.642C258.996 146.93 258.184 147.711 256.018 148.957L255.542 149.231C258.277 147.68 259.348 148.062 260.056 146.568C260.764 145.074 261.044 142.571 261.4 141.868C260.832 142.783 260.315 144.608 259.735 145.642Z" fill="white"/>
<path opacity="0.5" d="M276.214 135.916C275.835 136.831 275.407 137.725 274.932 138.594C273.381 141.397 272.114 142.493 271.038 143.114C270.305 143.59 269.419 143.775 268.556 143.631C268.02 143.49 267.452 143.539 266.948 143.77C267.587 143.343 268.347 143.132 269.115 143.171C269.973 143.145 271.24 142.767 272.698 141.319C274.156 139.872 276.152 136.035 276.214 135.916Z" fill="white"/>
<path d="M268.68 148.46C268.688 148.452 268.7 148.448 268.711 148.448C268.722 148.448 268.733 148.452 268.742 148.46C268.752 148.485 268.752 148.513 268.742 148.538V148.708C268.749 148.744 268.749 148.781 268.742 148.817C268.737 148.832 268.729 148.847 268.718 148.859C268.708 148.872 268.695 148.882 268.68 148.889L268.096 149.231V152.054C268.094 152.091 268.086 152.128 268.07 152.162C268.056 152.192 268.035 152.217 268.008 152.235L267.878 152.307C267.875 152.311 267.871 152.315 267.866 152.317C267.861 152.32 267.856 152.321 267.85 152.321C267.845 152.321 267.839 152.32 267.834 152.317C267.829 152.315 267.825 152.311 267.822 152.307C267.811 152.297 267.804 152.285 267.799 152.271C267.795 152.258 267.793 152.244 267.796 152.23V149.406L267.206 149.748C267.197 149.754 267.186 149.758 267.175 149.758C267.164 149.758 267.153 149.754 267.144 149.748C267.126 149.726 267.117 149.698 267.118 149.67V149.494C267.12 149.458 267.128 149.423 267.144 149.391C267.144 149.355 267.18 149.329 267.206 149.318L268.68 148.46Z" fill="white"/>
<path d="M270.728 147.276C270.737 147.27 270.748 147.266 270.759 147.266C270.771 147.266 270.781 147.27 270.79 147.276C270.809 147.298 270.818 147.326 270.816 147.354V150.482C270.815 150.52 270.806 150.557 270.79 150.591C270.778 150.621 270.757 150.647 270.728 150.663L270.599 150.736C270.596 150.74 270.591 150.743 270.586 150.746C270.581 150.748 270.576 150.749 270.571 150.749C270.565 150.749 270.56 150.748 270.555 150.746C270.55 150.743 270.546 150.74 270.542 150.736C270.533 150.711 270.533 150.683 270.542 150.658V149.293L269.436 149.934V151.299C269.443 151.335 269.443 151.372 269.436 151.408C269.424 151.438 269.402 151.464 269.374 151.48L269.249 151.553C269.222 151.553 269.201 151.553 269.187 151.553C269.168 151.53 269.159 151.5 269.162 151.47V148.367C269.163 148.332 269.172 148.296 269.187 148.264C269.192 148.249 269.201 148.234 269.211 148.222C269.222 148.209 269.235 148.199 269.249 148.192L269.374 148.114C269.383 148.107 269.393 148.104 269.405 148.104C269.416 148.104 269.427 148.107 269.436 148.114C269.445 148.139 269.445 148.167 269.436 148.192V149.521L270.542 148.879V147.551C270.535 147.516 270.535 147.481 270.542 147.447C270.552 147.417 270.572 147.392 270.599 147.375L270.728 147.276Z" fill="white"/>
<path d="M272.714 149.086C272.722 149.08 272.732 149.076 272.742 149.076C272.752 149.076 272.762 149.08 272.771 149.086C272.781 149.096 272.789 149.108 272.793 149.122C272.798 149.135 272.799 149.15 272.796 149.164V149.339C272.798 149.376 272.789 149.412 272.771 149.443C272.758 149.473 272.739 149.5 272.714 149.52L271.442 150.255C271.433 150.261 271.422 150.265 271.411 150.265C271.399 150.265 271.389 150.261 271.38 150.255C271.361 150.233 271.352 150.205 271.354 150.177V147.075C271.355 147.037 271.364 147 271.38 146.966C271.38 146.93 271.416 146.904 271.442 146.894L272.688 146.175C272.695 146.168 272.706 146.164 272.716 146.164C272.727 146.164 272.737 146.168 272.745 146.175C272.75 146.187 272.753 146.2 272.753 146.214C272.753 146.227 272.75 146.24 272.745 146.252V146.428C272.754 146.464 272.754 146.501 272.745 146.537C272.733 146.566 272.713 146.591 272.688 146.609L271.654 147.204V148.238L272.621 147.68C272.629 147.673 272.639 147.67 272.649 147.67C272.659 147.67 272.669 147.673 272.677 147.68C272.696 147.701 272.705 147.729 272.703 147.757V147.933C272.703 147.969 272.694 148.004 272.677 148.036C272.665 148.067 272.646 148.093 272.621 148.114L271.654 148.667V149.701L272.714 149.086Z" fill="white"/>
<path d="M274.662 144.96C274.762 144.893 274.879 144.857 274.999 144.856C275.088 144.86 275.176 144.887 275.252 144.934C275.319 144.986 275.372 145.053 275.407 145.13C275.44 145.208 275.459 145.29 275.464 145.374C275.471 145.402 275.471 145.432 275.464 145.461C275.452 145.485 275.434 145.505 275.412 145.518L275.283 145.596C275.266 145.602 275.248 145.602 275.231 145.596C275.231 145.596 275.2 145.57 275.185 145.534C275.171 145.501 275.154 145.47 275.133 145.441C275.109 145.403 275.075 145.372 275.035 145.353C274.991 145.327 274.941 145.314 274.89 145.317C274.816 145.32 274.745 145.343 274.683 145.384C274.622 145.419 274.567 145.463 274.518 145.513C274.461 145.564 274.412 145.624 274.373 145.689C274.33 145.757 274.295 145.83 274.27 145.906C274.244 145.985 274.232 146.067 274.233 146.149C274.229 146.215 274.242 146.281 274.27 146.34C274.283 146.362 274.3 146.381 274.32 146.396C274.341 146.411 274.364 146.422 274.388 146.428C274.455 146.442 274.524 146.442 274.59 146.428C274.691 146.42 274.791 146.406 274.89 146.387C274.989 146.372 275.09 146.372 275.19 146.387C275.265 146.394 275.337 146.423 275.397 146.47C275.451 146.518 275.491 146.581 275.51 146.651C275.535 146.751 275.547 146.853 275.547 146.956C275.547 147.103 275.526 147.249 275.485 147.39C275.443 147.534 275.386 147.672 275.314 147.804C275.241 147.933 275.15 148.051 275.045 148.155C274.945 148.265 274.828 148.358 274.699 148.429C274.598 148.495 274.482 148.534 274.363 148.543C274.27 148.551 274.178 148.529 274.099 148.481C274.024 148.436 273.963 148.372 273.923 148.295C273.879 148.208 273.856 148.113 273.856 148.016C273.849 147.989 273.849 147.96 273.856 147.933C273.866 147.909 273.882 147.888 273.902 147.871L274.032 147.799C274.041 147.794 274.05 147.792 274.06 147.792C274.07 147.792 274.08 147.794 274.089 147.799C274.089 147.799 274.12 147.824 274.13 147.861C274.144 147.901 274.163 147.939 274.187 147.974C274.215 148.013 274.253 148.045 274.295 148.067C274.346 148.088 274.401 148.097 274.456 148.093C274.535 148.083 274.611 148.055 274.678 148.011C274.755 147.968 274.824 147.914 274.885 147.85C274.953 147.788 275.012 147.717 275.061 147.638C275.112 147.563 275.152 147.481 275.18 147.395C275.21 147.314 275.226 147.228 275.226 147.142C275.232 147.076 275.214 147.009 275.174 146.956C275.138 146.912 275.086 146.885 275.03 146.878C274.953 146.863 274.874 146.863 274.797 146.878C274.694 146.89 274.593 146.907 274.492 146.93C274.403 146.946 274.312 146.946 274.223 146.93C274.153 146.915 274.09 146.879 274.042 146.826C273.993 146.77 273.959 146.703 273.944 146.63C273.922 146.535 273.911 146.438 273.913 146.34C273.914 146.213 273.929 146.087 273.959 145.963C273.991 145.831 274.038 145.702 274.099 145.58C274.162 145.457 274.24 145.343 274.332 145.239C274.426 145.129 274.538 145.035 274.662 144.96Z" fill="white"/>
<path d="M275.852 145.585C275.853 145.401 275.872 145.218 275.908 145.037C275.948 144.86 276.005 144.686 276.079 144.52C276.151 144.364 276.242 144.216 276.348 144.081C276.452 143.956 276.576 143.85 276.715 143.765C276.827 143.695 276.956 143.658 277.087 143.657C277.189 143.665 277.284 143.709 277.356 143.781C277.436 143.874 277.495 143.983 277.527 144.101C277.566 144.257 277.585 144.417 277.584 144.577C277.584 144.862 277.584 145.151 277.584 145.441C277.581 145.625 277.56 145.808 277.522 145.989C277.484 146.167 277.426 146.34 277.351 146.506C277.282 146.662 277.191 146.808 277.082 146.94C276.98 147.067 276.856 147.174 276.715 147.256C276.605 147.326 276.478 147.363 276.348 147.364C276.298 147.362 276.249 147.35 276.203 147.329C276.158 147.308 276.118 147.277 276.084 147.24C275.999 147.149 275.94 147.036 275.914 146.914C275.87 146.761 275.849 146.603 275.852 146.444C275.841 146.159 275.841 145.875 275.852 145.585ZM277.289 144.779C277.289 144.655 277.271 144.531 277.237 144.412C277.221 144.33 277.179 144.256 277.118 144.2C277.095 144.177 277.067 144.16 277.037 144.148C277.007 144.137 276.975 144.131 276.943 144.132C276.862 144.14 276.785 144.164 276.715 144.205C276.634 144.258 276.559 144.321 276.493 144.391C276.421 144.471 276.362 144.562 276.317 144.66C276.263 144.772 276.222 144.89 276.193 145.011C276.166 145.151 276.15 145.293 276.146 145.435C276.146 145.585 276.146 145.72 276.146 145.849C276.146 145.978 276.146 146.108 276.146 146.252C276.148 146.376 276.163 146.499 276.193 146.62C276.214 146.7 276.257 146.773 276.317 146.832C276.34 146.854 276.368 146.871 276.398 146.883C276.428 146.894 276.46 146.9 276.493 146.899C276.572 146.893 276.649 146.866 276.715 146.821C276.801 146.773 276.878 146.71 276.943 146.635C277.015 146.555 277.074 146.464 277.118 146.366C277.173 146.257 277.213 146.14 277.237 146.02C277.269 145.879 277.286 145.735 277.289 145.591C277.289 145.446 277.289 145.306 277.289 145.182C277.289 145.058 277.289 144.924 277.289 144.779Z" fill="white"/>
<path d="M279.492 145.606C279.461 145.606 279.44 145.606 279.42 145.606C279.399 145.585 279.381 145.56 279.368 145.533L278.334 143.755V146.159C278.333 146.197 278.324 146.234 278.308 146.268C278.298 146.298 278.278 146.323 278.251 146.34L278.122 146.418C278.113 146.424 278.102 146.428 278.091 146.428C278.08 146.428 278.069 146.424 278.06 146.418C278.05 146.393 278.05 146.365 278.06 146.34V143.212C278.053 143.176 278.053 143.139 278.06 143.103C278.065 143.088 278.073 143.073 278.084 143.061C278.094 143.048 278.107 143.038 278.122 143.031L278.231 142.964C278.262 142.964 278.282 142.964 278.303 142.964C278.323 142.984 278.34 143.006 278.355 143.031L279.389 144.81V142.431C279.39 142.393 279.399 142.356 279.415 142.322C279.425 142.293 279.445 142.267 279.472 142.25L279.601 142.172C279.61 142.166 279.621 142.162 279.632 142.162C279.643 142.162 279.654 142.166 279.663 142.172C279.672 142.197 279.672 142.225 279.663 142.25V145.378C279.67 145.414 279.67 145.451 279.663 145.487C279.658 145.502 279.65 145.517 279.639 145.529C279.628 145.542 279.615 145.552 279.601 145.559L279.492 145.606Z" fill="white"/>
<path d="M280.128 143.093C280.131 142.919 280.15 142.746 280.185 142.576C280.222 142.397 280.279 142.224 280.356 142.059C280.426 141.897 280.521 141.748 280.635 141.614C280.746 141.484 280.879 141.373 281.028 141.288C281.139 141.214 281.267 141.172 281.4 141.164C281.498 141.164 281.594 141.195 281.674 141.252C281.746 141.305 281.801 141.376 281.835 141.459C281.87 141.543 281.891 141.632 281.897 141.722C281.903 141.75 281.903 141.778 281.897 141.805C281.886 141.831 281.868 141.853 281.845 141.867L281.716 141.94C281.669 141.971 281.638 141.971 281.628 141.94C281.604 141.882 281.574 141.826 281.54 141.774C281.513 141.728 281.473 141.69 281.426 141.666C281.377 141.641 281.321 141.632 281.266 141.64C281.189 141.652 281.115 141.68 281.049 141.722C280.96 141.774 280.88 141.839 280.811 141.914C280.736 141.998 280.673 142.092 280.625 142.193C280.565 142.304 280.522 142.422 280.495 142.545C280.464 142.682 280.447 142.822 280.444 142.963C280.444 143.108 280.444 143.243 280.444 143.367C280.444 143.491 280.444 143.62 280.444 143.765C280.444 143.892 280.461 144.019 280.495 144.142C280.517 144.226 280.561 144.301 280.625 144.36C280.65 144.382 280.679 144.4 280.711 144.41C280.743 144.421 280.777 144.425 280.811 144.422C280.895 144.413 280.977 144.385 281.049 144.339C281.135 144.289 281.214 144.226 281.281 144.153C281.362 144.076 281.427 143.985 281.473 143.884C281.532 143.771 281.575 143.651 281.602 143.527C281.634 143.379 281.65 143.228 281.648 143.077V142.943L281.193 143.201C281.186 143.209 281.176 143.213 281.165 143.213C281.154 143.213 281.144 143.209 281.137 143.201C281.118 143.18 281.109 143.152 281.111 143.124V142.953C281.112 142.916 281.121 142.879 281.137 142.845C281.147 142.815 281.167 142.789 281.193 142.772L281.86 142.384C281.869 142.378 281.88 142.374 281.891 142.374C281.903 142.374 281.914 142.378 281.922 142.384C281.932 142.409 281.932 142.437 281.922 142.462V142.922C281.923 143.113 281.902 143.304 281.86 143.491C281.822 143.669 281.763 143.843 281.685 144.008C281.613 144.167 281.519 144.315 281.405 144.447C281.297 144.575 281.167 144.683 281.023 144.768C280.906 144.846 280.77 144.889 280.63 144.892C280.577 144.891 280.526 144.88 280.478 144.858C280.43 144.837 280.386 144.806 280.351 144.768C280.269 144.675 280.212 144.563 280.185 144.442C280.144 144.284 280.123 144.12 280.123 143.956C280.126 143.67 280.128 143.382 280.128 143.093Z" fill="white"/>
</svg>
