<svg width="28" height="28" viewBox="0 0 28 28" fill="none" xmlns="http://www.w3.org/2000/svg">
<path d="M27.0175 20.4498V25.7358C27.0177 26.1143 26.874 26.4788 26.6153 26.7557C26.3567 27.0326 26.0024 27.2013 25.624 27.2278C24.9692 27.2726 24.4342 27.2965 24.0206 27.2965C10.7788 27.2965 0.0454102 16.5884 0.0454102 3.37778C0.0454102 2.96519 0.0678869 2.4315 0.114339 1.77822C0.140895 1.40067 0.310009 1.04722 0.587555 0.78919C0.865102 0.531163 1.23042 0.387768 1.60979 0.38794H6.90832C7.09419 0.387752 7.27349 0.456495 7.41139 0.580815C7.5493 0.705135 7.63596 0.876156 7.65455 1.06065C7.68901 1.40449 7.72048 1.67806 7.75045 1.88585C8.04824 3.95919 8.65851 5.97571 9.56058 7.86704C9.70293 8.16602 9.61003 8.52331 9.34031 8.71466L6.10665 11.0198C8.08378 15.6159 11.7551 19.2786 16.3621 21.2511L18.6697 18.031C18.764 17.8995 18.9016 17.8051 19.0585 17.7644C19.2154 17.7237 19.3817 17.7392 19.5283 17.8083C21.4239 18.7065 23.4446 19.3138 25.5221 19.6097C25.7304 19.6395 26.0046 19.6724 26.3462 19.7053C26.5309 19.7242 26.702 19.8108 26.8263 19.9484C26.9506 20.0859 27.0193 20.2646 27.019 20.4498H27.0175Z" fill="#52C1B9"/>
</svg>
