<svg width="26" height="26" viewBox="0 0 26 26" fill="none" xmlns="http://www.w3.org/2000/svg">
<path d="M6.7085 16.5351L10.4141 11.7202L14.641 15.0382L18.2674 10.3582" stroke="#F8AB3A" stroke-width="1.86203" stroke-linecap="round" stroke-linejoin="round"/>
<path fill-rule="evenodd" clip-rule="evenodd" d="M22.4949 1.05408C23.8097 1.05408 24.8745 2.11884 24.8745 3.4337C24.8745 4.74732 23.8097 5.81332 22.4949 5.81332C21.18 5.81332 20.1152 4.74732 20.1152 3.4337C20.1152 2.11884 21.18 1.05408 22.4949 1.05408Z" stroke="#F8AB3A" stroke-width="1.86203" stroke-linecap="round" stroke-linejoin="round"/>
<path d="M23.8423 9.62047C24.007 10.7286 24.0825 11.9766 24.0825 13.3769C24.0825 21.9668 21.22 24.8292 12.6301 24.8292C4.04145 24.8292 1.17773 21.9668 1.17773 13.3769C1.17773 4.78818 4.04145 1.92447 12.6301 1.92447C14.0044 1.92447 15.2314 1.99752 16.3234 2.15599" stroke="#F8AB3A" stroke-width="1.86203" stroke-linecap="round" stroke-linejoin="round"/>
</svg>
