<svg width="35" height="35" viewBox="0 0 35 35" fill="none" xmlns="http://www.w3.org/2000/svg">
<path d="M24.8726 8.65728C26.1695 8.65728 27.2209 7.60594 27.2209 6.30905C27.2209 5.01216 26.1695 3.96082 24.8726 3.96082C23.5758 3.96082 22.5244 5.01216 22.5244 6.30905C22.5244 7.60594 23.5758 8.65728 24.8726 8.65728Z" fill="#A8B1BD"/>
<path d="M24.2127 14.9466C24.2923 15.0684 24.4009 15.1685 24.5287 15.2379C24.6566 15.3072 24.7997 15.3437 24.9451 15.344C25.1035 15.343 25.2588 15.3 25.3951 15.2192L29.6284 12.7068C29.8288 12.5861 29.973 12.3908 30.0293 12.1639C30.0857 11.9369 30.0496 11.6969 29.929 11.4965C29.8083 11.2962 29.613 11.152 29.3861 11.0956C29.1591 11.0393 28.919 11.0754 28.7187 11.196L25.2177 13.2782L23.5329 9.99398C23.0624 9.52056 22.5633 9.07636 22.0386 8.66386L17.0169 6.14485C16.8587 6.06538 16.6803 6.03511 16.5047 6.05794C16.3291 6.08077 16.1643 6.15565 16.0317 6.27293L11.8213 10.0432C11.6471 10.1987 11.5418 10.417 11.5285 10.6502C11.5153 10.8833 11.5952 11.1121 11.7507 11.2863C11.9061 11.4605 12.1245 11.5658 12.3576 11.5791C12.5907 11.5923 12.8195 11.5124 12.9938 11.3569L16.7641 7.98402L19.3652 9.29772L14.9249 16.2537L4.6682 28.3759C4.47004 28.6037 4.37047 28.9008 4.39142 29.202C4.41236 29.5032 4.55208 29.7837 4.77986 29.9819C5.00764 30.18 5.3048 30.2796 5.60598 30.2587C5.90717 30.2377 6.18769 30.098 6.38586 29.8702L16.3305 18.3984L20.6001 19.3836L17.6804 23.9586C17.5374 24.2116 17.497 24.5098 17.5677 24.7917C17.6383 25.0736 17.8146 25.3175 18.06 25.4731C18.3054 25.6287 18.6013 25.6841 18.8864 25.6278C19.1714 25.5714 19.424 25.4077 19.5918 25.1705L23.3555 19.2391C23.4565 19.0879 23.5191 18.9144 23.538 18.7336C23.5569 18.5528 23.5314 18.3701 23.4639 18.2013C23.3925 18.0376 23.2837 17.8929 23.1462 17.7788C23.0088 17.6647 22.8465 17.5845 22.6724 17.5445L19.3882 16.7891L22.367 12.1123L24.2127 14.9466Z" fill="#A8B1BD"/>
</svg>
