<svg width="18" height="18" viewBox="0 0 18 18" fill="none" xmlns="http://www.w3.org/2000/svg">
<path d="M8.43297 1.62921C8.68757 1.19513 9.31512 1.19513 9.56971 1.62921L11.864 5.54093C11.9574 5.70019 12.1134 5.81295 12.2939 5.85177L16.742 6.80829C17.2371 6.91477 17.432 7.51675 17.0933 7.89323L14.0658 11.258C13.9414 11.3962 13.8812 11.5806 13.9001 11.7656L14.3583 16.2593C14.4094 16.7612 13.9007 17.1321 13.4386 16.9298L9.2655 15.1037C9.0971 15.03 8.90558 15.03 8.73718 15.1037L4.56411 16.9298C4.10196 17.1321 3.59326 16.7612 3.64443 16.2593L4.1026 11.7656C4.12146 11.5806 4.06128 11.3962 3.93691 11.258L0.90938 7.89323C0.570635 7.51675 0.765556 6.91477 1.26068 6.80829L5.7088 5.85177C5.8893 5.81295 6.04524 5.70019 6.13864 5.54093L8.43297 1.62921Z" fill="#FFB400"/>
</svg>
