<svg width="38" height="38" viewBox="0 0 38 38" fill="none" xmlns="http://www.w3.org/2000/svg">
<circle cx="19" cy="19" r="19" fill="#F9FAFF"/>
<path fill-rule="evenodd" clip-rule="evenodd" d="M23.0011 20H19.0011C18.4491 20 18.0011 19.553 18.0011 19V15C18.0011 14.447 18.4491 14 19.0011 14C19.5531 14 20.0011 14.447 20.0011 15V18H23.0011C23.5541 18 24.0011 18.447 24.0011 19C24.0011 19.553 23.5541 20 23.0011 20ZM19 9C13.486 9 9 13.486 9 19C9 24.514 13.486 29.0001 19 29.0001C24.514 29.0001 29.0001 24.514 29.0001 19C29.0001 13.486 24.514 9 19 9Z" fill="#231F20"/>
<mask id="mask0_17344_214010" style="mask-type:luminance" maskUnits="userSpaceOnUse" x="9" y="9" width="20" height="20">
<path fill-rule="evenodd" clip-rule="evenodd" d="M23.0011 20H19.0011C18.4491 20 18.0011 19.553 18.0011 19V15C18.0011 14.447 18.4491 14 19.0011 14C19.5531 14 20.0011 14.447 20.0011 15V18H23.0011C23.5541 18 24.0011 18.447 24.0011 19C24.0011 19.553 23.5541 20 23.0011 20ZM19 9C13.486 9 9 13.486 9 19C9 24.514 13.486 29.0001 19 29.0001C24.514 29.0001 29.0001 24.514 29.0001 19C29.0001 13.486 24.514 9 19 9Z" fill="white"/>
</mask>
<g mask="url(#mask0_17344_214010)">
<rect x="7" y="7" width="24.0001" height="24.0001" fill="#FFB400"/>
</g>
</svg>
