<svg width="45" height="44" viewBox="0 0 45 44" fill="none" xmlns="http://www.w3.org/2000/svg">
<circle cx="22.5" cy="22" r="22" fill="#725AEC"/>
<path fill-rule="evenodd" clip-rule="evenodd" d="M12.5 22.0058C12.5 16.4863 16.9884 12 22.5 12C28.0116 12 32.5 16.4863 32.5 22.0058C32.5 27.5137 28.0116 32 22.5 32C16.9884 32 12.5 27.5137 12.5 22.0058ZM26.168 23.0178C26.2741 22.9117 26.4093 22.7477 26.4382 22.7091C26.5927 22.5065 26.6699 22.2557 26.6699 22.0058C26.6699 21.725 26.583 21.4645 26.4189 21.2523C26.4055 21.2388 26.3791 21.2102 26.3448 21.1728C26.2806 21.103 26.1885 21.0026 26.1004 20.9146C25.3089 20.0656 23.2432 18.6763 22.1622 18.2518C21.9981 18.1852 21.583 18.0396 21.361 18.0299C21.1486 18.0299 20.9459 18.0781 20.7529 18.1746C20.5116 18.3097 20.3185 18.5219 20.2124 18.7728C20.1448 18.9465 20.0386 19.4674 20.0386 19.4771C19.9324 20.0463 19.8745 20.9725 19.8745 21.9952C19.8745 22.9706 19.9324 23.8572 20.0193 24.4361C20.0217 24.4385 20.03 24.4799 20.0429 24.5442C20.0821 24.7397 20.1638 25.1471 20.251 25.314C20.4633 25.7192 20.8784 25.9701 21.3224 25.9701H21.361C21.6506 25.9604 22.2587 25.7096 22.2587 25.7C23.2819 25.2754 25.2992 23.9537 26.11 23.0757L26.168 23.0178Z" fill="white"/>
</svg>
