<svg width="20" height="18" viewBox="0 0 20 18" fill="none" xmlns="http://www.w3.org/2000/svg">
<path fill-rule="evenodd" clip-rule="evenodd" d="M6.18414 0.40448H13.8107C16.6971 0.40448 19.0454 2.80642 19.0454 5.75969V12.2397C19.0454 15.193 16.6971 17.595 13.8107 17.595C13.4777 17.595 13.2075 17.3185 13.2075 16.9778C13.2075 16.6371 13.4777 16.3607 13.8107 16.3607C16.032 16.3607 17.8391 14.5125 17.8391 12.2397V7.06804H14.8682C13.8927 7.06886 13.0973 7.88186 13.0965 8.88081C13.0973 9.87977 13.8927 10.6928 14.8682 10.6936H16.1027C16.4357 10.6936 16.7059 10.9701 16.7059 11.3107C16.7059 11.6514 16.4357 11.9279 16.1027 11.9279H14.8682C13.2268 11.9271 11.891 10.5603 11.8902 8.88081C11.891 7.20135 13.2268 5.83457 14.8682 5.83374H17.8391V5.75969C17.8391 3.48693 16.032 1.63878 13.8107 1.63878H6.18414C4.39392 1.63878 2.89161 2.84674 2.36806 4.50153H10.3187C10.6517 4.50153 10.9219 4.77801 10.9219 5.11867C10.9219 5.46016 10.6517 5.73582 10.3187 5.73582H2.15896C2.15896 5.73994 2.15835 5.74385 2.15775 5.74776C2.15715 5.75166 2.15654 5.75557 2.15654 5.75969V12.2397C2.15654 14.5125 3.96285 16.3607 6.18414 16.3607H10.0211C10.3541 16.3607 10.6243 16.6371 10.6243 16.9778C10.6243 17.3185 10.3541 17.595 10.0211 17.595H6.18414C3.29775 17.595 0.950195 15.193 0.950195 12.2397V5.75969C0.950195 2.80642 3.29775 0.40448 6.18414 0.40448ZM14.3956 8.82518C14.3956 8.48452 14.6659 8.20803 14.9988 8.20803H15.273C15.606 8.20803 15.8762 8.48452 15.8762 8.82518C15.8762 9.16585 15.606 9.44233 15.273 9.44233H14.9988C14.6659 9.44233 14.3956 9.16585 14.3956 8.82518Z" fill="#4B9DBC"/>
</svg>
