<svg width="61" height="61" viewBox="0 0 61 61" fill="none" xmlns="http://www.w3.org/2000/svg">
<circle cx="30.4575" cy="30.0298" r="30.0298" fill="#00A651"/>
<path fill-rule="evenodd" clip-rule="evenodd" d="M16.8047 30.0377C16.8047 22.5036 22.9313 16.3799 30.4546 16.3799C37.9778 16.3799 44.1045 22.5036 44.1045 30.0377C44.1045 37.556 37.9778 43.6797 30.4546 43.6797C22.9313 43.6797 16.8047 37.556 16.8047 30.0377ZM35.462 31.4183C35.6069 31.2734 35.7914 31.0496 35.8309 30.9969C36.0417 30.7203 36.1471 30.3779 36.1471 30.0369C36.1471 29.6536 36.0285 29.2981 35.8045 29.0083C35.7862 28.99 35.7502 28.9509 35.7034 28.8999C35.6158 28.8045 35.49 28.6676 35.3697 28.5474C34.2893 27.3885 31.4698 25.4922 29.9941 24.9127C29.7701 24.8218 29.2036 24.623 28.9005 24.6098C28.6107 24.6098 28.334 24.6757 28.0705 24.8074C27.7411 24.9917 27.4776 25.2814 27.3326 25.6238C27.2404 25.8609 27.0955 26.572 27.0955 26.5852C26.9505 27.3622 26.8715 28.6264 26.8715 30.0224C26.8715 31.3538 26.9505 32.564 27.0691 33.3542C27.0724 33.3574 27.0837 33.414 27.1013 33.5017C27.1549 33.7686 27.2664 34.3247 27.3853 34.5526C27.6752 35.1057 28.2418 35.4481 28.8478 35.4481H28.9005C29.2958 35.4349 30.1259 35.0925 30.1259 35.0794C31.5225 34.4999 34.2762 32.6957 35.3829 31.4973L35.462 31.4183Z" fill="white"/>
</svg>
