<svg width="35" height="35" viewBox="0 0 35 35" fill="none" xmlns="http://www.w3.org/2000/svg">
<path d="M29.3171 6.45966H5.68384C4.33694 6.45966 3.24121 7.52927 3.24121 8.84387V25.3781C3.24121 26.693 4.33694 27.7626 5.68384 27.7626H29.3174C30.664 27.7626 31.7597 26.693 31.7597 25.3784V8.84387C31.7597 7.52927 30.664 6.45966 29.3171 6.45966ZM8.05156 16.0804H5.30279V13.3316H8.05156V16.0804ZM5.30279 18.1419H8.05156V20.8907H5.30279V18.1419ZM10.1131 8.52124H24.9307V25.7011H10.1131V8.52124ZM26.9466 11.27V8.52124H29.0082C29.3879 8.52124 29.6954 8.82875 29.6954 9.20843V11.27C29.6954 11.27 26.9659 11.269 26.9466 11.27ZM26.9466 16.0804V13.3316H29.6954V16.0804C29.6954 16.0804 26.9659 16.0793 26.9466 16.0804ZM26.9466 20.8907V18.1419H29.6954V20.8907C29.6954 20.8907 26.9659 20.8897 26.9466 20.8907ZM26.9494 25.7011V22.9523H29.6982V25.0135C29.6982 25.3932 29.392 25.7007 29.0127 25.7007C28.2025 25.7007 26.9624 25.7004 26.9494 25.7011ZM5.98998 8.52124H8.05156V11.27H5.30279V9.20843C5.30279 8.83047 5.61203 8.52124 5.98998 8.52124ZM5.30279 25.0139V22.9523H8.05156V25.7011H5.98998C5.61203 25.7011 5.30279 25.3918 5.30279 25.0139Z" fill="#A8B1BD"/>
<path d="M20.2059 17.0603L15.7416 13.8587C15.3997 13.6137 14.9238 13.858 14.9238 14.2785V20.6818C14.9238 21.1024 15.3997 21.3467 15.7416 21.1017L20.2059 17.9C20.4932 17.6939 20.4932 17.2665 20.2059 17.0603Z" fill="#A8B1BD"/>
</svg>
