<svg width="31" height="31" viewBox="0 0 31 31" fill="none" xmlns="http://www.w3.org/2000/svg">
<path d="M0.672539 30.8474L2.70569 23.3941C1.366 21.103 0.662157 18.4972 0.666524 15.8447C0.666524 7.55874 7.39908 0.842041 15.7046 0.842041C24.0102 0.842041 30.7427 7.55874 30.7427 15.8447C30.7427 24.1307 24.0102 30.8474 15.7046 30.8474C13.0471 30.8517 10.4363 30.15 8.14046 28.8145L0.672539 30.8474ZM10.2774 8.80547C10.0832 8.8175 9.89342 8.86852 9.71946 8.95549C9.55633 9.04765 9.40742 9.16287 9.27734 9.29755C9.09689 9.46708 8.99463 9.61411 8.88485 9.75664C8.32906 10.4783 8.0301 11.3641 8.0352 12.2741C8.0382 13.0092 8.23069 13.7248 8.53145 14.394C9.14651 15.7472 10.1586 17.18 11.4955 18.5077C11.8173 18.8273 12.1316 19.1483 12.4699 19.4469C14.1292 20.9043 16.1065 21.9554 18.2446 22.5164L19.1002 22.6469C19.3784 22.6619 19.6566 22.6409 19.9364 22.6274C20.3743 22.6049 20.802 22.4866 21.189 22.2809C21.4387 22.1489 21.556 22.0828 21.765 21.9508C21.765 21.9508 21.8297 21.9088 21.953 21.8158C22.156 21.6658 22.2808 21.5592 22.4492 21.3837C22.574 21.2547 22.6823 21.1032 22.765 20.9306C22.8823 20.6861 22.9996 20.2195 23.0477 19.8309C23.0838 19.5339 23.0733 19.3719 23.0688 19.2713C23.0628 19.1108 22.9289 18.9443 22.7831 18.8738L21.9078 18.4822C21.9078 18.4822 20.5995 17.9136 19.801 17.5505C19.7168 17.5139 19.6266 17.4931 19.5348 17.489C19.4319 17.4785 19.328 17.49 19.2299 17.5229C19.1319 17.5558 19.042 17.6092 18.9664 17.6796V17.6766C18.9589 17.6766 18.8581 17.7621 17.7709 19.0763C17.7085 19.16 17.6225 19.2232 17.5239 19.2579C17.4254 19.2927 17.3187 19.2973 17.2175 19.2713C17.1195 19.2452 17.0235 19.2121 16.9302 19.1723C16.7438 19.0943 16.6791 19.0643 16.5513 19.0088L16.5438 19.0058C15.6834 18.6311 14.8869 18.1249 14.1828 17.5055C13.9933 17.3405 13.8173 17.1605 13.6369 16.9864C13.0453 16.4212 12.5297 15.7817 12.103 15.0841L12.0143 14.9416C11.9506 14.8458 11.899 14.7425 11.8609 14.634C11.8037 14.4135 11.9526 14.2364 11.9526 14.2364C11.9526 14.2364 12.318 13.8374 12.488 13.6213C12.6295 13.4418 12.7615 13.255 12.8835 13.0617C13.0609 12.7767 13.1166 12.4841 13.0233 12.2576C12.6023 11.2314 12.1662 10.2097 11.718 9.19554C11.6293 8.9945 11.3661 8.85047 11.127 8.82197C11.0458 8.81297 10.9646 8.80397 10.8834 8.79797C10.6815 8.78796 10.4791 8.78996 10.2774 8.80397V8.80547Z" fill="#25D366"/>
</svg>
