<svg width="14" height="16" viewBox="0 0 14 16" fill="none" xmlns="http://www.w3.org/2000/svg">
<path fill-rule="evenodd" clip-rule="evenodd" d="M4.63812 0.380951H9.33907C11.4038 0.380951 13.0724 1.19619 13.0953 3.26857V14.8343C13.0953 14.9638 13.0648 15.0933 13.0038 15.2076C12.9048 15.3905 12.7372 15.5276 12.5315 15.5886C12.3334 15.6495 12.1124 15.619 11.9295 15.5124L6.9924 13.0438L2.04764 15.5124C1.93412 15.5726 1.80383 15.6114 1.67431 15.6114C1.24764 15.6114 0.904785 15.2609 0.904785 14.8343V3.26857C0.904785 1.19619 2.58098 0.380951 4.63812 0.380951ZM4.12 6.18667H9.85714C10.1848 6.18667 10.4514 5.91925 10.4514 5.58477C10.4514 5.24953 10.1848 4.98286 9.85714 4.98286H4.12C3.79238 4.98286 3.52571 5.24953 3.52571 5.58477C3.52571 5.91925 3.79238 6.18667 4.12 6.18667Z" fill="#725AEC"/>
</svg>
